G04 #@! TF.GenerationSoftware,KiCad,Pcbnew,(5.0.2)-1*
G04 #@! TF.CreationDate,2019-04-02T22:31:29+09:00*
G04 #@! TF.ProjectId,FirstContact,46697273-7443-46f6-9e74-6163742e6b69,rev?*
G04 #@! TF.SameCoordinates,Original*
G04 #@! TF.FileFunction,Copper,L1,Top*
G04 #@! TF.FilePolarity,Positive*
%FSLAX46Y46*%
G04 Gerber Fmt 4.6, Leading zero omitted, Abs format (unit mm)*
G04 Created by KiCad (PCBNEW (5.0.2)-1) date 2019/04/02 22:31:29*
%MOMM*%
%LPD*%
G01*
G04 APERTURE LIST*
G04 #@! TA.AperFunction,ComponentPad*
%ADD10C,1.524000*%
G04 #@! TD*
G04 #@! TA.AperFunction,SMDPad,CuDef*
%ADD11R,1.300000X0.950000*%
G04 #@! TD*
G04 #@! TA.AperFunction,ComponentPad*
%ADD12C,1.397000*%
G04 #@! TD*
G04 #@! TA.AperFunction,ComponentPad*
%ADD13R,1.397000X1.397000*%
G04 #@! TD*
G04 #@! TA.AperFunction,ComponentPad*
%ADD14O,2.500000X1.700000*%
G04 #@! TD*
G04 #@! TA.AperFunction,SMDPad,CuDef*
%ADD15R,1.524000X1.524000*%
G04 #@! TD*
G04 #@! TA.AperFunction,ComponentPad*
%ADD16C,2.000000*%
G04 #@! TD*
G04 #@! TA.AperFunction,SMDPad,CuDef*
%ADD17R,2.000000X2.000000*%
G04 #@! TD*
G04 #@! TA.AperFunction,SMDPad,CuDef*
%ADD18R,1.800000X2.000000*%
G04 #@! TD*
G04 #@! TA.AperFunction,WasherPad*
%ADD19C,5.000000*%
G04 #@! TD*
G04 #@! TA.AperFunction,ViaPad*
%ADD20C,0.800000*%
G04 #@! TD*
G04 #@! TA.AperFunction,Conductor*
%ADD21C,0.250000*%
G04 #@! TD*
G04 #@! TA.AperFunction,Conductor*
%ADD22C,0.500000*%
G04 #@! TD*
G04 APERTURE END LIST*
D10*
G04 #@! TO.P,U1,24*
G04 #@! TO.N,Net-(U1-Pad24)*
X174183900Y-45142000D03*
G04 #@! TO.P,U1,23*
G04 #@! TO.N,GND*
X174183900Y-47682000D03*
G04 #@! TO.P,U1,22*
G04 #@! TO.N,reset*
X174183900Y-50222000D03*
G04 #@! TO.P,U1,21*
G04 #@! TO.N,VCC*
X174183900Y-52762000D03*
G04 #@! TO.P,U1,20*
G04 #@! TO.N,col0*
X174183900Y-55302000D03*
G04 #@! TO.P,U1,19*
G04 #@! TO.N,col1*
X174183900Y-57842000D03*
G04 #@! TO.P,U1,18*
G04 #@! TO.N,col2*
X174183900Y-60382000D03*
G04 #@! TO.P,U1,17*
G04 #@! TO.N,col3*
X174183900Y-62922000D03*
G04 #@! TO.P,U1,16*
G04 #@! TO.N,Net-(U1-Pad16)*
X174183900Y-65462000D03*
G04 #@! TO.P,U1,15*
G04 #@! TO.N,Net-(U1-Pad15)*
X174183900Y-68002000D03*
G04 #@! TO.P,U1,14*
G04 #@! TO.N,Net-(U1-Pad14)*
X174183900Y-70542000D03*
G04 #@! TO.P,U1,13*
G04 #@! TO.N,Net-(U1-Pad13)*
X174183900Y-73082000D03*
G04 #@! TO.P,U1,12*
G04 #@! TO.N,Net-(U1-Pad12)*
X189403900Y-73082000D03*
G04 #@! TO.P,U1,11*
G04 #@! TO.N,Net-(U1-Pad11)*
X189403900Y-70542000D03*
G04 #@! TO.P,U1,10*
G04 #@! TO.N,row3*
X189403900Y-68002000D03*
G04 #@! TO.P,U1,9*
G04 #@! TO.N,row2*
X189403900Y-65462000D03*
G04 #@! TO.P,U1,8*
G04 #@! TO.N,row1*
X189403900Y-62922000D03*
G04 #@! TO.P,U1,7*
G04 #@! TO.N,row0*
X189403900Y-60382000D03*
G04 #@! TO.P,U1,6*
G04 #@! TO.N,Net-(U1-Pad6)*
X189403900Y-57842000D03*
G04 #@! TO.P,U1,5*
G04 #@! TO.N,Net-(U1-Pad5)*
X189403900Y-55302000D03*
G04 #@! TO.P,U1,4*
G04 #@! TO.N,GND*
X189403900Y-52762000D03*
G04 #@! TO.P,U1,3*
X189403900Y-50222000D03*
G04 #@! TO.P,U1,2*
G04 #@! TO.N,data*
X189403900Y-47682000D03*
G04 #@! TO.P,U1,1*
G04 #@! TO.N,led*
X189403900Y-45142000D03*
X172857500Y-46412000D03*
G04 #@! TO.P,U1,2*
G04 #@! TO.N,data*
X172857500Y-48952000D03*
G04 #@! TO.P,U1,3*
G04 #@! TO.N,GND*
X172857500Y-51492000D03*
G04 #@! TO.P,U1,4*
X172857500Y-54032000D03*
G04 #@! TO.P,U1,5*
G04 #@! TO.N,Net-(U1-Pad5)*
X172857500Y-56572000D03*
G04 #@! TO.P,U1,6*
G04 #@! TO.N,Net-(U1-Pad6)*
X172857500Y-59112000D03*
G04 #@! TO.P,U1,7*
G04 #@! TO.N,row0*
X172857500Y-61652000D03*
G04 #@! TO.P,U1,8*
G04 #@! TO.N,row1*
X172857500Y-64192000D03*
G04 #@! TO.P,U1,9*
G04 #@! TO.N,row2*
X172857500Y-66732000D03*
G04 #@! TO.P,U1,10*
G04 #@! TO.N,row3*
X172857500Y-69272000D03*
G04 #@! TO.P,U1,11*
G04 #@! TO.N,Net-(U1-Pad11)*
X172857500Y-71812000D03*
G04 #@! TO.P,U1,12*
G04 #@! TO.N,Net-(U1-Pad12)*
X172857500Y-74352000D03*
G04 #@! TO.P,U1,13*
G04 #@! TO.N,Net-(U1-Pad13)*
X188097500Y-74352000D03*
G04 #@! TO.P,U1,14*
G04 #@! TO.N,Net-(U1-Pad14)*
X188097500Y-71812000D03*
G04 #@! TO.P,U1,15*
G04 #@! TO.N,Net-(U1-Pad15)*
X188097500Y-69272000D03*
G04 #@! TO.P,U1,16*
G04 #@! TO.N,Net-(U1-Pad16)*
X188097500Y-66732000D03*
G04 #@! TO.P,U1,17*
G04 #@! TO.N,col3*
X188097500Y-64192000D03*
G04 #@! TO.P,U1,18*
G04 #@! TO.N,col2*
X188097500Y-61652000D03*
G04 #@! TO.P,U1,19*
G04 #@! TO.N,col1*
X188097500Y-59112000D03*
G04 #@! TO.P,U1,20*
G04 #@! TO.N,col0*
X188097500Y-56572000D03*
G04 #@! TO.P,U1,21*
G04 #@! TO.N,VCC*
X188097500Y-54032000D03*
G04 #@! TO.P,U1,22*
G04 #@! TO.N,reset*
X188097500Y-51492000D03*
G04 #@! TO.P,U1,23*
G04 #@! TO.N,GND*
X188097500Y-48952000D03*
G04 #@! TO.P,U1,24*
G04 #@! TO.N,Net-(U1-Pad24)*
X188097500Y-46412000D03*
G04 #@! TD*
D11*
G04 #@! TO.P,D1,2*
G04 #@! TO.N,Net-(D1-Pad2)*
X105735000Y-78670000D03*
D12*
X107770000Y-78670000D03*
D13*
G04 #@! TO.P,D1,1*
G04 #@! TO.N,row2*
X100150000Y-78670000D03*
D11*
X102185000Y-78670000D03*
G04 #@! TD*
G04 #@! TO.P,D2,2*
G04 #@! TO.N,Net-(D2-Pad2)*
X126055000Y-59620000D03*
D12*
X128090000Y-59620000D03*
D13*
G04 #@! TO.P,D2,1*
G04 #@! TO.N,row1*
X120470000Y-59620000D03*
D11*
X122505000Y-59620000D03*
G04 #@! TD*
G04 #@! TO.P,D3,2*
G04 #@! TO.N,Net-(D3-Pad2)*
X174315000Y-92640000D03*
D12*
X176350000Y-92640000D03*
D13*
G04 #@! TO.P,D3,1*
G04 #@! TO.N,row3*
X168730000Y-92640000D03*
D11*
X170765000Y-92640000D03*
G04 #@! TD*
G04 #@! TO.P,D4,1*
G04 #@! TO.N,row0*
X121235000Y-40570000D03*
D13*
X119200000Y-40570000D03*
D12*
G04 #@! TO.P,D4,2*
G04 #@! TO.N,Net-(D4-Pad2)*
X126820000Y-40570000D03*
D11*
X124785000Y-40570000D03*
G04 #@! TD*
G04 #@! TO.P,D5,1*
G04 #@! TO.N,row2*
X122505000Y-78670000D03*
D13*
X120470000Y-78670000D03*
D12*
G04 #@! TO.P,D5,2*
G04 #@! TO.N,Net-(D5-Pad2)*
X128090000Y-78670000D03*
D11*
X126055000Y-78670000D03*
G04 #@! TD*
G04 #@! TO.P,D6,1*
G04 #@! TO.N,row1*
X141050000Y-54540000D03*
D13*
X139015000Y-54540000D03*
D12*
G04 #@! TO.P,D6,2*
G04 #@! TO.N,Net-(D6-Pad2)*
X146635000Y-54540000D03*
D11*
X144600000Y-54540000D03*
G04 #@! TD*
G04 #@! TO.P,D7,2*
G04 #@! TO.N,Net-(D7-Pad2)*
X143835000Y-35490000D03*
D12*
X145870000Y-35490000D03*
D13*
G04 #@! TO.P,D7,1*
G04 #@! TO.N,row0*
X138250000Y-35490000D03*
D11*
X140285000Y-35490000D03*
G04 #@! TD*
G04 #@! TO.P,D8,2*
G04 #@! TO.N,Net-(D8-Pad2)*
X145105000Y-73590000D03*
D12*
X147140000Y-73590000D03*
D13*
G04 #@! TO.P,D8,1*
G04 #@! TO.N,row2*
X139520000Y-73590000D03*
D11*
X141555000Y-73590000D03*
G04 #@! TD*
G04 #@! TO.P,D9,1*
G04 #@! TO.N,row1*
X159335000Y-54540000D03*
D13*
X157300000Y-54540000D03*
D12*
G04 #@! TO.P,D9,2*
G04 #@! TO.N,Net-(D9-Pad2)*
X164920000Y-54540000D03*
D11*
X162885000Y-54540000D03*
G04 #@! TD*
G04 #@! TO.P,D10,1*
G04 #@! TO.N,row0*
X159335000Y-35490000D03*
D13*
X157300000Y-35490000D03*
D12*
G04 #@! TO.P,D10,2*
G04 #@! TO.N,Net-(D10-Pad2)*
X164920000Y-35490000D03*
D11*
X162885000Y-35490000D03*
G04 #@! TD*
G04 #@! TO.P,D11,1*
G04 #@! TO.N,row2*
X159840000Y-73590000D03*
D13*
X157805000Y-73590000D03*
D12*
G04 #@! TO.P,D11,2*
G04 #@! TO.N,Net-(D11-Pad2)*
X165425000Y-73590000D03*
D11*
X163390000Y-73590000D03*
G04 #@! TD*
D14*
G04 #@! TO.P,J1,D*
G04 #@! TO.N,data*
X178591250Y-84345000D03*
G04 #@! TO.P,J1,A*
G04 #@! TO.N,Net-(J1-PadA)*
X177091250Y-88545000D03*
G04 #@! TO.P,J1,B*
G04 #@! TO.N,VCC*
X185591250Y-84345000D03*
G04 #@! TO.P,J1,C*
G04 #@! TO.N,GND*
X182591250Y-84345000D03*
G04 #@! TO.P,J1,B*
G04 #@! TO.N,VCC*
X185591250Y-90295000D03*
G04 #@! TO.P,J1,C*
G04 #@! TO.N,GND*
X182591250Y-90295000D03*
G04 #@! TO.P,J1,D*
G04 #@! TO.N,data*
X178591250Y-90295000D03*
G04 #@! TO.P,J1,A*
G04 #@! TO.N,Net-(J1-PadA)*
X177091250Y-86095000D03*
G04 #@! TD*
D15*
G04 #@! TO.P,J2,3*
G04 #@! TO.N,GND*
X181430000Y-78670000D03*
G04 #@! TO.P,J2,2*
G04 #@! TO.N,led*
X183970000Y-78670000D03*
G04 #@! TO.P,J2,1*
G04 #@! TO.N,VCC*
X186510000Y-78670000D03*
G04 #@! TD*
D16*
G04 #@! TO.P,SW1,1*
G04 #@! TO.N,reset*
X177853750Y-78670000D03*
G04 #@! TO.P,SW1,2*
G04 #@! TO.N,GND*
X171353750Y-78670000D03*
G04 #@! TD*
D17*
G04 #@! TO.P,SW2,1*
G04 #@! TO.N,col0*
X108885000Y-90562500D03*
D18*
G04 #@! TO.P,SW2,2*
G04 #@! TO.N,Net-(D1-Pad2)*
X97985000Y-92762500D03*
D17*
X107685000Y-84322500D03*
G04 #@! TO.P,SW2,1*
G04 #@! TO.N,col0*
X95185000Y-81782500D03*
G04 #@! TD*
G04 #@! TO.P,SW3,1*
G04 #@! TO.N,col0*
X114235000Y-62732500D03*
G04 #@! TO.P,SW3,2*
G04 #@! TO.N,Net-(D2-Pad2)*
X126735000Y-65272500D03*
D18*
X117035000Y-73712500D03*
D17*
G04 #@! TO.P,SW3,1*
G04 #@! TO.N,col0*
X127935000Y-71512500D03*
G04 #@! TD*
G04 #@! TO.P,SW4,1*
G04 #@! TO.N,col0*
X161860000Y-96070000D03*
G04 #@! TO.P,SW4,2*
G04 #@! TO.N,Net-(D3-Pad2)*
X174360000Y-98610000D03*
D18*
X164660000Y-107050000D03*
D17*
G04 #@! TO.P,SW4,1*
G04 #@! TO.N,col0*
X175560000Y-104850000D03*
G04 #@! TD*
G04 #@! TO.P,SW5,1*
G04 #@! TO.N,col0*
X127935000Y-52462500D03*
D18*
G04 #@! TO.P,SW5,2*
G04 #@! TO.N,Net-(D4-Pad2)*
X117035000Y-54662500D03*
D17*
X126735000Y-46222500D03*
G04 #@! TO.P,SW5,1*
G04 #@! TO.N,col0*
X114235000Y-43682500D03*
G04 #@! TD*
G04 #@! TO.P,SW6,1*
G04 #@! TO.N,col1*
X127935000Y-90562500D03*
D18*
G04 #@! TO.P,SW6,2*
G04 #@! TO.N,Net-(D5-Pad2)*
X117035000Y-92762500D03*
D17*
X126735000Y-84322500D03*
G04 #@! TO.P,SW6,1*
G04 #@! TO.N,col1*
X114235000Y-81782500D03*
G04 #@! TD*
G04 #@! TO.P,SW7,1*
G04 #@! TO.N,col1*
X146985000Y-66750000D03*
D18*
G04 #@! TO.P,SW7,2*
G04 #@! TO.N,Net-(D6-Pad2)*
X136085000Y-68950000D03*
D17*
X145785000Y-60510000D03*
G04 #@! TO.P,SW7,1*
G04 #@! TO.N,col1*
X133285000Y-57970000D03*
G04 #@! TD*
G04 #@! TO.P,SW8,1*
G04 #@! TO.N,col1*
X146985000Y-47700000D03*
D18*
G04 #@! TO.P,SW8,2*
G04 #@! TO.N,Net-(D7-Pad2)*
X136085000Y-49900000D03*
D17*
X145785000Y-41460000D03*
G04 #@! TO.P,SW8,1*
G04 #@! TO.N,col1*
X133285000Y-38920000D03*
G04 #@! TD*
G04 #@! TO.P,SW9,1*
G04 #@! TO.N,col2*
X133285000Y-77020000D03*
G04 #@! TO.P,SW9,2*
G04 #@! TO.N,Net-(D8-Pad2)*
X145785000Y-79560000D03*
D18*
X136085000Y-88000000D03*
D17*
G04 #@! TO.P,SW9,1*
G04 #@! TO.N,col2*
X146985000Y-85800000D03*
G04 #@! TD*
G04 #@! TO.P,SW10,1*
G04 #@! TO.N,col2*
X152335000Y-57970000D03*
G04 #@! TO.P,SW10,2*
G04 #@! TO.N,Net-(D9-Pad2)*
X164835000Y-60510000D03*
D18*
X155135000Y-68950000D03*
D17*
G04 #@! TO.P,SW10,1*
G04 #@! TO.N,col2*
X166035000Y-66750000D03*
G04 #@! TD*
G04 #@! TO.P,SW11,1*
G04 #@! TO.N,col2*
X166035000Y-47700000D03*
D18*
G04 #@! TO.P,SW11,2*
G04 #@! TO.N,Net-(D10-Pad2)*
X155135000Y-49900000D03*
D17*
X164835000Y-41460000D03*
G04 #@! TO.P,SW11,1*
G04 #@! TO.N,col2*
X152335000Y-38920000D03*
G04 #@! TD*
G04 #@! TO.P,SW12,1*
G04 #@! TO.N,col3*
X152335000Y-77020000D03*
G04 #@! TO.P,SW12,2*
G04 #@! TO.N,Net-(D11-Pad2)*
X164835000Y-79560000D03*
D18*
X155135000Y-88000000D03*
D17*
G04 #@! TO.P,SW12,1*
G04 #@! TO.N,col3*
X166035000Y-85800000D03*
G04 #@! TD*
D19*
G04 #@! TO.P,Ref\002A\002A,*
G04 #@! TO.N,*
X172222500Y-38770000D03*
G04 #@! TD*
G04 #@! TO.P,Ref\002A\002A,*
G04 #@! TO.N,*
X183260000Y-103770000D03*
G04 #@! TD*
G04 #@! TO.P,Ref\002A\002A,*
G04 #@! TO.N,*
X102260000Y-103770000D03*
G04 #@! TD*
G04 #@! TO.P,Ref\002A\002A,*
G04 #@! TO.N,*
X106260000Y-38770000D03*
G04 #@! TD*
D20*
G04 #@! TO.N,Net-(D1-Pad2)*
X100150000Y-95180000D03*
G04 #@! TO.N,row2*
X103960000Y-77400000D03*
X124280000Y-77400000D03*
X138250000Y-72320000D03*
G04 #@! TO.N,Net-(D2-Pad2)*
X121740000Y-71050000D03*
G04 #@! TO.N,Net-(D3-Pad2)*
X175080000Y-101530000D03*
X175080000Y-96450000D03*
X167460000Y-109150000D03*
G04 #@! TO.N,row0*
X140790000Y-34220000D03*
X121740000Y-39300000D03*
G04 #@! TO.N,Net-(D4-Pad2)*
X117930000Y-58350000D03*
X128090000Y-43110000D03*
G04 #@! TO.N,Net-(D5-Pad2)*
X119200000Y-90100000D03*
G04 #@! TO.N,Net-(D6-Pad2)*
X142060000Y-71050000D03*
G04 #@! TO.N,Net-(D7-Pad2)*
X138250000Y-46920000D03*
X147140000Y-39300000D03*
G04 #@! TO.N,Net-(D8-Pad2)*
X136980000Y-86290000D03*
G04 #@! TO.N,Net-(D10-Pad2)*
X164967654Y-37982346D03*
X158666048Y-47931351D03*
G04 #@! TO.N,Net-(D11-Pad2)*
X157203952Y-86031351D03*
G04 #@! TO.N,GND*
X187780000Y-77400000D03*
X191590000Y-74860000D03*
X183970000Y-80032002D03*
G04 #@! TO.N,led*
X169900097Y-59719903D03*
X170000000Y-69780000D03*
X181430000Y-77307998D03*
G04 #@! TO.N,reset*
X189145006Y-76275044D03*
X192860000Y-53270000D03*
X192860000Y-53270000D03*
G04 #@! TO.N,col0*
X173810000Y-107880000D03*
X158570000Y-96450000D03*
X168730000Y-91341498D03*
X129360000Y-83750000D03*
X120470000Y-76130000D03*
X111580000Y-62160000D03*
X111580000Y-58350000D03*
X117930000Y-57080000D03*
X111580000Y-44380000D03*
X92530000Y-81210000D03*
X93800000Y-92640000D03*
G04 #@! TO.N,col1*
X133170000Y-54540000D03*
X138153952Y-66981351D03*
X131900000Y-50730000D03*
X130630000Y-38030000D03*
X172333653Y-57854767D03*
X150950000Y-50730000D03*
X128090000Y-76130000D03*
X130630000Y-74860000D03*
X129360000Y-68510000D03*
X170122499Y-52000000D03*
X115390000Y-79940000D03*
G04 #@! TO.N,col2*
X149680000Y-39300000D03*
X152220000Y-54540000D03*
X130630000Y-76130000D03*
X148410000Y-71050000D03*
X149680000Y-82480000D03*
X145886618Y-82484252D03*
X167460000Y-63430000D03*
X158570000Y-66150001D03*
G04 #@! TO.N,col3*
X152220000Y-74860000D03*
X168730000Y-63430000D03*
G04 #@! TD*
D21*
G04 #@! TO.N,Net-(D1-Pad2)*
X97985000Y-93015000D02*
X97985000Y-92762500D01*
X100150000Y-95180000D02*
X97985000Y-93015000D01*
X100259999Y-89237501D02*
X104408997Y-89237501D01*
X97985000Y-91512500D02*
X100259999Y-89237501D01*
X97985000Y-92762500D02*
X97985000Y-91512500D01*
X107685000Y-85572500D02*
X107770000Y-85657500D01*
X107685000Y-84322500D02*
X107685000Y-85572500D01*
X107770000Y-85657500D02*
X107770000Y-87264502D01*
X106618004Y-88416498D02*
X105230000Y-88416498D01*
X107770000Y-87264502D02*
X106618004Y-88416498D01*
X104408997Y-89237501D02*
X105230000Y-88416498D01*
X105910000Y-78670000D02*
X107770000Y-80530000D01*
X105735000Y-78670000D02*
X105910000Y-78670000D01*
X107685000Y-80615000D02*
X107685000Y-84322500D01*
X107770000Y-80530000D02*
X107685000Y-80615000D01*
G04 #@! TO.N,row2*
X173935130Y-66732000D02*
X172857500Y-66732000D01*
X174522662Y-66732000D02*
X173935130Y-66732000D01*
X175792662Y-65462000D02*
X174522662Y-66732000D01*
X189403900Y-65462000D02*
X175792662Y-65462000D01*
X102185000Y-78670000D02*
X102690000Y-78670000D01*
X102690000Y-78670000D02*
X103960000Y-77400000D01*
X122680000Y-78670000D02*
X123950000Y-77400000D01*
X122505000Y-78670000D02*
X122680000Y-78670000D01*
X123950000Y-77400000D02*
X124280000Y-77400000D01*
X141555000Y-73590000D02*
X139520000Y-73590000D01*
X139520000Y-73590000D02*
X138250000Y-72320000D01*
X159840000Y-73590000D02*
X157805000Y-73590000D01*
G04 #@! TO.N,Net-(D2-Pad2)*
X128090000Y-59620000D02*
X126055000Y-59620000D01*
X126055000Y-64592500D02*
X126735000Y-65272500D01*
X126055000Y-59620000D02*
X126055000Y-64592500D01*
X123702499Y-69087501D02*
X121740000Y-71050000D01*
X125947001Y-69087501D02*
X123702499Y-69087501D01*
X126735000Y-65272500D02*
X126735000Y-68299502D01*
X126735000Y-68299502D02*
X125947001Y-69087501D01*
X121174315Y-71050000D02*
X121740000Y-71050000D01*
X118447500Y-71050000D02*
X121174315Y-71050000D01*
X117035000Y-72462500D02*
X118447500Y-71050000D01*
X117035000Y-73712500D02*
X117035000Y-72462500D01*
G04 #@! TO.N,row1*
X173935130Y-64192000D02*
X172857500Y-64192000D01*
X174522662Y-64192000D02*
X173935130Y-64192000D01*
X175792662Y-62922000D02*
X174522662Y-64192000D01*
X189403900Y-62922000D02*
X175792662Y-62922000D01*
X141950000Y-54540000D02*
X141050000Y-54540000D01*
X142973501Y-53516499D02*
X141950000Y-54540000D01*
X155327999Y-53516499D02*
X142973501Y-53516499D01*
X156351500Y-54540000D02*
X155327999Y-53516499D01*
X157300000Y-54540000D02*
X156351500Y-54540000D01*
X141050000Y-54540000D02*
X139015000Y-54540000D01*
X137341499Y-53814999D02*
X130085001Y-53814999D01*
X139015000Y-54540000D02*
X138066500Y-54540000D01*
X138066500Y-54540000D02*
X137341499Y-53814999D01*
X130085001Y-53814999D02*
X125550000Y-58350000D01*
X125550000Y-58350000D02*
X123010000Y-58350000D01*
X122505000Y-58855000D02*
X122505000Y-59620000D01*
X123010000Y-58350000D02*
X122505000Y-58855000D01*
X120470000Y-59620000D02*
X122505000Y-59620000D01*
X159335000Y-54540000D02*
X157300000Y-54540000D01*
G04 #@! TO.N,Net-(D3-Pad2)*
X174360000Y-100810000D02*
X174360000Y-98610000D01*
X175080000Y-101530000D02*
X174360000Y-100810000D01*
X174360000Y-98610000D02*
X174360000Y-97170000D01*
X174360000Y-97170000D02*
X175080000Y-96450000D01*
X164660000Y-107150000D02*
X164660000Y-107050000D01*
X166660000Y-109150000D02*
X164660000Y-107150000D01*
X167460000Y-109150000D02*
X166660000Y-109150000D01*
X174315000Y-92640000D02*
X176350000Y-92640000D01*
G04 #@! TO.N,row3*
X173935130Y-69272000D02*
X172857500Y-69272000D01*
X186488738Y-69272000D02*
X173935130Y-69272000D01*
X187758738Y-68002000D02*
X186488738Y-69272000D01*
X189403900Y-68002000D02*
X187758738Y-68002000D01*
X168730000Y-92640000D02*
X170765000Y-92640000D01*
X170765000Y-91915000D02*
X170765000Y-92640000D01*
X170000000Y-91150000D02*
X170765000Y-91915000D01*
X172857500Y-69272000D02*
X170000000Y-72129500D01*
X170000000Y-72129500D02*
X170000000Y-91150000D01*
G04 #@! TO.N,row0*
X173935130Y-61652000D02*
X172857500Y-61652000D01*
X174522662Y-61652000D02*
X173935130Y-61652000D01*
X175792662Y-60382000D02*
X174522662Y-61652000D01*
X189403900Y-60382000D02*
X175792662Y-60382000D01*
X140285000Y-35490000D02*
X140285000Y-34725000D01*
X140285000Y-34725000D02*
X140790000Y-34220000D01*
X121235000Y-40570000D02*
X121235000Y-39805000D01*
X121235000Y-39805000D02*
X121740000Y-39300000D01*
X159335000Y-35490000D02*
X157300000Y-35490000D01*
X172095501Y-60890001D02*
X172857500Y-61652000D01*
X170625098Y-58135098D02*
X170625098Y-59419598D01*
X159335000Y-34765000D02*
X159880000Y-34220000D01*
X170625098Y-59419598D02*
X172095501Y-60890001D01*
X159335000Y-35490000D02*
X159335000Y-34765000D01*
X159880000Y-34220000D02*
X166710000Y-34220000D01*
X166710000Y-34220000D02*
X168260000Y-35770000D01*
X168260000Y-35770000D02*
X168260000Y-55770000D01*
X168260000Y-55770000D02*
X170625098Y-58135098D01*
G04 #@! TO.N,Net-(D4-Pad2)*
X117035000Y-57455000D02*
X117035000Y-54662500D01*
X117930000Y-58350000D02*
X117035000Y-57455000D01*
X127985000Y-46222500D02*
X126735000Y-46222500D01*
X128090000Y-46117500D02*
X127985000Y-46222500D01*
X128090000Y-43110000D02*
X128090000Y-46117500D01*
X127524315Y-43110000D02*
X128090000Y-43110000D01*
X126600000Y-43110000D02*
X127524315Y-43110000D01*
X124785000Y-41295000D02*
X126600000Y-43110000D01*
X124785000Y-40570000D02*
X124785000Y-41295000D01*
G04 #@! TO.N,Net-(D5-Pad2)*
X117035000Y-92265000D02*
X117035000Y-92762500D01*
X119200000Y-90100000D02*
X117035000Y-92265000D01*
X129260001Y-88097501D02*
X126735000Y-85572500D01*
X129260001Y-91822501D02*
X129260001Y-88097501D01*
X126495001Y-94587501D02*
X129260001Y-91822501D01*
X118760001Y-94587501D02*
X126495001Y-94587501D01*
X117035000Y-92862500D02*
X118760001Y-94587501D01*
X126735000Y-85572500D02*
X126735000Y-84322500D01*
X117035000Y-92762500D02*
X117035000Y-92862500D01*
X126055000Y-78670000D02*
X128090000Y-78670000D01*
G04 #@! TO.N,Net-(D6-Pad2)*
X138085000Y-71050000D02*
X142060000Y-71050000D01*
X136085000Y-68950000D02*
X136085000Y-69050000D01*
X136085000Y-69050000D02*
X138085000Y-71050000D01*
X145270002Y-71050000D02*
X142625685Y-71050000D01*
X148310001Y-68010001D02*
X145270002Y-71050000D01*
X148310001Y-64285001D02*
X148310001Y-68010001D01*
X145785000Y-60510000D02*
X145785000Y-61760000D01*
X145785000Y-61760000D02*
X148310001Y-64285001D01*
X142060000Y-71050000D02*
X143330000Y-71050000D01*
X144600000Y-59325000D02*
X145785000Y-60510000D01*
X144600000Y-54540000D02*
X144600000Y-59325000D01*
G04 #@! TO.N,Net-(D7-Pad2)*
X136085000Y-49800000D02*
X136085000Y-49900000D01*
X137235000Y-48650000D02*
X136085000Y-49800000D01*
X137335000Y-48650000D02*
X137235000Y-48650000D01*
X138250000Y-47735000D02*
X137335000Y-48650000D01*
X138250000Y-46920000D02*
X138250000Y-47735000D01*
X147035000Y-41460000D02*
X145785000Y-41460000D01*
X147140000Y-41355000D02*
X147035000Y-41460000D01*
X147140000Y-39300000D02*
X147140000Y-41355000D01*
X147140000Y-38734315D02*
X147140000Y-39300000D01*
X147140000Y-38620000D02*
X147140000Y-38734315D01*
X144010000Y-35490000D02*
X147140000Y-38620000D01*
X143835000Y-35490000D02*
X144010000Y-35490000D01*
G04 #@! TO.N,Net-(D8-Pad2)*
X145785000Y-80810000D02*
X145785000Y-79560000D01*
X148310001Y-83335001D02*
X145785000Y-80810000D01*
X148310001Y-87060001D02*
X148310001Y-83335001D01*
X145545001Y-89825001D02*
X148310001Y-87060001D01*
X136660001Y-89825001D02*
X145545001Y-89825001D01*
X136085000Y-89250000D02*
X136660001Y-89825001D01*
X136085000Y-88000000D02*
X136085000Y-89250000D01*
X136980000Y-87105000D02*
X136085000Y-88000000D01*
X136980000Y-86290000D02*
X136980000Y-87105000D01*
X145105000Y-78880000D02*
X145785000Y-79560000D01*
X145105000Y-73590000D02*
X145105000Y-78880000D01*
G04 #@! TO.N,Net-(D9-Pad2)*
X162658997Y-64325001D02*
X164024999Y-64325001D01*
X161558997Y-65425001D02*
X162658997Y-64325001D01*
X157409999Y-65425001D02*
X161558997Y-65425001D01*
X155135000Y-68950000D02*
X155135000Y-67700000D01*
X155135000Y-67700000D02*
X157409999Y-65425001D01*
X164835000Y-63515000D02*
X164835000Y-60510000D01*
X164024999Y-64325001D02*
X164835000Y-63515000D01*
X162885000Y-58560000D02*
X164835000Y-60510000D01*
X162885000Y-54540000D02*
X162885000Y-58560000D01*
X162885000Y-54540000D02*
X164920000Y-54540000D01*
G04 #@! TO.N,Net-(D10-Pad2)*
X164835000Y-42710000D02*
X164835000Y-41460000D01*
X164967654Y-37397654D02*
X164967654Y-37982346D01*
X162885000Y-35490000D02*
X163060000Y-35490000D01*
X163060000Y-35490000D02*
X164967654Y-37397654D01*
X164835000Y-38115000D02*
X164967654Y-37982346D01*
X164835000Y-41460000D02*
X164835000Y-38115000D01*
X157003649Y-47931351D02*
X158666048Y-47931351D01*
X155135000Y-49900000D02*
X155135000Y-49800000D01*
X155135000Y-49800000D02*
X157003649Y-47931351D01*
G04 #@! TO.N,Net-(D11-Pad2)*
X155235303Y-88000000D02*
X155135000Y-88000000D01*
X157203952Y-86031351D02*
X155235303Y-88000000D01*
X167360001Y-83335001D02*
X164835000Y-80810000D01*
X167360001Y-87060001D02*
X167360001Y-83335001D01*
X164595001Y-89825001D02*
X167360001Y-87060001D01*
X155710001Y-89825001D02*
X164595001Y-89825001D01*
X164835000Y-80810000D02*
X164835000Y-79560000D01*
X155135000Y-89250000D02*
X155710001Y-89825001D01*
X155135000Y-88000000D02*
X155135000Y-89250000D01*
X164835000Y-78310000D02*
X164835000Y-79560000D01*
X164835000Y-74860000D02*
X164835000Y-78310000D01*
X163565000Y-73590000D02*
X164835000Y-74860000D01*
X163390000Y-73590000D02*
X163565000Y-73590000D01*
D22*
G04 #@! TO.N,GND*
X182591250Y-84345000D02*
X182591250Y-90295000D01*
X182591250Y-84345000D02*
X182191250Y-84345000D01*
X173735000Y-81051250D02*
X171353750Y-78670000D01*
X178897500Y-81051250D02*
X173735000Y-81051250D01*
X186827500Y-47682000D02*
X188097500Y-48952000D01*
X174183900Y-47682000D02*
X186827500Y-47682000D01*
X188133900Y-48952000D02*
X189403900Y-50222000D01*
X188097500Y-48952000D02*
X188133900Y-48952000D01*
X189403900Y-50222000D02*
X189403900Y-52762000D01*
X173935130Y-51492000D02*
X172857500Y-51492000D01*
X174707662Y-51492000D02*
X173935130Y-51492000D01*
X175977662Y-52762000D02*
X174707662Y-51492000D01*
X189403900Y-52762000D02*
X175977662Y-52762000D01*
X172857500Y-51492000D02*
X172857500Y-54032000D01*
X181430000Y-78670000D02*
X181430000Y-79932000D01*
X182191250Y-84345000D02*
X179056250Y-81210000D01*
X179056250Y-81210000D02*
X178897500Y-81051250D01*
X191590000Y-75088052D02*
X191590000Y-74860000D01*
X187780000Y-77400000D02*
X189278052Y-77400000D01*
X189278052Y-77400000D02*
X191590000Y-75088052D01*
X180152000Y-81210000D02*
X179056250Y-81210000D01*
X181430000Y-79932000D02*
X180152000Y-81210000D01*
X181530002Y-80032002D02*
X181430000Y-79932000D01*
X183970000Y-80032002D02*
X181530002Y-80032002D01*
D21*
G04 #@! TO.N,led*
X173935130Y-46412000D02*
X172857500Y-46412000D01*
X174522662Y-46412000D02*
X173935130Y-46412000D01*
X175792662Y-45142000D02*
X174522662Y-46412000D01*
X189403900Y-45142000D02*
X175792662Y-45142000D01*
X169900097Y-59719903D02*
X169900097Y-69680097D01*
X169900097Y-69680097D02*
X170000000Y-69780000D01*
X183619998Y-77307998D02*
X181430000Y-77307998D01*
X183970000Y-78670000D02*
X183970000Y-77658000D01*
X183970000Y-77658000D02*
X183619998Y-77307998D01*
D22*
G04 #@! TO.N,VCC*
X185591250Y-84345000D02*
X185591250Y-90295000D01*
X186510000Y-83426250D02*
X185591250Y-84345000D01*
X186510000Y-78670000D02*
X186510000Y-83426250D01*
X193710001Y-73998001D02*
X193710001Y-51580001D01*
X186510000Y-78670000D02*
X189038002Y-78670000D01*
X189038002Y-78670000D02*
X193710001Y-73998001D01*
X189927662Y-54032000D02*
X188097500Y-54032000D01*
X192379661Y-51580001D02*
X189927662Y-54032000D01*
X193710001Y-51580001D02*
X192379661Y-51580001D01*
G04 #@! TO.N,reset*
X174125901Y-50279999D02*
X174183900Y-50222000D01*
D21*
X180248706Y-76275044D02*
X188904956Y-76275044D01*
X177853750Y-78670000D02*
X180248706Y-76275044D01*
X188904956Y-76275044D02*
X192860000Y-72320000D01*
X192860000Y-72320000D02*
X192860000Y-53270000D01*
G04 #@! TO.N,col0*
X175560000Y-106130000D02*
X175560000Y-104850000D01*
X173810000Y-107880000D02*
X175560000Y-106130000D01*
X161480000Y-96450000D02*
X161860000Y-96070000D01*
X158570000Y-96450000D02*
X161480000Y-96450000D01*
X161860000Y-94820000D02*
X165310000Y-91370000D01*
X161860000Y-96070000D02*
X161860000Y-94820000D01*
X165310000Y-91370000D02*
X168701498Y-91370000D01*
X168701498Y-91370000D02*
X168730000Y-91341498D01*
X129360000Y-83750000D02*
X129360000Y-73590000D01*
X127935000Y-72762500D02*
X127935000Y-71512500D01*
X128762500Y-73590000D02*
X127935000Y-72762500D01*
X129360000Y-73590000D02*
X128762500Y-73590000D01*
X127935000Y-72762500D02*
X124567500Y-76130000D01*
X124567500Y-76130000D02*
X120470000Y-76130000D01*
X113662500Y-62160000D02*
X114235000Y-62732500D01*
X111580000Y-62160000D02*
X113662500Y-62160000D01*
X114235000Y-61482500D02*
X111580000Y-58827500D01*
X114235000Y-62732500D02*
X114235000Y-61482500D01*
X111580000Y-58827500D02*
X111580000Y-58350000D01*
X127935000Y-53712500D02*
X127935000Y-52462500D01*
X124567500Y-57080000D02*
X127935000Y-53712500D01*
X117930000Y-57080000D02*
X124567500Y-57080000D01*
X112985000Y-43682500D02*
X112287500Y-44380000D01*
X114235000Y-43682500D02*
X112985000Y-43682500D01*
X112287500Y-44380000D02*
X111580000Y-44380000D01*
X93102500Y-81782500D02*
X95185000Y-81782500D01*
X92530000Y-81210000D02*
X93102500Y-81782500D01*
X104792499Y-95905001D02*
X97065001Y-95905001D01*
X108885000Y-90562500D02*
X108885000Y-91812500D01*
X108885000Y-91812500D02*
X104792499Y-95905001D01*
X97065001Y-95905001D02*
X93800000Y-92640000D01*
X119904315Y-76130000D02*
X120470000Y-76130000D01*
X117302498Y-76130000D02*
X119904315Y-76130000D01*
X112909999Y-80522499D02*
X117302498Y-76130000D01*
X112909999Y-85287501D02*
X112909999Y-80522499D01*
X108885000Y-89312500D02*
X112909999Y-85287501D01*
X108885000Y-90562500D02*
X108885000Y-89312500D01*
G04 #@! TO.N,col1*
X133170000Y-57855000D02*
X133285000Y-57970000D01*
X133170000Y-54540000D02*
X133170000Y-57855000D01*
X146985000Y-65500000D02*
X146985000Y-66750000D01*
X146409999Y-64924999D02*
X146985000Y-65500000D01*
X143008999Y-64924999D02*
X146409999Y-64924999D01*
X140952647Y-66981351D02*
X143008999Y-64924999D01*
X138153952Y-66981351D02*
X140952647Y-66981351D01*
X144209999Y-51725001D02*
X132895001Y-51725001D01*
X146985000Y-48950000D02*
X144209999Y-51725001D01*
X132895001Y-51725001D02*
X131900000Y-50730000D01*
X115390000Y-80627500D02*
X114235000Y-81782500D01*
X115390000Y-79940000D02*
X115390000Y-80627500D01*
X127935000Y-89312500D02*
X127935000Y-90562500D01*
X123159999Y-87426501D02*
X124470997Y-88737499D01*
X123159999Y-86672497D02*
X123159999Y-87426501D01*
X120549999Y-84062497D02*
X123159999Y-86672497D01*
X127359999Y-88737499D02*
X127935000Y-89312500D01*
X120549999Y-82336497D02*
X120549999Y-84062497D01*
X124470997Y-88737499D02*
X127359999Y-88737499D01*
X118153502Y-79940000D02*
X120549999Y-82336497D01*
X115390000Y-79940000D02*
X118153502Y-79940000D01*
X132035000Y-38920000D02*
X131145000Y-38030000D01*
X133285000Y-38920000D02*
X132035000Y-38920000D01*
X131145000Y-38030000D02*
X130630000Y-38030000D01*
X174183900Y-57842000D02*
X172346420Y-57842000D01*
X172346420Y-57842000D02*
X172333653Y-57854767D01*
X146985000Y-48950000D02*
X146985000Y-47700000D01*
X148765000Y-50730000D02*
X146985000Y-48950000D01*
X150950000Y-50730000D02*
X148765000Y-50730000D01*
X130630000Y-74860000D02*
X130630000Y-69780000D01*
X130630000Y-69780000D02*
X129360000Y-68510000D01*
X170122499Y-55643613D02*
X172333653Y-57854767D01*
X170122499Y-52000000D02*
X170122499Y-55643613D01*
X127545001Y-76674999D02*
X126275001Y-76674999D01*
X128090000Y-76130000D02*
X127545001Y-76674999D01*
X123010000Y-79940000D02*
X118153502Y-79940000D01*
X126275001Y-76674999D02*
X123010000Y-79940000D01*
G04 #@! TO.N,col2*
X166035000Y-47700000D02*
X167285000Y-47700000D01*
X151955000Y-39300000D02*
X152335000Y-38920000D01*
X152335000Y-38920000D02*
X151085000Y-38920000D01*
X151085000Y-38920000D02*
X150060000Y-38920000D01*
X150060000Y-38920000D02*
X149680000Y-39300000D01*
X152220000Y-57855000D02*
X152335000Y-57970000D01*
X152220000Y-54540000D02*
X152220000Y-57855000D01*
X136644999Y-83375001D02*
X138289998Y-85020000D01*
X132772999Y-83375001D02*
X136644999Y-83375001D01*
X132109999Y-82712001D02*
X132772999Y-83375001D01*
X132109999Y-79445001D02*
X132109999Y-82712001D01*
X133285000Y-77020000D02*
X133285000Y-78270000D01*
X133285000Y-78270000D02*
X132109999Y-79445001D01*
X142059999Y-85020000D02*
X143329999Y-83750000D01*
X138289998Y-85020000D02*
X142059999Y-85020000D01*
X146985000Y-84550000D02*
X146985000Y-85800000D01*
X146185000Y-83750000D02*
X146985000Y-84550000D01*
X143329999Y-83750000D02*
X146185000Y-83750000D01*
X132395000Y-76130000D02*
X133285000Y-77020000D01*
X130630000Y-76130000D02*
X132395000Y-76130000D01*
X148410000Y-71050000D02*
X149680000Y-72320000D01*
X149680000Y-72320000D02*
X149680000Y-82480000D01*
X146985000Y-83582634D02*
X146985000Y-85800000D01*
X145886618Y-82484252D02*
X146985000Y-83582634D01*
X166035000Y-64855000D02*
X166035000Y-66750000D01*
X167460000Y-63430000D02*
X166035000Y-64855000D01*
X167460000Y-63430000D02*
X167460000Y-47875000D01*
X167460000Y-47875000D02*
X167285000Y-47700000D01*
X163811001Y-68575001D02*
X161175001Y-68575001D01*
X166035000Y-66750000D02*
X165636002Y-66750000D01*
X165636002Y-66750000D02*
X163811001Y-68575001D01*
X161175001Y-68575001D02*
X158570000Y-65970000D01*
X158570000Y-65970000D02*
X158570000Y-66150001D01*
G04 #@! TO.N,col3*
X152220000Y-76905000D02*
X152335000Y-77020000D01*
X152220000Y-74860000D02*
X152220000Y-76905000D01*
X157300000Y-77816002D02*
X161110000Y-81626002D01*
X157300000Y-76223998D02*
X157300000Y-77816002D01*
X156271001Y-75194999D02*
X157300000Y-76223998D01*
X152910001Y-75194999D02*
X156271001Y-75194999D01*
X152335000Y-77020000D02*
X152335000Y-75770000D01*
X152335000Y-75770000D02*
X152910001Y-75194999D01*
X166035000Y-84550000D02*
X166035000Y-85800000D01*
X165459999Y-83974999D02*
X166035000Y-84550000D01*
X162570997Y-83974999D02*
X165459999Y-83974999D01*
X161110000Y-82514002D02*
X162570997Y-83974999D01*
X161110000Y-81626002D02*
X161110000Y-82514002D01*
X168730000Y-66640002D02*
X168730000Y-63430000D01*
X153243501Y-73836499D02*
X154513501Y-73836499D01*
X152220000Y-74860000D02*
X153243501Y-73836499D01*
X154513501Y-73836499D02*
X157300000Y-71050000D01*
X157300000Y-71050000D02*
X164920000Y-71050000D01*
X164920000Y-71050000D02*
X168730000Y-67240000D01*
X168730000Y-67240000D02*
X168730000Y-66640002D01*
G04 #@! TO.N,Net-(U1-Pad12)*
X173935130Y-74352000D02*
X172857500Y-74352000D01*
X174522662Y-74352000D02*
X173935130Y-74352000D01*
X175792662Y-73082000D02*
X174522662Y-74352000D01*
X189403900Y-73082000D02*
X175792662Y-73082000D01*
G04 #@! TO.N,Net-(U1-Pad11)*
X173935130Y-71812000D02*
X172857500Y-71812000D01*
X174522662Y-71812000D02*
X173935130Y-71812000D01*
X175792662Y-70542000D02*
X174522662Y-71812000D01*
X189403900Y-70542000D02*
X175792662Y-70542000D01*
G04 #@! TO.N,Net-(U1-Pad6)*
X173935130Y-59112000D02*
X172857500Y-59112000D01*
X174522662Y-59112000D02*
X173935130Y-59112000D01*
X175792662Y-57842000D02*
X174522662Y-59112000D01*
X189403900Y-57842000D02*
X175792662Y-57842000D01*
G04 #@! TO.N,Net-(U1-Pad5)*
X173935130Y-56572000D02*
X172857500Y-56572000D01*
X174522662Y-56572000D02*
X173935130Y-56572000D01*
X175792662Y-55302000D02*
X174522662Y-56572000D01*
X189403900Y-55302000D02*
X175792662Y-55302000D01*
G04 #@! TO.N,data*
X178591250Y-85445000D02*
X178591250Y-84345000D01*
X178666260Y-85520010D02*
X178591250Y-85445000D01*
X178666260Y-89031705D02*
X178666260Y-85520010D01*
X178591250Y-89106715D02*
X178666260Y-89031705D01*
X178591250Y-90295000D02*
X178591250Y-89106715D01*
G04 #@! TO.N,Net-(J1-PadA)*
X177091250Y-86095000D02*
X177091250Y-88545000D01*
G04 #@! TD*
M02*
