M48
;DRILL file {KiCad (5.0.2)-1} date 2019/04/02 22:30:31
;FORMAT={-:-/ absolute / metric / decimal}
FMAT,2
METRIC,TZ
T1C0.400
T2C0.813
T3C1.000
T4C1.300
%
G90
G05
T1
X92.53Y-81.21
X93.8Y-92.64
X100.15Y-95.18
X103.96Y-77.4
X111.58Y-44.38
X111.58Y-58.35
X111.58Y-62.16
X115.39Y-79.94
X117.93Y-57.08
X117.93Y-58.35
X119.2Y-90.1
X120.47Y-76.13
X121.74Y-39.3
X121.74Y-71.05
X124.28Y-77.4
X128.09Y-43.11
X128.09Y-76.13
X129.36Y-68.51
X129.36Y-83.75
X130.63Y-38.03
X130.63Y-74.86
X130.63Y-76.13
X131.9Y-50.73
X133.17Y-54.54
X136.98Y-86.29
X138.154Y-66.981
X138.25Y-46.92
X138.25Y-72.32
X140.79Y-34.22
X142.06Y-71.05
X145.887Y-82.484
X147.14Y-39.3
X148.41Y-71.05
X149.68Y-39.3
X149.68Y-82.48
X150.95Y-50.73
X152.22Y-54.54
X152.22Y-74.86
X157.204Y-86.031
X158.57Y-66.15
X158.57Y-96.45
X158.666Y-47.931
X164.968Y-37.982
X167.46Y-63.43
X167.46Y-109.15
X168.73Y-63.43
X168.73Y-91.341
X169.9Y-59.72
X170.Y-69.78
X170.122Y-52.
X172.334Y-57.855
X173.81Y-107.88
X175.08Y-96.45
X175.08Y-101.53
X181.43Y-77.308
X183.97Y-80.032
X187.78Y-77.4
X189.145Y-76.275
X191.59Y-74.86
X192.86Y-53.27
X192.86Y-53.27
T2
X139.52Y-73.59
X147.14Y-73.59
X157.805Y-73.59
X165.425Y-73.59
X100.15Y-78.67
X107.77Y-78.67
X157.3Y-35.49
X164.92Y-35.49
X119.2Y-40.57
X126.82Y-40.57
X157.3Y-54.54
X164.92Y-54.54
X172.857Y-46.412
X172.857Y-48.952
X172.857Y-51.492
X172.857Y-54.032
X172.857Y-56.572
X172.857Y-59.112
X172.857Y-61.652
X172.857Y-64.192
X172.857Y-66.732
X172.857Y-69.272
X172.857Y-71.812
X172.857Y-74.352
X174.184Y-45.142
X174.184Y-47.682
X174.184Y-50.222
X174.184Y-52.762
X174.184Y-55.302
X174.184Y-57.842
X174.184Y-60.382
X174.184Y-62.922
X174.184Y-65.462
X174.184Y-68.002
X174.184Y-70.542
X174.184Y-73.082
X188.097Y-46.412
X188.097Y-48.952
X188.097Y-51.492
X188.097Y-54.032
X188.097Y-56.572
X188.097Y-59.112
X188.097Y-61.652
X188.097Y-64.192
X188.097Y-66.732
X188.097Y-69.272
X188.097Y-71.812
X188.097Y-74.352
X189.404Y-45.142
X189.404Y-47.682
X189.404Y-50.222
X189.404Y-52.762
X189.404Y-55.302
X189.404Y-57.842
X189.404Y-60.382
X189.404Y-62.922
X189.404Y-65.462
X189.404Y-68.002
X189.404Y-70.542
X189.404Y-73.082
X138.25Y-35.49
X145.87Y-35.49
X168.73Y-92.64
X176.35Y-92.64
X120.47Y-78.67
X128.09Y-78.67
X139.015Y-54.54
X146.635Y-54.54
X120.47Y-59.62
X128.09Y-59.62
T4
X171.354Y-78.67
X177.854Y-78.67
T3
X177.341Y-86.095G85X176.841Y-86.095
G05
X177.341Y-88.545G85X176.841Y-88.545
G05
X178.841Y-84.345G85X178.341Y-84.345
G05
X178.841Y-90.295G85X178.341Y-90.295
G05
X182.841Y-84.345G85X182.341Y-84.345
G05
X182.841Y-90.295G85X182.341Y-90.295
G05
X185.841Y-84.345G85X185.341Y-84.345
G05
X185.841Y-90.295G85X185.341Y-90.295
G05
T0
M30
