G04 #@! TF.GenerationSoftware,KiCad,Pcbnew,(5.0.2)-1*
G04 #@! TF.CreationDate,2019-04-02T22:31:29+09:00*
G04 #@! TF.ProjectId,FirstContact,46697273-7443-46f6-9e74-6163742e6b69,rev?*
G04 #@! TF.SameCoordinates,Original*
G04 #@! TF.FileFunction,Legend,Bot*
G04 #@! TF.FilePolarity,Positive*
%FSLAX46Y46*%
G04 Gerber Fmt 4.6, Leading zero omitted, Abs format (unit mm)*
G04 Created by KiCad (PCBNEW (5.0.2)-1) date 2019/04/02 22:31:29*
%MOMM*%
%LPD*%
G01*
G04 APERTURE LIST*
%ADD10C,0.150000*%
%ADD11C,0.010000*%
%ADD12C,0.125000*%
G04 APERTURE END LIST*
D10*
G04 #@! TO.C,U1*
X186827500Y-45142000D02*
X189367500Y-45142000D01*
X189367500Y-45142000D02*
X189367500Y-75622000D01*
X189367500Y-75622000D02*
X186827500Y-75622000D01*
X186827500Y-75622000D02*
X186827500Y-45142000D01*
X171587500Y-45142000D02*
X174127500Y-45142000D01*
X174127500Y-45142000D02*
X174127500Y-75622000D01*
X174127500Y-75622000D02*
X171587500Y-75622000D01*
X171587500Y-75622000D02*
X171587500Y-45142000D01*
G04 #@! TO.C,D1*
X106660000Y-79420000D02*
X106660000Y-77920000D01*
X101260000Y-79420000D02*
X106660000Y-79420000D01*
X101260000Y-77920000D02*
X101260000Y-79420000D01*
X106660000Y-77920000D02*
X101260000Y-77920000D01*
X103460000Y-78170000D02*
X103460000Y-79170000D01*
X104460000Y-79170000D02*
X103560000Y-78670000D01*
X104460000Y-78170000D02*
X104460000Y-79170000D01*
X103560000Y-78670000D02*
X104460000Y-78170000D01*
G04 #@! TO.C,D2*
X126980000Y-60370000D02*
X126980000Y-58870000D01*
X121580000Y-60370000D02*
X126980000Y-60370000D01*
X121580000Y-58870000D02*
X121580000Y-60370000D01*
X126980000Y-58870000D02*
X121580000Y-58870000D01*
X123780000Y-59120000D02*
X123780000Y-60120000D01*
X124780000Y-60120000D02*
X123880000Y-59620000D01*
X124780000Y-59120000D02*
X124780000Y-60120000D01*
X123880000Y-59620000D02*
X124780000Y-59120000D01*
G04 #@! TO.C,D3*
X175240000Y-93390000D02*
X175240000Y-91890000D01*
X169840000Y-93390000D02*
X175240000Y-93390000D01*
X169840000Y-91890000D02*
X169840000Y-93390000D01*
X175240000Y-91890000D02*
X169840000Y-91890000D01*
X172040000Y-92140000D02*
X172040000Y-93140000D01*
X173040000Y-93140000D02*
X172140000Y-92640000D01*
X173040000Y-92140000D02*
X173040000Y-93140000D01*
X172140000Y-92640000D02*
X173040000Y-92140000D01*
G04 #@! TO.C,D4*
X122610000Y-40570000D02*
X123510000Y-40070000D01*
X123510000Y-40070000D02*
X123510000Y-41070000D01*
X123510000Y-41070000D02*
X122610000Y-40570000D01*
X122510000Y-40070000D02*
X122510000Y-41070000D01*
X125710000Y-39820000D02*
X120310000Y-39820000D01*
X120310000Y-39820000D02*
X120310000Y-41320000D01*
X120310000Y-41320000D02*
X125710000Y-41320000D01*
X125710000Y-41320000D02*
X125710000Y-39820000D01*
G04 #@! TO.C,D5*
X123880000Y-78670000D02*
X124780000Y-78170000D01*
X124780000Y-78170000D02*
X124780000Y-79170000D01*
X124780000Y-79170000D02*
X123880000Y-78670000D01*
X123780000Y-78170000D02*
X123780000Y-79170000D01*
X126980000Y-77920000D02*
X121580000Y-77920000D01*
X121580000Y-77920000D02*
X121580000Y-79420000D01*
X121580000Y-79420000D02*
X126980000Y-79420000D01*
X126980000Y-79420000D02*
X126980000Y-77920000D01*
G04 #@! TO.C,D6*
X142425000Y-54540000D02*
X143325000Y-54040000D01*
X143325000Y-54040000D02*
X143325000Y-55040000D01*
X143325000Y-55040000D02*
X142425000Y-54540000D01*
X142325000Y-54040000D02*
X142325000Y-55040000D01*
X145525000Y-53790000D02*
X140125000Y-53790000D01*
X140125000Y-53790000D02*
X140125000Y-55290000D01*
X140125000Y-55290000D02*
X145525000Y-55290000D01*
X145525000Y-55290000D02*
X145525000Y-53790000D01*
G04 #@! TO.C,D7*
X144760000Y-36240000D02*
X144760000Y-34740000D01*
X139360000Y-36240000D02*
X144760000Y-36240000D01*
X139360000Y-34740000D02*
X139360000Y-36240000D01*
X144760000Y-34740000D02*
X139360000Y-34740000D01*
X141560000Y-34990000D02*
X141560000Y-35990000D01*
X142560000Y-35990000D02*
X141660000Y-35490000D01*
X142560000Y-34990000D02*
X142560000Y-35990000D01*
X141660000Y-35490000D02*
X142560000Y-34990000D01*
G04 #@! TO.C,D8*
X146030000Y-74340000D02*
X146030000Y-72840000D01*
X140630000Y-74340000D02*
X146030000Y-74340000D01*
X140630000Y-72840000D02*
X140630000Y-74340000D01*
X146030000Y-72840000D02*
X140630000Y-72840000D01*
X142830000Y-73090000D02*
X142830000Y-74090000D01*
X143830000Y-74090000D02*
X142930000Y-73590000D01*
X143830000Y-73090000D02*
X143830000Y-74090000D01*
X142930000Y-73590000D02*
X143830000Y-73090000D01*
G04 #@! TO.C,D9*
X160710000Y-54540000D02*
X161610000Y-54040000D01*
X161610000Y-54040000D02*
X161610000Y-55040000D01*
X161610000Y-55040000D02*
X160710000Y-54540000D01*
X160610000Y-54040000D02*
X160610000Y-55040000D01*
X163810000Y-53790000D02*
X158410000Y-53790000D01*
X158410000Y-53790000D02*
X158410000Y-55290000D01*
X158410000Y-55290000D02*
X163810000Y-55290000D01*
X163810000Y-55290000D02*
X163810000Y-53790000D01*
G04 #@! TO.C,D10*
X160710000Y-35490000D02*
X161610000Y-34990000D01*
X161610000Y-34990000D02*
X161610000Y-35990000D01*
X161610000Y-35990000D02*
X160710000Y-35490000D01*
X160610000Y-34990000D02*
X160610000Y-35990000D01*
X163810000Y-34740000D02*
X158410000Y-34740000D01*
X158410000Y-34740000D02*
X158410000Y-36240000D01*
X158410000Y-36240000D02*
X163810000Y-36240000D01*
X163810000Y-36240000D02*
X163810000Y-34740000D01*
G04 #@! TO.C,D11*
X161215000Y-73590000D02*
X162115000Y-73090000D01*
X162115000Y-73090000D02*
X162115000Y-74090000D01*
X162115000Y-74090000D02*
X161215000Y-73590000D01*
X161115000Y-73090000D02*
X161115000Y-74090000D01*
X164315000Y-72840000D02*
X158915000Y-72840000D01*
X158915000Y-72840000D02*
X158915000Y-74340000D01*
X158915000Y-74340000D02*
X164315000Y-74340000D01*
X164315000Y-74340000D02*
X164315000Y-72840000D01*
G04 #@! TO.C,J1*
X176891250Y-83445000D02*
X188891250Y-83445000D01*
X176891250Y-89445000D02*
X176891250Y-83445000D01*
X188891250Y-89445000D02*
X176891250Y-89445000D01*
X188891250Y-83445000D02*
X188891250Y-89445000D01*
G04 #@! TO.C,SW1*
X177603750Y-80170000D02*
X177603750Y-80420000D01*
X177603750Y-80420000D02*
X171603750Y-80420000D01*
X171603750Y-80420000D02*
X171603750Y-80170000D01*
X171603750Y-77170000D02*
X171603750Y-76920000D01*
X171603750Y-76920000D02*
X177603750Y-76920000D01*
X177603750Y-76920000D02*
X177603750Y-77170000D01*
G04 #@! TO.C,SW2*
X94685000Y-85966500D02*
X98295000Y-85966500D01*
X94685000Y-82012500D02*
X94685000Y-85957500D01*
X105585000Y-80058500D02*
X96960000Y-80058500D01*
X105585000Y-83966500D02*
X105585000Y-80058500D01*
X105585000Y-84012500D02*
X100535000Y-84058500D01*
X94696000Y-81942500D02*
G75*
G02X96960000Y-80058500I2074000J-190000D01*
G01*
X98300000Y-85942500D02*
G75*
G02X100560000Y-84062500I2070000J-190000D01*
G01*
X103060000Y-95087500D02*
X98510000Y-95087500D01*
X103060000Y-90437500D02*
X100510000Y-90437500D01*
X98210000Y-88237500D02*
X93510000Y-88237500D01*
X97285000Y-92887500D02*
X93510000Y-92887500D01*
X103085000Y-90462500D02*
X103085000Y-95062500D01*
X93510000Y-88262500D02*
X93485000Y-92862500D01*
X98215000Y-88262500D02*
G75*
G03X100585000Y-90432500I2270000J100000D01*
G01*
X98505000Y-94312500D02*
G75*
G03X97285000Y-92892500I-1320000J100000D01*
G01*
X98505000Y-94362500D02*
X98505000Y-95062500D01*
G04 #@! TO.C,SW3*
X117555000Y-75312500D02*
X117555000Y-76012500D01*
X117555000Y-75262500D02*
G75*
G03X116335000Y-73842500I-1320000J100000D01*
G01*
X117265000Y-69212500D02*
G75*
G03X119635000Y-71382500I2270000J100000D01*
G01*
X112560000Y-69212500D02*
X112535000Y-73812500D01*
X122135000Y-71412500D02*
X122135000Y-76012500D01*
X116335000Y-73837500D02*
X112560000Y-73837500D01*
X117260000Y-69187500D02*
X112560000Y-69187500D01*
X122110000Y-71387500D02*
X119560000Y-71387500D01*
X122110000Y-76037500D02*
X117560000Y-76037500D01*
X117350000Y-66892500D02*
G75*
G02X119610000Y-65012500I2070000J-190000D01*
G01*
X113746000Y-62892500D02*
G75*
G02X116010000Y-61008500I2074000J-190000D01*
G01*
X124635000Y-64962500D02*
X119585000Y-65008500D01*
X124635000Y-64916500D02*
X124635000Y-61008500D01*
X124635000Y-61008500D02*
X116010000Y-61008500D01*
X113735000Y-62962500D02*
X113735000Y-66907500D01*
X113735000Y-66916500D02*
X117345000Y-66916500D01*
G04 #@! TO.C,SW4*
X165180000Y-108650000D02*
X165180000Y-109350000D01*
X165180000Y-108600000D02*
G75*
G03X163960000Y-107180000I-1320000J100000D01*
G01*
X164890000Y-102550000D02*
G75*
G03X167260000Y-104720000I2270000J100000D01*
G01*
X160185000Y-102550000D02*
X160160000Y-107150000D01*
X169760000Y-104750000D02*
X169760000Y-109350000D01*
X163960000Y-107175000D02*
X160185000Y-107175000D01*
X164885000Y-102525000D02*
X160185000Y-102525000D01*
X169735000Y-104725000D02*
X167185000Y-104725000D01*
X169735000Y-109375000D02*
X165185000Y-109375000D01*
X164975000Y-100230000D02*
G75*
G02X167235000Y-98350000I2070000J-190000D01*
G01*
X161371000Y-96230000D02*
G75*
G02X163635000Y-94346000I2074000J-190000D01*
G01*
X172260000Y-98300000D02*
X167210000Y-98346000D01*
X172260000Y-98254000D02*
X172260000Y-94346000D01*
X172260000Y-94346000D02*
X163635000Y-94346000D01*
X161360000Y-96300000D02*
X161360000Y-100245000D01*
X161360000Y-100254000D02*
X164970000Y-100254000D01*
G04 #@! TO.C,SW5*
X113735000Y-47866500D02*
X117345000Y-47866500D01*
X113735000Y-43912500D02*
X113735000Y-47857500D01*
X124635000Y-41958500D02*
X116010000Y-41958500D01*
X124635000Y-45866500D02*
X124635000Y-41958500D01*
X124635000Y-45912500D02*
X119585000Y-45958500D01*
X113746000Y-43842500D02*
G75*
G02X116010000Y-41958500I2074000J-190000D01*
G01*
X117350000Y-47842500D02*
G75*
G02X119610000Y-45962500I2070000J-190000D01*
G01*
X122110000Y-56987500D02*
X117560000Y-56987500D01*
X122110000Y-52337500D02*
X119560000Y-52337500D01*
X117260000Y-50137500D02*
X112560000Y-50137500D01*
X116335000Y-54787500D02*
X112560000Y-54787500D01*
X122135000Y-52362500D02*
X122135000Y-56962500D01*
X112560000Y-50162500D02*
X112535000Y-54762500D01*
X117265000Y-50162500D02*
G75*
G03X119635000Y-52332500I2270000J100000D01*
G01*
X117555000Y-56212500D02*
G75*
G03X116335000Y-54792500I-1320000J100000D01*
G01*
X117555000Y-56262500D02*
X117555000Y-56962500D01*
G04 #@! TO.C,SW6*
X113735000Y-85966500D02*
X117345000Y-85966500D01*
X113735000Y-82012500D02*
X113735000Y-85957500D01*
X124635000Y-80058500D02*
X116010000Y-80058500D01*
X124635000Y-83966500D02*
X124635000Y-80058500D01*
X124635000Y-84012500D02*
X119585000Y-84058500D01*
X113746000Y-81942500D02*
G75*
G02X116010000Y-80058500I2074000J-190000D01*
G01*
X117350000Y-85942500D02*
G75*
G02X119610000Y-84062500I2070000J-190000D01*
G01*
X122110000Y-95087500D02*
X117560000Y-95087500D01*
X122110000Y-90437500D02*
X119560000Y-90437500D01*
X117260000Y-88237500D02*
X112560000Y-88237500D01*
X116335000Y-92887500D02*
X112560000Y-92887500D01*
X122135000Y-90462500D02*
X122135000Y-95062500D01*
X112560000Y-88262500D02*
X112535000Y-92862500D01*
X117265000Y-88262500D02*
G75*
G03X119635000Y-90432500I2270000J100000D01*
G01*
X117555000Y-94312500D02*
G75*
G03X116335000Y-92892500I-1320000J100000D01*
G01*
X117555000Y-94362500D02*
X117555000Y-95062500D01*
G04 #@! TO.C,SW7*
X132785000Y-62154000D02*
X136395000Y-62154000D01*
X132785000Y-58200000D02*
X132785000Y-62145000D01*
X143685000Y-56246000D02*
X135060000Y-56246000D01*
X143685000Y-60154000D02*
X143685000Y-56246000D01*
X143685000Y-60200000D02*
X138635000Y-60246000D01*
X132796000Y-58130000D02*
G75*
G02X135060000Y-56246000I2074000J-190000D01*
G01*
X136400000Y-62130000D02*
G75*
G02X138660000Y-60250000I2070000J-190000D01*
G01*
X141160000Y-71275000D02*
X136610000Y-71275000D01*
X141160000Y-66625000D02*
X138610000Y-66625000D01*
X136310000Y-64425000D02*
X131610000Y-64425000D01*
X135385000Y-69075000D02*
X131610000Y-69075000D01*
X141185000Y-66650000D02*
X141185000Y-71250000D01*
X131610000Y-64450000D02*
X131585000Y-69050000D01*
X136315000Y-64450000D02*
G75*
G03X138685000Y-66620000I2270000J100000D01*
G01*
X136605000Y-70500000D02*
G75*
G03X135385000Y-69080000I-1320000J100000D01*
G01*
X136605000Y-70550000D02*
X136605000Y-71250000D01*
G04 #@! TO.C,SW8*
X132785000Y-43104000D02*
X136395000Y-43104000D01*
X132785000Y-39150000D02*
X132785000Y-43095000D01*
X143685000Y-37196000D02*
X135060000Y-37196000D01*
X143685000Y-41104000D02*
X143685000Y-37196000D01*
X143685000Y-41150000D02*
X138635000Y-41196000D01*
X132796000Y-39080000D02*
G75*
G02X135060000Y-37196000I2074000J-190000D01*
G01*
X136400000Y-43080000D02*
G75*
G02X138660000Y-41200000I2070000J-190000D01*
G01*
X141160000Y-52225000D02*
X136610000Y-52225000D01*
X141160000Y-47575000D02*
X138610000Y-47575000D01*
X136310000Y-45375000D02*
X131610000Y-45375000D01*
X135385000Y-50025000D02*
X131610000Y-50025000D01*
X141185000Y-47600000D02*
X141185000Y-52200000D01*
X131610000Y-45400000D02*
X131585000Y-50000000D01*
X136315000Y-45400000D02*
G75*
G03X138685000Y-47570000I2270000J100000D01*
G01*
X136605000Y-51450000D02*
G75*
G03X135385000Y-50030000I-1320000J100000D01*
G01*
X136605000Y-51500000D02*
X136605000Y-52200000D01*
G04 #@! TO.C,SW9*
X136605000Y-89600000D02*
X136605000Y-90300000D01*
X136605000Y-89550000D02*
G75*
G03X135385000Y-88130000I-1320000J100000D01*
G01*
X136315000Y-83500000D02*
G75*
G03X138685000Y-85670000I2270000J100000D01*
G01*
X131610000Y-83500000D02*
X131585000Y-88100000D01*
X141185000Y-85700000D02*
X141185000Y-90300000D01*
X135385000Y-88125000D02*
X131610000Y-88125000D01*
X136310000Y-83475000D02*
X131610000Y-83475000D01*
X141160000Y-85675000D02*
X138610000Y-85675000D01*
X141160000Y-90325000D02*
X136610000Y-90325000D01*
X136400000Y-81180000D02*
G75*
G02X138660000Y-79300000I2070000J-190000D01*
G01*
X132796000Y-77180000D02*
G75*
G02X135060000Y-75296000I2074000J-190000D01*
G01*
X143685000Y-79250000D02*
X138635000Y-79296000D01*
X143685000Y-79204000D02*
X143685000Y-75296000D01*
X143685000Y-75296000D02*
X135060000Y-75296000D01*
X132785000Y-77250000D02*
X132785000Y-81195000D01*
X132785000Y-81204000D02*
X136395000Y-81204000D01*
G04 #@! TO.C,SW10*
X155655000Y-70550000D02*
X155655000Y-71250000D01*
X155655000Y-70500000D02*
G75*
G03X154435000Y-69080000I-1320000J100000D01*
G01*
X155365000Y-64450000D02*
G75*
G03X157735000Y-66620000I2270000J100000D01*
G01*
X150660000Y-64450000D02*
X150635000Y-69050000D01*
X160235000Y-66650000D02*
X160235000Y-71250000D01*
X154435000Y-69075000D02*
X150660000Y-69075000D01*
X155360000Y-64425000D02*
X150660000Y-64425000D01*
X160210000Y-66625000D02*
X157660000Y-66625000D01*
X160210000Y-71275000D02*
X155660000Y-71275000D01*
X155450000Y-62130000D02*
G75*
G02X157710000Y-60250000I2070000J-190000D01*
G01*
X151846000Y-58130000D02*
G75*
G02X154110000Y-56246000I2074000J-190000D01*
G01*
X162735000Y-60200000D02*
X157685000Y-60246000D01*
X162735000Y-60154000D02*
X162735000Y-56246000D01*
X162735000Y-56246000D02*
X154110000Y-56246000D01*
X151835000Y-58200000D02*
X151835000Y-62145000D01*
X151835000Y-62154000D02*
X155445000Y-62154000D01*
G04 #@! TO.C,SW11*
X151835000Y-43104000D02*
X155445000Y-43104000D01*
X151835000Y-39150000D02*
X151835000Y-43095000D01*
X162735000Y-37196000D02*
X154110000Y-37196000D01*
X162735000Y-41104000D02*
X162735000Y-37196000D01*
X162735000Y-41150000D02*
X157685000Y-41196000D01*
X151846000Y-39080000D02*
G75*
G02X154110000Y-37196000I2074000J-190000D01*
G01*
X155450000Y-43080000D02*
G75*
G02X157710000Y-41200000I2070000J-190000D01*
G01*
X160210000Y-52225000D02*
X155660000Y-52225000D01*
X160210000Y-47575000D02*
X157660000Y-47575000D01*
X155360000Y-45375000D02*
X150660000Y-45375000D01*
X154435000Y-50025000D02*
X150660000Y-50025000D01*
X160235000Y-47600000D02*
X160235000Y-52200000D01*
X150660000Y-45400000D02*
X150635000Y-50000000D01*
X155365000Y-45400000D02*
G75*
G03X157735000Y-47570000I2270000J100000D01*
G01*
X155655000Y-51450000D02*
G75*
G03X154435000Y-50030000I-1320000J100000D01*
G01*
X155655000Y-51500000D02*
X155655000Y-52200000D01*
G04 #@! TO.C,SW12*
X155655000Y-89600000D02*
X155655000Y-90300000D01*
X155655000Y-89550000D02*
G75*
G03X154435000Y-88130000I-1320000J100000D01*
G01*
X155365000Y-83500000D02*
G75*
G03X157735000Y-85670000I2270000J100000D01*
G01*
X150660000Y-83500000D02*
X150635000Y-88100000D01*
X160235000Y-85700000D02*
X160235000Y-90300000D01*
X154435000Y-88125000D02*
X150660000Y-88125000D01*
X155360000Y-83475000D02*
X150660000Y-83475000D01*
X160210000Y-85675000D02*
X157660000Y-85675000D01*
X160210000Y-90325000D02*
X155660000Y-90325000D01*
X155450000Y-81180000D02*
G75*
G02X157710000Y-79300000I2070000J-190000D01*
G01*
X151846000Y-77180000D02*
G75*
G02X154110000Y-75296000I2074000J-190000D01*
G01*
X162735000Y-79250000D02*
X157685000Y-79296000D01*
X162735000Y-79204000D02*
X162735000Y-75296000D01*
X162735000Y-75296000D02*
X154110000Y-75296000D01*
X151835000Y-77250000D02*
X151835000Y-81195000D01*
X151835000Y-81204000D02*
X155445000Y-81204000D01*
D11*
G04 #@! TO.C,G\002A\002A\002A*
G36*
X94673099Y-61644829D02*
X94678896Y-61663793D01*
X94690460Y-61702387D01*
X94707042Y-61758087D01*
X94727894Y-61828371D01*
X94752268Y-61910714D01*
X94779417Y-62002594D01*
X94808592Y-62101487D01*
X94824025Y-62153864D01*
X94962825Y-62625081D01*
X94829658Y-63077500D01*
X94800094Y-63177816D01*
X94771934Y-63273121D01*
X94745985Y-63360704D01*
X94723054Y-63437854D01*
X94703947Y-63501861D01*
X94689470Y-63550014D01*
X94680429Y-63579601D01*
X94678797Y-63584761D01*
X94661102Y-63639602D01*
X94489530Y-63639602D01*
X94429077Y-63639049D01*
X94377295Y-63637529D01*
X94338345Y-63635244D01*
X94316388Y-63632399D01*
X94313130Y-63630943D01*
X94308971Y-63618403D01*
X94298993Y-63585968D01*
X94283873Y-63535902D01*
X94264286Y-63470468D01*
X94240908Y-63391930D01*
X94214415Y-63302551D01*
X94185483Y-63204594D01*
X94161776Y-63124094D01*
X94015249Y-62625904D01*
X94313247Y-61613374D01*
X94487110Y-61610193D01*
X94660972Y-61607011D01*
X94673099Y-61644829D01*
X94673099Y-61644829D01*
G37*
X94673099Y-61644829D02*
X94678896Y-61663793D01*
X94690460Y-61702387D01*
X94707042Y-61758087D01*
X94727894Y-61828371D01*
X94752268Y-61910714D01*
X94779417Y-62002594D01*
X94808592Y-62101487D01*
X94824025Y-62153864D01*
X94962825Y-62625081D01*
X94829658Y-63077500D01*
X94800094Y-63177816D01*
X94771934Y-63273121D01*
X94745985Y-63360704D01*
X94723054Y-63437854D01*
X94703947Y-63501861D01*
X94689470Y-63550014D01*
X94680429Y-63579601D01*
X94678797Y-63584761D01*
X94661102Y-63639602D01*
X94489530Y-63639602D01*
X94429077Y-63639049D01*
X94377295Y-63637529D01*
X94338345Y-63635244D01*
X94316388Y-63632399D01*
X94313130Y-63630943D01*
X94308971Y-63618403D01*
X94298993Y-63585968D01*
X94283873Y-63535902D01*
X94264286Y-63470468D01*
X94240908Y-63391930D01*
X94214415Y-63302551D01*
X94185483Y-63204594D01*
X94161776Y-63124094D01*
X94015249Y-62625904D01*
X94313247Y-61613374D01*
X94487110Y-61610193D01*
X94660972Y-61607011D01*
X94673099Y-61644829D01*
G36*
X95452300Y-60594191D02*
X95462343Y-60627595D01*
X95477980Y-60679890D01*
X95498244Y-60747828D01*
X95522168Y-60828163D01*
X95548784Y-60917646D01*
X95577125Y-61013030D01*
X95603069Y-61100433D01*
X95724918Y-61511128D01*
X95603480Y-61920160D01*
X95574453Y-62017869D01*
X95546287Y-62112572D01*
X95519952Y-62201013D01*
X95496418Y-62279938D01*
X95476657Y-62346092D01*
X95461637Y-62396220D01*
X95453128Y-62424443D01*
X95424216Y-62519693D01*
X95252086Y-62519693D01*
X95191521Y-62519142D01*
X95139611Y-62517626D01*
X95100514Y-62515347D01*
X95078386Y-62512509D01*
X95075026Y-62511033D01*
X95070838Y-62498493D01*
X95060820Y-62466066D01*
X95045654Y-62416017D01*
X95026016Y-62350615D01*
X95002587Y-62272127D01*
X94976046Y-62182820D01*
X94947071Y-62084960D01*
X94923739Y-62005920D01*
X94777383Y-61509465D01*
X95075029Y-60505011D01*
X95249204Y-60501828D01*
X95423380Y-60498645D01*
X95452300Y-60594191D01*
X95452300Y-60594191D01*
G37*
X95452300Y-60594191D02*
X95462343Y-60627595D01*
X95477980Y-60679890D01*
X95498244Y-60747828D01*
X95522168Y-60828163D01*
X95548784Y-60917646D01*
X95577125Y-61013030D01*
X95603069Y-61100433D01*
X95724918Y-61511128D01*
X95603480Y-61920160D01*
X95574453Y-62017869D01*
X95546287Y-62112572D01*
X95519952Y-62201013D01*
X95496418Y-62279938D01*
X95476657Y-62346092D01*
X95461637Y-62396220D01*
X95453128Y-62424443D01*
X95424216Y-62519693D01*
X95252086Y-62519693D01*
X95191521Y-62519142D01*
X95139611Y-62517626D01*
X95100514Y-62515347D01*
X95078386Y-62512509D01*
X95075026Y-62511033D01*
X95070838Y-62498493D01*
X95060820Y-62466066D01*
X95045654Y-62416017D01*
X95026016Y-62350615D01*
X95002587Y-62272127D01*
X94976046Y-62182820D01*
X94947071Y-62084960D01*
X94923739Y-62005920D01*
X94777383Y-61509465D01*
X95075029Y-60505011D01*
X95249204Y-60501828D01*
X95423380Y-60498645D01*
X95452300Y-60594191D01*
G36*
X99492038Y-66403893D02*
X99589020Y-66425377D01*
X99680973Y-66466930D01*
X99764723Y-66528124D01*
X99779574Y-66542060D01*
X99817611Y-66583390D01*
X99854336Y-66630192D01*
X99879822Y-66669082D01*
X99891118Y-66689059D01*
X99901141Y-66707569D01*
X99909966Y-66726046D01*
X99917671Y-66745924D01*
X99924332Y-66768638D01*
X99930024Y-66795621D01*
X99934825Y-66828309D01*
X99938810Y-66868135D01*
X99942056Y-66916535D01*
X99944639Y-66974941D01*
X99946636Y-67044789D01*
X99948122Y-67127512D01*
X99949175Y-67224545D01*
X99949870Y-67337323D01*
X99950284Y-67467279D01*
X99950493Y-67615848D01*
X99950574Y-67784464D01*
X99950602Y-67974561D01*
X99950605Y-67999321D01*
X99950511Y-68204096D01*
X99950166Y-68391261D01*
X99949577Y-68560212D01*
X99948749Y-68710343D01*
X99947690Y-68841048D01*
X99946403Y-68951723D01*
X99944897Y-69041762D01*
X99943175Y-69110559D01*
X99941245Y-69157510D01*
X99939112Y-69182009D01*
X99938992Y-69182680D01*
X99914444Y-69264865D01*
X99873869Y-69347035D01*
X99821135Y-69423781D01*
X99760107Y-69489694D01*
X99694654Y-69539364D01*
X99677051Y-69549122D01*
X99583747Y-69585713D01*
X99485340Y-69604638D01*
X99387973Y-69605166D01*
X99315776Y-69592080D01*
X99228856Y-69557231D01*
X99146048Y-69504209D01*
X99072959Y-69437593D01*
X99015199Y-69361961D01*
X98999523Y-69333971D01*
X98989154Y-69313610D01*
X98979955Y-69294894D01*
X98971855Y-69276386D01*
X98964786Y-69256649D01*
X98958676Y-69234246D01*
X98953456Y-69207739D01*
X98949057Y-69175692D01*
X98945407Y-69136667D01*
X98942438Y-69089227D01*
X98940078Y-69031935D01*
X98938259Y-68963354D01*
X98936910Y-68882046D01*
X98935962Y-68786575D01*
X98935344Y-68675504D01*
X98934986Y-68547395D01*
X98934819Y-68400810D01*
X98934772Y-68234314D01*
X98934775Y-68046469D01*
X98934776Y-68003783D01*
X98934776Y-67995234D01*
X99038685Y-67995234D01*
X99038685Y-68000079D01*
X99038815Y-68203684D01*
X99039206Y-68384652D01*
X99039865Y-68543433D01*
X99040797Y-68680480D01*
X99042008Y-68796245D01*
X99043503Y-68891178D01*
X99045286Y-68965732D01*
X99047365Y-69020358D01*
X99049743Y-69055508D01*
X99051486Y-69068283D01*
X99075424Y-69142638D01*
X99114143Y-69216544D01*
X99163797Y-69285150D01*
X99220540Y-69343605D01*
X99280525Y-69387058D01*
X99318067Y-69404484D01*
X99402157Y-69422347D01*
X99488051Y-69418525D01*
X99570429Y-69393298D01*
X99575549Y-69390917D01*
X99641300Y-69350032D01*
X99703909Y-69293942D01*
X99755737Y-69230092D01*
X99776572Y-69194969D01*
X99786483Y-69175228D01*
X99795203Y-69156264D01*
X99802811Y-69136538D01*
X99809381Y-69114512D01*
X99814991Y-69088648D01*
X99819717Y-69057408D01*
X99823635Y-69019255D01*
X99826821Y-68972648D01*
X99829352Y-68916052D01*
X99831303Y-68847927D01*
X99832753Y-68766735D01*
X99833776Y-68670939D01*
X99834449Y-68559000D01*
X99834848Y-68429380D01*
X99835050Y-68280541D01*
X99835131Y-68110944D01*
X99835151Y-68014563D01*
X99835032Y-67806589D01*
X99834598Y-67621123D01*
X99833852Y-67458236D01*
X99832793Y-67318002D01*
X99831423Y-67200494D01*
X99829742Y-67105785D01*
X99827752Y-67033948D01*
X99825453Y-66985055D01*
X99822912Y-66959531D01*
X99795689Y-66865427D01*
X99751658Y-66779025D01*
X99693703Y-66704399D01*
X99624711Y-66645622D01*
X99583661Y-66621797D01*
X99538639Y-66602512D01*
X99496972Y-66592724D01*
X99446550Y-66589789D01*
X99437003Y-66589778D01*
X99357869Y-66597475D01*
X99288436Y-66621582D01*
X99222539Y-66664617D01*
X99194591Y-66688795D01*
X99133834Y-66756419D01*
X99089013Y-66834314D01*
X99059819Y-66916843D01*
X99056117Y-66931315D01*
X99052872Y-66947334D01*
X99050055Y-66966436D01*
X99047636Y-66990157D01*
X99045584Y-67020033D01*
X99043869Y-67057599D01*
X99042463Y-67104393D01*
X99041333Y-67161949D01*
X99040452Y-67231805D01*
X99039788Y-67315495D01*
X99039312Y-67414557D01*
X99038993Y-67530525D01*
X99038803Y-67664937D01*
X99038710Y-67819328D01*
X99038685Y-67995234D01*
X98934776Y-67995234D01*
X98934772Y-67811214D01*
X98934806Y-67640300D01*
X98934945Y-67489607D01*
X98935260Y-67357698D01*
X98935819Y-67243138D01*
X98936690Y-67144492D01*
X98937941Y-67060325D01*
X98939643Y-66989200D01*
X98941863Y-66929684D01*
X98944671Y-66880339D01*
X98948134Y-66839732D01*
X98952321Y-66806426D01*
X98957302Y-66778986D01*
X98963144Y-66755977D01*
X98969918Y-66735963D01*
X98977690Y-66717509D01*
X98986531Y-66699179D01*
X98996508Y-66679539D01*
X98998316Y-66675977D01*
X99030607Y-66625641D01*
X99076484Y-66571107D01*
X99129290Y-66519279D01*
X99182364Y-66477061D01*
X99202639Y-66464142D01*
X99295675Y-66422847D01*
X99393199Y-66402907D01*
X99492038Y-66403893D01*
X99492038Y-66403893D01*
G37*
X99492038Y-66403893D02*
X99589020Y-66425377D01*
X99680973Y-66466930D01*
X99764723Y-66528124D01*
X99779574Y-66542060D01*
X99817611Y-66583390D01*
X99854336Y-66630192D01*
X99879822Y-66669082D01*
X99891118Y-66689059D01*
X99901141Y-66707569D01*
X99909966Y-66726046D01*
X99917671Y-66745924D01*
X99924332Y-66768638D01*
X99930024Y-66795621D01*
X99934825Y-66828309D01*
X99938810Y-66868135D01*
X99942056Y-66916535D01*
X99944639Y-66974941D01*
X99946636Y-67044789D01*
X99948122Y-67127512D01*
X99949175Y-67224545D01*
X99949870Y-67337323D01*
X99950284Y-67467279D01*
X99950493Y-67615848D01*
X99950574Y-67784464D01*
X99950602Y-67974561D01*
X99950605Y-67999321D01*
X99950511Y-68204096D01*
X99950166Y-68391261D01*
X99949577Y-68560212D01*
X99948749Y-68710343D01*
X99947690Y-68841048D01*
X99946403Y-68951723D01*
X99944897Y-69041762D01*
X99943175Y-69110559D01*
X99941245Y-69157510D01*
X99939112Y-69182009D01*
X99938992Y-69182680D01*
X99914444Y-69264865D01*
X99873869Y-69347035D01*
X99821135Y-69423781D01*
X99760107Y-69489694D01*
X99694654Y-69539364D01*
X99677051Y-69549122D01*
X99583747Y-69585713D01*
X99485340Y-69604638D01*
X99387973Y-69605166D01*
X99315776Y-69592080D01*
X99228856Y-69557231D01*
X99146048Y-69504209D01*
X99072959Y-69437593D01*
X99015199Y-69361961D01*
X98999523Y-69333971D01*
X98989154Y-69313610D01*
X98979955Y-69294894D01*
X98971855Y-69276386D01*
X98964786Y-69256649D01*
X98958676Y-69234246D01*
X98953456Y-69207739D01*
X98949057Y-69175692D01*
X98945407Y-69136667D01*
X98942438Y-69089227D01*
X98940078Y-69031935D01*
X98938259Y-68963354D01*
X98936910Y-68882046D01*
X98935962Y-68786575D01*
X98935344Y-68675504D01*
X98934986Y-68547395D01*
X98934819Y-68400810D01*
X98934772Y-68234314D01*
X98934775Y-68046469D01*
X98934776Y-68003783D01*
X98934776Y-67995234D01*
X99038685Y-67995234D01*
X99038685Y-68000079D01*
X99038815Y-68203684D01*
X99039206Y-68384652D01*
X99039865Y-68543433D01*
X99040797Y-68680480D01*
X99042008Y-68796245D01*
X99043503Y-68891178D01*
X99045286Y-68965732D01*
X99047365Y-69020358D01*
X99049743Y-69055508D01*
X99051486Y-69068283D01*
X99075424Y-69142638D01*
X99114143Y-69216544D01*
X99163797Y-69285150D01*
X99220540Y-69343605D01*
X99280525Y-69387058D01*
X99318067Y-69404484D01*
X99402157Y-69422347D01*
X99488051Y-69418525D01*
X99570429Y-69393298D01*
X99575549Y-69390917D01*
X99641300Y-69350032D01*
X99703909Y-69293942D01*
X99755737Y-69230092D01*
X99776572Y-69194969D01*
X99786483Y-69175228D01*
X99795203Y-69156264D01*
X99802811Y-69136538D01*
X99809381Y-69114512D01*
X99814991Y-69088648D01*
X99819717Y-69057408D01*
X99823635Y-69019255D01*
X99826821Y-68972648D01*
X99829352Y-68916052D01*
X99831303Y-68847927D01*
X99832753Y-68766735D01*
X99833776Y-68670939D01*
X99834449Y-68559000D01*
X99834848Y-68429380D01*
X99835050Y-68280541D01*
X99835131Y-68110944D01*
X99835151Y-68014563D01*
X99835032Y-67806589D01*
X99834598Y-67621123D01*
X99833852Y-67458236D01*
X99832793Y-67318002D01*
X99831423Y-67200494D01*
X99829742Y-67105785D01*
X99827752Y-67033948D01*
X99825453Y-66985055D01*
X99822912Y-66959531D01*
X99795689Y-66865427D01*
X99751658Y-66779025D01*
X99693703Y-66704399D01*
X99624711Y-66645622D01*
X99583661Y-66621797D01*
X99538639Y-66602512D01*
X99496972Y-66592724D01*
X99446550Y-66589789D01*
X99437003Y-66589778D01*
X99357869Y-66597475D01*
X99288436Y-66621582D01*
X99222539Y-66664617D01*
X99194591Y-66688795D01*
X99133834Y-66756419D01*
X99089013Y-66834314D01*
X99059819Y-66916843D01*
X99056117Y-66931315D01*
X99052872Y-66947334D01*
X99050055Y-66966436D01*
X99047636Y-66990157D01*
X99045584Y-67020033D01*
X99043869Y-67057599D01*
X99042463Y-67104393D01*
X99041333Y-67161949D01*
X99040452Y-67231805D01*
X99039788Y-67315495D01*
X99039312Y-67414557D01*
X99038993Y-67530525D01*
X99038803Y-67664937D01*
X99038710Y-67819328D01*
X99038685Y-67995234D01*
X98934776Y-67995234D01*
X98934772Y-67811214D01*
X98934806Y-67640300D01*
X98934945Y-67489607D01*
X98935260Y-67357698D01*
X98935819Y-67243138D01*
X98936690Y-67144492D01*
X98937941Y-67060325D01*
X98939643Y-66989200D01*
X98941863Y-66929684D01*
X98944671Y-66880339D01*
X98948134Y-66839732D01*
X98952321Y-66806426D01*
X98957302Y-66778986D01*
X98963144Y-66755977D01*
X98969918Y-66735963D01*
X98977690Y-66717509D01*
X98986531Y-66699179D01*
X98996508Y-66679539D01*
X98998316Y-66675977D01*
X99030607Y-66625641D01*
X99076484Y-66571107D01*
X99129290Y-66519279D01*
X99182364Y-66477061D01*
X99202639Y-66464142D01*
X99295675Y-66422847D01*
X99393199Y-66402907D01*
X99492038Y-66403893D01*
G36*
X99503584Y-60665802D02*
X99600566Y-60687286D01*
X99692518Y-60728839D01*
X99776268Y-60790033D01*
X99791119Y-60803969D01*
X99863451Y-60888989D01*
X99916458Y-60982985D01*
X99944992Y-61067958D01*
X99948148Y-61093102D01*
X99951023Y-61139242D01*
X99953614Y-61204400D01*
X99955924Y-61286596D01*
X99957951Y-61383852D01*
X99959695Y-61494190D01*
X99961156Y-61615630D01*
X99962335Y-61746194D01*
X99963230Y-61883903D01*
X99963843Y-62026778D01*
X99964172Y-62172841D01*
X99964219Y-62320113D01*
X99963982Y-62466616D01*
X99963461Y-62610369D01*
X99962657Y-62749396D01*
X99961570Y-62881716D01*
X99960199Y-63005352D01*
X99958544Y-63118324D01*
X99956605Y-63218655D01*
X99954383Y-63304364D01*
X99951876Y-63373474D01*
X99949085Y-63424005D01*
X99946010Y-63453980D01*
X99945100Y-63458415D01*
X99907677Y-63560943D01*
X99853449Y-63650927D01*
X99784864Y-63726813D01*
X99704368Y-63787046D01*
X99614410Y-63830074D01*
X99517437Y-63854341D01*
X99415897Y-63858293D01*
X99334454Y-63846123D01*
X99248333Y-63814656D01*
X99166432Y-63763173D01*
X99092265Y-63694736D01*
X99029350Y-63612411D01*
X98994906Y-63550304D01*
X98952094Y-63460647D01*
X98948938Y-62300573D01*
X98948866Y-62267420D01*
X99083144Y-62267420D01*
X99083357Y-62407553D01*
X99083866Y-62545824D01*
X99084669Y-62680155D01*
X99085764Y-62808465D01*
X99087151Y-62928676D01*
X99088828Y-63038708D01*
X99090793Y-63136483D01*
X99093046Y-63219921D01*
X99095585Y-63286942D01*
X99098408Y-63335468D01*
X99101514Y-63363420D01*
X99102130Y-63366210D01*
X99131846Y-63453551D01*
X99173313Y-63527018D01*
X99214087Y-63577173D01*
X99284160Y-63639817D01*
X99357940Y-63679681D01*
X99435515Y-63696791D01*
X99516975Y-63691173D01*
X99562357Y-63678786D01*
X99629390Y-63644624D01*
X99691641Y-63591393D01*
X99746055Y-63523051D01*
X99789577Y-63443555D01*
X99819151Y-63356862D01*
X99822563Y-63341738D01*
X99825147Y-63319008D01*
X99827423Y-63276817D01*
X99829395Y-63214744D01*
X99831068Y-63132365D01*
X99832447Y-63029257D01*
X99833537Y-62904997D01*
X99834344Y-62759164D01*
X99834872Y-62591333D01*
X99835127Y-62401082D01*
X99835151Y-62279556D01*
X99835111Y-62097641D01*
X99835001Y-61937279D01*
X99834741Y-61796932D01*
X99834250Y-61675062D01*
X99833445Y-61570132D01*
X99832246Y-61480604D01*
X99830572Y-61404939D01*
X99828340Y-61341600D01*
X99825470Y-61289048D01*
X99821880Y-61245747D01*
X99817490Y-61210159D01*
X99812217Y-61180744D01*
X99805980Y-61155966D01*
X99798698Y-61134287D01*
X99790291Y-61114168D01*
X99780675Y-61094072D01*
X99771499Y-61075875D01*
X99717327Y-60992429D01*
X99648286Y-60926627D01*
X99602144Y-60896919D01*
X99562607Y-60877487D01*
X99526655Y-60867169D01*
X99483354Y-60863361D01*
X99460094Y-60863076D01*
X99410462Y-60864897D01*
X99372776Y-60872114D01*
X99336057Y-60887356D01*
X99317446Y-60897245D01*
X99240694Y-60952701D01*
X99177349Y-61026365D01*
X99128251Y-61117070D01*
X99100698Y-61197738D01*
X99097570Y-61221122D01*
X99094752Y-61265516D01*
X99092244Y-61328840D01*
X99090043Y-61409015D01*
X99088149Y-61503962D01*
X99086560Y-61611602D01*
X99085275Y-61729855D01*
X99084292Y-61856643D01*
X99083610Y-61989886D01*
X99083228Y-62127505D01*
X99083144Y-62267420D01*
X98948866Y-62267420D01*
X98948452Y-62077342D01*
X98948272Y-61877043D01*
X98948400Y-61699524D01*
X98948837Y-61544627D01*
X98949583Y-61412198D01*
X98950640Y-61302082D01*
X98952010Y-61214123D01*
X98953692Y-61148166D01*
X98955689Y-61104055D01*
X98957972Y-61081778D01*
X98988072Y-60988594D01*
X99037104Y-60898716D01*
X99101085Y-60817677D01*
X99176028Y-60751009D01*
X99214184Y-60726051D01*
X99307220Y-60684756D01*
X99404744Y-60664816D01*
X99503584Y-60665802D01*
X99503584Y-60665802D01*
G37*
X99503584Y-60665802D02*
X99600566Y-60687286D01*
X99692518Y-60728839D01*
X99776268Y-60790033D01*
X99791119Y-60803969D01*
X99863451Y-60888989D01*
X99916458Y-60982985D01*
X99944992Y-61067958D01*
X99948148Y-61093102D01*
X99951023Y-61139242D01*
X99953614Y-61204400D01*
X99955924Y-61286596D01*
X99957951Y-61383852D01*
X99959695Y-61494190D01*
X99961156Y-61615630D01*
X99962335Y-61746194D01*
X99963230Y-61883903D01*
X99963843Y-62026778D01*
X99964172Y-62172841D01*
X99964219Y-62320113D01*
X99963982Y-62466616D01*
X99963461Y-62610369D01*
X99962657Y-62749396D01*
X99961570Y-62881716D01*
X99960199Y-63005352D01*
X99958544Y-63118324D01*
X99956605Y-63218655D01*
X99954383Y-63304364D01*
X99951876Y-63373474D01*
X99949085Y-63424005D01*
X99946010Y-63453980D01*
X99945100Y-63458415D01*
X99907677Y-63560943D01*
X99853449Y-63650927D01*
X99784864Y-63726813D01*
X99704368Y-63787046D01*
X99614410Y-63830074D01*
X99517437Y-63854341D01*
X99415897Y-63858293D01*
X99334454Y-63846123D01*
X99248333Y-63814656D01*
X99166432Y-63763173D01*
X99092265Y-63694736D01*
X99029350Y-63612411D01*
X98994906Y-63550304D01*
X98952094Y-63460647D01*
X98948938Y-62300573D01*
X98948866Y-62267420D01*
X99083144Y-62267420D01*
X99083357Y-62407553D01*
X99083866Y-62545824D01*
X99084669Y-62680155D01*
X99085764Y-62808465D01*
X99087151Y-62928676D01*
X99088828Y-63038708D01*
X99090793Y-63136483D01*
X99093046Y-63219921D01*
X99095585Y-63286942D01*
X99098408Y-63335468D01*
X99101514Y-63363420D01*
X99102130Y-63366210D01*
X99131846Y-63453551D01*
X99173313Y-63527018D01*
X99214087Y-63577173D01*
X99284160Y-63639817D01*
X99357940Y-63679681D01*
X99435515Y-63696791D01*
X99516975Y-63691173D01*
X99562357Y-63678786D01*
X99629390Y-63644624D01*
X99691641Y-63591393D01*
X99746055Y-63523051D01*
X99789577Y-63443555D01*
X99819151Y-63356862D01*
X99822563Y-63341738D01*
X99825147Y-63319008D01*
X99827423Y-63276817D01*
X99829395Y-63214744D01*
X99831068Y-63132365D01*
X99832447Y-63029257D01*
X99833537Y-62904997D01*
X99834344Y-62759164D01*
X99834872Y-62591333D01*
X99835127Y-62401082D01*
X99835151Y-62279556D01*
X99835111Y-62097641D01*
X99835001Y-61937279D01*
X99834741Y-61796932D01*
X99834250Y-61675062D01*
X99833445Y-61570132D01*
X99832246Y-61480604D01*
X99830572Y-61404939D01*
X99828340Y-61341600D01*
X99825470Y-61289048D01*
X99821880Y-61245747D01*
X99817490Y-61210159D01*
X99812217Y-61180744D01*
X99805980Y-61155966D01*
X99798698Y-61134287D01*
X99790291Y-61114168D01*
X99780675Y-61094072D01*
X99771499Y-61075875D01*
X99717327Y-60992429D01*
X99648286Y-60926627D01*
X99602144Y-60896919D01*
X99562607Y-60877487D01*
X99526655Y-60867169D01*
X99483354Y-60863361D01*
X99460094Y-60863076D01*
X99410462Y-60864897D01*
X99372776Y-60872114D01*
X99336057Y-60887356D01*
X99317446Y-60897245D01*
X99240694Y-60952701D01*
X99177349Y-61026365D01*
X99128251Y-61117070D01*
X99100698Y-61197738D01*
X99097570Y-61221122D01*
X99094752Y-61265516D01*
X99092244Y-61328840D01*
X99090043Y-61409015D01*
X99088149Y-61503962D01*
X99086560Y-61611602D01*
X99085275Y-61729855D01*
X99084292Y-61856643D01*
X99083610Y-61989886D01*
X99083228Y-62127505D01*
X99083144Y-62267420D01*
X98948866Y-62267420D01*
X98948452Y-62077342D01*
X98948272Y-61877043D01*
X98948400Y-61699524D01*
X98948837Y-61544627D01*
X98949583Y-61412198D01*
X98950640Y-61302082D01*
X98952010Y-61214123D01*
X98953692Y-61148166D01*
X98955689Y-61104055D01*
X98957972Y-61081778D01*
X98988072Y-60988594D01*
X99037104Y-60898716D01*
X99101085Y-60817677D01*
X99176028Y-60751009D01*
X99214184Y-60726051D01*
X99307220Y-60684756D01*
X99404744Y-60664816D01*
X99503584Y-60665802D01*
G36*
X95188766Y-62660186D02*
X95241199Y-62660852D01*
X95438441Y-62664011D01*
X95691640Y-63127906D01*
X95944839Y-63591800D01*
X95941785Y-63947633D01*
X95938731Y-64303465D01*
X95856085Y-64153374D01*
X95816450Y-64081289D01*
X95770788Y-63998060D01*
X95720108Y-63905539D01*
X95665419Y-63805579D01*
X95607730Y-63700032D01*
X95548050Y-63590752D01*
X95487389Y-63479590D01*
X95426755Y-63368400D01*
X95367159Y-63259034D01*
X95309608Y-63153344D01*
X95255113Y-63053184D01*
X95204683Y-62960406D01*
X95159326Y-62876863D01*
X95120052Y-62804407D01*
X95087871Y-62744890D01*
X95063791Y-62700167D01*
X95048821Y-62672088D01*
X95043958Y-62662518D01*
X95054878Y-62661113D01*
X95085145Y-62660235D01*
X95131020Y-62659916D01*
X95188766Y-62660186D01*
X95188766Y-62660186D01*
G37*
X95188766Y-62660186D02*
X95241199Y-62660852D01*
X95438441Y-62664011D01*
X95691640Y-63127906D01*
X95944839Y-63591800D01*
X95941785Y-63947633D01*
X95938731Y-64303465D01*
X95856085Y-64153374D01*
X95816450Y-64081289D01*
X95770788Y-63998060D01*
X95720108Y-63905539D01*
X95665419Y-63805579D01*
X95607730Y-63700032D01*
X95548050Y-63590752D01*
X95487389Y-63479590D01*
X95426755Y-63368400D01*
X95367159Y-63259034D01*
X95309608Y-63153344D01*
X95255113Y-63053184D01*
X95204683Y-62960406D01*
X95159326Y-62876863D01*
X95120052Y-62804407D01*
X95087871Y-62744890D01*
X95063791Y-62700167D01*
X95048821Y-62672088D01*
X95043958Y-62662518D01*
X95054878Y-62661113D01*
X95085145Y-62660235D01*
X95131020Y-62659916D01*
X95188766Y-62660186D01*
G36*
X99682011Y-58117419D02*
X99799707Y-58119201D01*
X99908046Y-58122124D01*
X100002396Y-58126188D01*
X100072003Y-58130862D01*
X100447306Y-58171880D01*
X100810322Y-58230725D01*
X101164329Y-58308165D01*
X101512607Y-58404969D01*
X101858430Y-58521905D01*
X102045261Y-58593673D01*
X102102508Y-58616835D01*
X102154483Y-58638343D01*
X102196161Y-58656085D01*
X102222518Y-58667947D01*
X102225833Y-58669595D01*
X102239141Y-58675667D01*
X102251240Y-58676869D01*
X102265504Y-58671006D01*
X102285305Y-58655884D01*
X102314015Y-58629310D01*
X102355009Y-58589088D01*
X102365394Y-58578801D01*
X102482439Y-58474177D01*
X102603736Y-58389398D01*
X102734094Y-58321718D01*
X102878319Y-58268390D01*
X102939336Y-58250896D01*
X102987113Y-58238942D01*
X103029583Y-58230649D01*
X103073006Y-58225376D01*
X103123643Y-58222484D01*
X103187754Y-58221331D01*
X103229685Y-58221206D01*
X103303342Y-58221682D01*
X103360219Y-58223541D01*
X103406614Y-58227436D01*
X103448827Y-58234018D01*
X103493156Y-58243937D01*
X103522215Y-58251449D01*
X103680835Y-58304800D01*
X103827310Y-58376188D01*
X103960707Y-58463927D01*
X104080093Y-58566330D01*
X104184534Y-58681712D01*
X104273098Y-58808387D01*
X104344850Y-58944669D01*
X104398858Y-59088872D01*
X104434188Y-59239309D01*
X104449907Y-59394296D01*
X104445081Y-59552145D01*
X104418777Y-59711172D01*
X104388863Y-59816967D01*
X104368230Y-59875182D01*
X104345331Y-59933456D01*
X104323631Y-59983209D01*
X104312913Y-60004872D01*
X104276794Y-60072638D01*
X104368690Y-60167597D01*
X104619452Y-60443029D01*
X104855162Y-60735039D01*
X105074902Y-61041944D01*
X105277750Y-61362061D01*
X105462788Y-61693707D01*
X105629095Y-62035200D01*
X105775753Y-62384855D01*
X105901841Y-62740990D01*
X106006440Y-63101922D01*
X106034953Y-63217025D01*
X106097083Y-63504321D01*
X106145178Y-63786153D01*
X106179914Y-64068415D01*
X106201966Y-64357003D01*
X106212007Y-64657811D01*
X106212812Y-64771056D01*
X106205432Y-65116311D01*
X106182566Y-65447978D01*
X106143780Y-65769977D01*
X106088639Y-66086229D01*
X106045491Y-66283511D01*
X105943743Y-66665688D01*
X105821011Y-67038475D01*
X105677637Y-67401336D01*
X105513963Y-67753732D01*
X105330332Y-68095126D01*
X105127087Y-68424982D01*
X104904569Y-68742763D01*
X104663121Y-69047931D01*
X104403085Y-69339949D01*
X104124803Y-69618280D01*
X103828618Y-69882386D01*
X103668413Y-70013310D01*
X103364851Y-70239444D01*
X103047279Y-70447722D01*
X102716945Y-70637617D01*
X102375102Y-70808602D01*
X102022999Y-70960148D01*
X101661888Y-71091728D01*
X101293019Y-71202814D01*
X100917643Y-71292878D01*
X100537012Y-71361394D01*
X100440231Y-71375222D01*
X100240477Y-71398192D01*
X100026563Y-71415381D01*
X99804962Y-71426606D01*
X99582149Y-71431682D01*
X99364597Y-71430426D01*
X99158781Y-71422654D01*
X99044458Y-71414855D01*
X98648937Y-71371441D01*
X98260235Y-71306177D01*
X97878813Y-71219219D01*
X97505131Y-71110724D01*
X97139649Y-70980845D01*
X96782828Y-70829741D01*
X96435128Y-70657565D01*
X96097008Y-70464473D01*
X95937604Y-70363987D01*
X95615155Y-70140782D01*
X95307958Y-69900748D01*
X95016555Y-69644655D01*
X94741487Y-69373272D01*
X94483294Y-69087368D01*
X94242518Y-68787714D01*
X94019699Y-68475078D01*
X93815378Y-68150231D01*
X93630097Y-67813941D01*
X93464395Y-67466978D01*
X93318815Y-67110112D01*
X93193896Y-66744113D01*
X93090180Y-66369749D01*
X93069686Y-66283858D01*
X93053518Y-66212473D01*
X93038043Y-66141328D01*
X93024584Y-66076706D01*
X93014464Y-66024888D01*
X93010871Y-66004548D01*
X92996251Y-65916085D01*
X92961974Y-65908091D01*
X93404504Y-65908091D01*
X93411378Y-65948596D01*
X93427692Y-66033762D01*
X93450252Y-66135690D01*
X93477727Y-66249330D01*
X93508786Y-66369634D01*
X93542097Y-66491551D01*
X93576330Y-66610032D01*
X93610152Y-66720028D01*
X93633630Y-66791511D01*
X93728171Y-67047910D01*
X93839045Y-67310239D01*
X93963110Y-67572021D01*
X94097222Y-67826779D01*
X94238241Y-68068035D01*
X94300726Y-68166791D01*
X94514013Y-68474737D01*
X94745961Y-68770441D01*
X94995006Y-69052177D01*
X95259582Y-69318218D01*
X95538124Y-69566840D01*
X95662814Y-69668767D01*
X95724388Y-69717168D01*
X95786392Y-69764868D01*
X95845927Y-69809742D01*
X95900095Y-69849666D01*
X95945997Y-69882515D01*
X95980738Y-69906163D01*
X96001417Y-69918485D01*
X96005117Y-69919768D01*
X96006038Y-69908478D01*
X96006932Y-69875270D01*
X96007794Y-69821317D01*
X96008618Y-69747791D01*
X96009400Y-69655864D01*
X96010135Y-69546709D01*
X96010817Y-69421499D01*
X96011441Y-69281407D01*
X96012002Y-69127605D01*
X96012496Y-68961265D01*
X96012917Y-68783561D01*
X96013260Y-68595665D01*
X96013520Y-68398750D01*
X96013692Y-68193987D01*
X96013771Y-67982551D01*
X96013776Y-67915734D01*
X96013776Y-67039438D01*
X96477813Y-67039438D01*
X96477853Y-67241820D01*
X96477959Y-67452947D01*
X96478132Y-67671717D01*
X96478373Y-67897027D01*
X96478452Y-67960135D01*
X96481367Y-70225577D01*
X96654549Y-70315072D01*
X97003629Y-70483306D01*
X97355486Y-70628635D01*
X97710229Y-70751091D01*
X98067967Y-70850705D01*
X98428809Y-70927509D01*
X98792863Y-70981534D01*
X99038685Y-71005007D01*
X99103408Y-71009867D01*
X99164414Y-71014520D01*
X99215806Y-71018509D01*
X99251688Y-71021381D01*
X99258049Y-71021914D01*
X99293506Y-71023578D01*
X99348208Y-71024424D01*
X99418324Y-71024526D01*
X99500026Y-71023957D01*
X99589483Y-71022792D01*
X99682866Y-71021104D01*
X99776346Y-71018967D01*
X99866092Y-71016454D01*
X99948277Y-71013640D01*
X100019069Y-71010597D01*
X100074639Y-71007400D01*
X100095094Y-71005805D01*
X100469694Y-70961976D01*
X100835156Y-70897644D01*
X101193237Y-70812319D01*
X101545699Y-70705508D01*
X101894301Y-70576722D01*
X102240801Y-70425467D01*
X102333811Y-70380915D01*
X102390436Y-70353283D01*
X102382879Y-68830255D01*
X102381900Y-68626174D01*
X102380958Y-68416533D01*
X102380061Y-68203817D01*
X102379217Y-67990510D01*
X102378434Y-67779095D01*
X102377720Y-67572055D01*
X102377083Y-67371875D01*
X102376532Y-67181038D01*
X102376074Y-67002028D01*
X102375717Y-66837327D01*
X102375470Y-66689421D01*
X102375340Y-66560792D01*
X102375322Y-66500726D01*
X102375322Y-65815920D01*
X102833969Y-65815920D01*
X102841292Y-67166738D01*
X102842305Y-67361160D01*
X102843278Y-67562379D01*
X102844200Y-67767607D01*
X102845062Y-67974059D01*
X102845854Y-68178947D01*
X102846567Y-68379485D01*
X102847192Y-68572886D01*
X102847718Y-68756363D01*
X102848136Y-68927130D01*
X102848436Y-69082400D01*
X102848609Y-69219387D01*
X102848650Y-69305678D01*
X102848685Y-70093800D01*
X102897753Y-70063091D01*
X102925508Y-70045242D01*
X102967223Y-70017824D01*
X103017758Y-69984240D01*
X103071971Y-69947894D01*
X103085367Y-69938863D01*
X103352863Y-69746175D01*
X103615253Y-69533207D01*
X103869715Y-69302657D01*
X104113426Y-69057224D01*
X104343566Y-68799604D01*
X104557312Y-68532497D01*
X104559874Y-68529102D01*
X104665619Y-68383451D01*
X104773183Y-68225250D01*
X104878861Y-68060425D01*
X104978948Y-67894902D01*
X105069742Y-67734607D01*
X105139225Y-67602150D01*
X105266994Y-67330724D01*
X105383439Y-67049535D01*
X105487372Y-66762425D01*
X105577605Y-66473233D01*
X105652951Y-66185802D01*
X105712220Y-65903972D01*
X105754225Y-65631585D01*
X105757745Y-65602329D01*
X105763939Y-65551503D01*
X105769829Y-65506988D01*
X105774514Y-65475448D01*
X105776113Y-65466670D01*
X105781671Y-65440693D01*
X103210553Y-65440693D01*
X103153733Y-65478215D01*
X103100205Y-65518777D01*
X103039855Y-65572993D01*
X102978435Y-65635149D01*
X102921696Y-65699534D01*
X102889311Y-65740874D01*
X102833969Y-65815920D01*
X102375322Y-65815920D01*
X102375322Y-65694225D01*
X102314708Y-65729908D01*
X102178525Y-65801176D01*
X102021326Y-65867523D01*
X101844692Y-65928788D01*
X101650201Y-65984808D01*
X101439433Y-66035423D01*
X101213968Y-66080471D01*
X100975385Y-66119791D01*
X100725265Y-66153221D01*
X100465185Y-66180599D01*
X100196727Y-66201765D01*
X99921470Y-66216556D01*
X99640992Y-66224812D01*
X99356874Y-66226370D01*
X99070696Y-66221069D01*
X98784036Y-66208748D01*
X98498475Y-66189245D01*
X98215592Y-66162400D01*
X98152890Y-66155379D01*
X97931158Y-66126639D01*
X97716323Y-66092487D01*
X97510407Y-66053447D01*
X97315435Y-66010044D01*
X97133431Y-65962802D01*
X96966421Y-65912246D01*
X96816426Y-65858902D01*
X96685473Y-65803294D01*
X96577099Y-65746835D01*
X96536906Y-65723671D01*
X96504631Y-65705793D01*
X96485136Y-65695861D01*
X96481820Y-65694693D01*
X96481205Y-65706054D01*
X96480636Y-65739403D01*
X96480114Y-65793636D01*
X96479641Y-65867649D01*
X96479219Y-65960340D01*
X96478848Y-66070603D01*
X96478531Y-66197337D01*
X96478270Y-66339438D01*
X96478066Y-66495802D01*
X96477921Y-66665325D01*
X96477836Y-66846905D01*
X96477813Y-67039438D01*
X96013776Y-67039438D01*
X96013776Y-65911140D01*
X95978244Y-65841217D01*
X95920867Y-65740899D01*
X95854167Y-65649643D01*
X95773437Y-65561523D01*
X95706174Y-65498634D01*
X95627895Y-65429147D01*
X94187410Y-65429147D01*
X94104797Y-65517792D01*
X93993027Y-65623429D01*
X93867519Y-65716677D01*
X93732991Y-65794675D01*
X93594161Y-65854557D01*
X93504367Y-65882275D01*
X93404504Y-65908091D01*
X92961974Y-65908091D01*
X92892648Y-65891923D01*
X92731879Y-65843389D01*
X92582322Y-65775145D01*
X92442919Y-65686577D01*
X92312612Y-65577071D01*
X92261483Y-65525888D01*
X92189830Y-65445589D01*
X92131393Y-65367433D01*
X92079467Y-65281892D01*
X92049417Y-65224594D01*
X91984399Y-65070902D01*
X91941256Y-64914712D01*
X91919151Y-64757687D01*
X91918163Y-64676665D01*
X92182908Y-64676665D01*
X92184329Y-64724874D01*
X92203313Y-64874856D01*
X92242982Y-65016379D01*
X92302008Y-65147952D01*
X92379060Y-65268084D01*
X92472809Y-65375285D01*
X92581927Y-65468062D01*
X92705084Y-65544926D01*
X92840950Y-65604386D01*
X92988197Y-65644950D01*
X93008030Y-65648744D01*
X93074887Y-65655913D01*
X93156199Y-65657001D01*
X93244287Y-65652513D01*
X93331475Y-65642958D01*
X93410086Y-65628841D01*
X93444913Y-65619899D01*
X93585615Y-65567082D01*
X93713896Y-65495346D01*
X93828570Y-65405946D01*
X93928452Y-65300135D01*
X94012356Y-65179167D01*
X94079098Y-65044297D01*
X94104397Y-64967329D01*
X94406455Y-64967329D01*
X95939084Y-64967329D01*
X95959157Y-65023848D01*
X96000932Y-65108776D01*
X96065185Y-65192374D01*
X96151315Y-65274102D01*
X96258723Y-65353419D01*
X96386808Y-65429786D01*
X96442012Y-65458540D01*
X96600631Y-65530931D01*
X96779763Y-65599464D01*
X96977063Y-65663540D01*
X97190184Y-65722558D01*
X97416780Y-65775917D01*
X97654506Y-65823018D01*
X97901014Y-65863259D01*
X98149685Y-65895557D01*
X98335719Y-65915390D01*
X98514737Y-65931652D01*
X98690391Y-65944465D01*
X98866336Y-65953950D01*
X99046224Y-65960227D01*
X99233709Y-65963416D01*
X99432444Y-65963638D01*
X99646081Y-65961014D01*
X99878275Y-65955664D01*
X99927685Y-65954266D01*
X100210293Y-65941480D01*
X100492171Y-65919852D01*
X100770635Y-65889849D01*
X101043000Y-65851938D01*
X101306581Y-65806587D01*
X101558695Y-65754264D01*
X101796657Y-65695436D01*
X102017782Y-65630570D01*
X102219385Y-65560134D01*
X102242490Y-65551192D01*
X102409855Y-65479522D01*
X102554697Y-65404290D01*
X102677346Y-65325252D01*
X102778131Y-65242162D01*
X102857380Y-65154777D01*
X102915423Y-65062852D01*
X102924099Y-65044814D01*
X102954287Y-64978874D01*
X105801435Y-64978874D01*
X105808651Y-64942795D01*
X105812852Y-64909917D01*
X105815454Y-64866701D01*
X105815867Y-64843653D01*
X105815867Y-64780592D01*
X102700199Y-64788374D01*
X102692258Y-64857647D01*
X102680211Y-64921648D01*
X102657947Y-64975045D01*
X102621646Y-65024867D01*
X102577128Y-65069448D01*
X102490873Y-65136958D01*
X102382789Y-65202252D01*
X102254063Y-65264952D01*
X102105884Y-65324686D01*
X101939439Y-65381078D01*
X101755917Y-65433755D01*
X101556505Y-65482341D01*
X101342392Y-65526461D01*
X101114765Y-65565742D01*
X100909049Y-65595375D01*
X100705576Y-65620330D01*
X100508070Y-65640656D01*
X100311698Y-65656643D01*
X100111628Y-65668579D01*
X99903030Y-65676754D01*
X99681070Y-65681458D01*
X99446943Y-65682979D01*
X99217833Y-65681714D01*
X99006521Y-65677528D01*
X98807863Y-65670114D01*
X98616716Y-65659166D01*
X98427935Y-65644380D01*
X98236378Y-65625448D01*
X98036898Y-65602066D01*
X97993373Y-65596542D01*
X97765043Y-65563864D01*
X97547479Y-65526038D01*
X97341843Y-65483470D01*
X97149298Y-65436569D01*
X96971008Y-65385739D01*
X96808135Y-65331389D01*
X96661842Y-65273924D01*
X96533293Y-65213752D01*
X96423650Y-65151279D01*
X96334076Y-65086911D01*
X96265734Y-65021056D01*
X96236067Y-64982010D01*
X96222336Y-64947687D01*
X96212838Y-64894899D01*
X96210049Y-64864014D01*
X96204276Y-64776829D01*
X96059958Y-64778701D01*
X96022661Y-64779162D01*
X95964739Y-64779847D01*
X95888656Y-64780729D01*
X95796877Y-64781779D01*
X95691866Y-64782969D01*
X95576087Y-64784272D01*
X95452005Y-64785660D01*
X95322085Y-64787104D01*
X95188790Y-64788577D01*
X95175150Y-64788728D01*
X94434661Y-64796882D01*
X94426937Y-64856128D01*
X94421170Y-64895947D01*
X94415279Y-64929930D01*
X94412834Y-64941352D01*
X94406455Y-64967329D01*
X94104397Y-64967329D01*
X94127168Y-64898056D01*
X94142983Y-64808186D01*
X94149491Y-64705718D01*
X94146887Y-64599098D01*
X94135366Y-64496775D01*
X94115887Y-64409723D01*
X94060849Y-64263553D01*
X93987933Y-64131340D01*
X93898148Y-64014072D01*
X93792504Y-63912737D01*
X93672013Y-63828324D01*
X93537683Y-63761821D01*
X93410276Y-63719284D01*
X93324349Y-63702900D01*
X93225238Y-63694496D01*
X93121431Y-63694069D01*
X93021414Y-63701621D01*
X92933671Y-63717150D01*
X92925367Y-63719284D01*
X92782440Y-63768580D01*
X92651638Y-63836194D01*
X92534239Y-63920391D01*
X92431522Y-64019436D01*
X92344765Y-64131595D01*
X92275246Y-64255132D01*
X92224245Y-64388312D01*
X92193040Y-64529402D01*
X92182908Y-64676665D01*
X91918163Y-64676665D01*
X91917246Y-64601488D01*
X91934705Y-64447778D01*
X91970688Y-64298221D01*
X92024360Y-64154479D01*
X92094882Y-64018213D01*
X92181417Y-63891088D01*
X92283128Y-63774764D01*
X92399176Y-63670906D01*
X92528725Y-63581176D01*
X92670936Y-63507236D01*
X92824974Y-63450748D01*
X92959103Y-63418695D01*
X92982741Y-63412995D01*
X93450685Y-63412995D01*
X93461312Y-63424347D01*
X93490220Y-63437575D01*
X93524016Y-63448206D01*
X93648448Y-63491237D01*
X93775238Y-63552437D01*
X93898415Y-63628440D01*
X94012004Y-63715880D01*
X94035050Y-63736259D01*
X94118250Y-63821803D01*
X94197759Y-63922305D01*
X94269314Y-64031303D01*
X94328654Y-64142335D01*
X94369847Y-64243862D01*
X94400393Y-64335585D01*
X95204198Y-64327106D01*
X95338218Y-64325653D01*
X95465325Y-64324200D01*
X95583658Y-64322774D01*
X95691355Y-64321398D01*
X95786556Y-64320101D01*
X95867398Y-64318907D01*
X95932021Y-64317844D01*
X95978563Y-64316936D01*
X96005163Y-64316210D01*
X96010918Y-64315828D01*
X96011191Y-64304185D01*
X96011428Y-64270537D01*
X96011631Y-64215970D01*
X96011799Y-64141571D01*
X96011931Y-64048425D01*
X96012029Y-63937618D01*
X96012091Y-63810237D01*
X96012119Y-63667367D01*
X96012111Y-63510095D01*
X96012068Y-63339506D01*
X96011990Y-63156688D01*
X96011877Y-62962724D01*
X96011729Y-62758703D01*
X96011546Y-62545710D01*
X96011328Y-62324830D01*
X96011075Y-62097151D01*
X96010918Y-61966948D01*
X96008003Y-59620865D01*
X95921413Y-59681442D01*
X95760654Y-59799792D01*
X95592900Y-59934201D01*
X95422579Y-60080659D01*
X95254113Y-60235155D01*
X95091930Y-60393679D01*
X94940454Y-60552219D01*
X94853207Y-60649508D01*
X94612714Y-60940872D01*
X94393674Y-61239547D01*
X94195208Y-61547079D01*
X94016438Y-61865015D01*
X93856482Y-62194899D01*
X93714463Y-62538279D01*
X93608740Y-62837193D01*
X93588492Y-62900799D01*
X93566591Y-62972856D01*
X93544038Y-63049714D01*
X93521836Y-63127723D01*
X93500985Y-63203236D01*
X93482488Y-63272602D01*
X93467346Y-63332172D01*
X93456561Y-63378298D01*
X93451134Y-63407330D01*
X93450685Y-63412995D01*
X92982741Y-63412995D01*
X93008689Y-63406738D01*
X93035473Y-63393366D01*
X93040163Y-63386521D01*
X93044760Y-63368465D01*
X93053177Y-63333113D01*
X93064184Y-63285698D01*
X93075635Y-63235511D01*
X93152228Y-62937918D01*
X93248150Y-62634374D01*
X93361794Y-62328678D01*
X93491558Y-62024627D01*
X93635837Y-61726020D01*
X93793026Y-61436655D01*
X93933867Y-61203511D01*
X94146808Y-60888953D01*
X94379316Y-60585165D01*
X94629750Y-60293863D01*
X94896473Y-60016764D01*
X95177842Y-59755584D01*
X95472219Y-59512040D01*
X95725260Y-59324925D01*
X96475594Y-59324925D01*
X96475594Y-64896094D01*
X96528585Y-64942738D01*
X96577103Y-64978556D01*
X96643654Y-65017592D01*
X96723824Y-65057644D01*
X96813201Y-65096513D01*
X96907371Y-65131997D01*
X96909803Y-65132841D01*
X97096582Y-65191022D01*
X97303905Y-65243717D01*
X97529839Y-65290746D01*
X97772456Y-65331933D01*
X98029825Y-65367099D01*
X98300016Y-65396065D01*
X98581100Y-65418655D01*
X98871146Y-65434690D01*
X99168224Y-65443993D01*
X99470404Y-65446384D01*
X99775757Y-65441687D01*
X100082352Y-65429724D01*
X100112413Y-65428153D01*
X100367113Y-65411547D01*
X100615269Y-65389475D01*
X100854860Y-65362278D01*
X101083864Y-65330300D01*
X101300261Y-65293886D01*
X101502030Y-65253377D01*
X101687150Y-65209118D01*
X101853600Y-65161453D01*
X101999361Y-65110724D01*
X102014128Y-65104938D01*
X102100558Y-65068008D01*
X102182082Y-65028201D01*
X102253668Y-64988217D01*
X102310286Y-64950757D01*
X102328959Y-64935941D01*
X102377893Y-64894056D01*
X102369424Y-62595624D01*
X102362054Y-60595123D01*
X102821813Y-60595123D01*
X102829469Y-61658430D01*
X102830663Y-61831932D01*
X102831799Y-62012298D01*
X102832864Y-62196334D01*
X102833844Y-62380848D01*
X102834724Y-62562646D01*
X102835489Y-62738535D01*
X102836126Y-62905323D01*
X102836619Y-63059817D01*
X102836955Y-63198823D01*
X102837119Y-63319148D01*
X102837133Y-63359414D01*
X102837140Y-63997091D01*
X102926617Y-64087348D01*
X102998668Y-64155998D01*
X103068412Y-64212778D01*
X103145732Y-64265431D01*
X103183302Y-64288452D01*
X103235458Y-64319620D01*
X104515705Y-64320202D01*
X105795952Y-64320783D01*
X105788173Y-64219761D01*
X105758266Y-63938372D01*
X105711648Y-63647295D01*
X105649473Y-63351472D01*
X105572896Y-63055843D01*
X105483069Y-62765350D01*
X105385719Y-62496602D01*
X105255991Y-62190333D01*
X105107894Y-61887812D01*
X104943294Y-61591977D01*
X104764057Y-61305766D01*
X104572049Y-61032118D01*
X104369136Y-60773971D01*
X104157184Y-60534263D01*
X104104539Y-60479144D01*
X104012239Y-60384005D01*
X103918258Y-60446110D01*
X103800053Y-60517565D01*
X103685160Y-60572159D01*
X103565567Y-60613153D01*
X103433259Y-60643809D01*
X103431731Y-60644096D01*
X103326493Y-60656825D01*
X103209612Y-60659133D01*
X103089860Y-60651382D01*
X102976011Y-60633933D01*
X102930499Y-60623395D01*
X102821813Y-60595123D01*
X102362054Y-60595123D01*
X102360956Y-60297193D01*
X102312735Y-60245238D01*
X102222125Y-60131636D01*
X102144921Y-60001674D01*
X102082793Y-59858878D01*
X102037415Y-59706775D01*
X102022219Y-59632331D01*
X102011405Y-59537635D01*
X102008592Y-59431016D01*
X102010408Y-59390874D01*
X102229045Y-59390874D01*
X102231893Y-59538826D01*
X102255662Y-59680353D01*
X102298739Y-59814077D01*
X102359513Y-59938619D01*
X102436371Y-60052599D01*
X102527700Y-60154638D01*
X102631889Y-60243356D01*
X102747325Y-60317376D01*
X102872396Y-60375316D01*
X103005489Y-60415799D01*
X103144992Y-60437444D01*
X103289294Y-60438872D01*
X103431754Y-60419756D01*
X103577524Y-60378324D01*
X103712561Y-60317129D01*
X103835467Y-60237527D01*
X103944845Y-60140876D01*
X104039297Y-60028531D01*
X104117426Y-59901848D01*
X104177835Y-59762184D01*
X104206211Y-59667965D01*
X104220330Y-59588626D01*
X104227391Y-59495451D01*
X104227481Y-59396563D01*
X104220690Y-59300082D01*
X104207107Y-59214132D01*
X104200978Y-59188829D01*
X104150272Y-59043694D01*
X104080176Y-58909921D01*
X103992018Y-58789110D01*
X103887130Y-58682863D01*
X103766842Y-58592781D01*
X103653913Y-58530320D01*
X103563428Y-58492005D01*
X103476118Y-58465595D01*
X103384648Y-58449555D01*
X103281685Y-58442352D01*
X103229685Y-58441585D01*
X103124830Y-58444486D01*
X103034631Y-58454716D01*
X102951320Y-58474083D01*
X102867132Y-58504395D01*
X102774301Y-58547461D01*
X102773640Y-58547793D01*
X102645294Y-58623726D01*
X102534331Y-58714342D01*
X102439388Y-58821003D01*
X102359102Y-58945069D01*
X102340124Y-58981011D01*
X102290751Y-59090169D01*
X102257163Y-59194023D01*
X102236945Y-59301480D01*
X102229045Y-59390874D01*
X102010408Y-59390874D01*
X102013519Y-59322114D01*
X102025927Y-59220570D01*
X102034462Y-59177283D01*
X102044691Y-59132239D01*
X102053651Y-59092340D01*
X102059320Y-59066612D01*
X102060798Y-59055714D01*
X102058140Y-59046277D01*
X102048529Y-59036700D01*
X102029147Y-59025385D01*
X101997177Y-59010736D01*
X101949803Y-58991152D01*
X101884206Y-58965036D01*
X101871272Y-58959923D01*
X101562430Y-58846184D01*
X101256563Y-58750710D01*
X100949113Y-58672445D01*
X100635522Y-58610337D01*
X100311231Y-58563329D01*
X100037367Y-58535580D01*
X99959499Y-58530573D01*
X99863656Y-58526764D01*
X99754759Y-58524154D01*
X99637730Y-58522744D01*
X99517490Y-58522533D01*
X99398960Y-58523522D01*
X99287061Y-58525711D01*
X99186717Y-58529101D01*
X99102847Y-58533692D01*
X99079094Y-58535515D01*
X98702905Y-58576924D01*
X98339237Y-58636986D01*
X97986334Y-58716206D01*
X97642440Y-58815086D01*
X97305801Y-58934132D01*
X96974660Y-59073846D01*
X96651663Y-59232420D01*
X96475594Y-59324925D01*
X95725260Y-59324925D01*
X95736048Y-59316948D01*
X95792851Y-59277552D01*
X95849209Y-59239134D01*
X95899548Y-59205451D01*
X95938291Y-59180260D01*
X95946752Y-59174962D01*
X95980385Y-59152856D01*
X96004442Y-59134476D01*
X96013774Y-59123758D01*
X96013776Y-59123688D01*
X96022599Y-59114051D01*
X96025245Y-59113783D01*
X96038477Y-59108249D01*
X96068239Y-59092873D01*
X96111143Y-59069499D01*
X96163803Y-59039970D01*
X96218632Y-59008561D01*
X96562310Y-58822508D01*
X96912546Y-58658237D01*
X97269943Y-58515560D01*
X97635102Y-58394290D01*
X98008624Y-58294241D01*
X98391112Y-58215223D01*
X98783167Y-58157051D01*
X99038685Y-58130734D01*
X99115267Y-58125654D01*
X99210279Y-58121719D01*
X99319091Y-58118929D01*
X99437072Y-58117282D01*
X99559589Y-58116779D01*
X99682011Y-58117419D01*
X99682011Y-58117419D01*
G37*
X99682011Y-58117419D02*
X99799707Y-58119201D01*
X99908046Y-58122124D01*
X100002396Y-58126188D01*
X100072003Y-58130862D01*
X100447306Y-58171880D01*
X100810322Y-58230725D01*
X101164329Y-58308165D01*
X101512607Y-58404969D01*
X101858430Y-58521905D01*
X102045261Y-58593673D01*
X102102508Y-58616835D01*
X102154483Y-58638343D01*
X102196161Y-58656085D01*
X102222518Y-58667947D01*
X102225833Y-58669595D01*
X102239141Y-58675667D01*
X102251240Y-58676869D01*
X102265504Y-58671006D01*
X102285305Y-58655884D01*
X102314015Y-58629310D01*
X102355009Y-58589088D01*
X102365394Y-58578801D01*
X102482439Y-58474177D01*
X102603736Y-58389398D01*
X102734094Y-58321718D01*
X102878319Y-58268390D01*
X102939336Y-58250896D01*
X102987113Y-58238942D01*
X103029583Y-58230649D01*
X103073006Y-58225376D01*
X103123643Y-58222484D01*
X103187754Y-58221331D01*
X103229685Y-58221206D01*
X103303342Y-58221682D01*
X103360219Y-58223541D01*
X103406614Y-58227436D01*
X103448827Y-58234018D01*
X103493156Y-58243937D01*
X103522215Y-58251449D01*
X103680835Y-58304800D01*
X103827310Y-58376188D01*
X103960707Y-58463927D01*
X104080093Y-58566330D01*
X104184534Y-58681712D01*
X104273098Y-58808387D01*
X104344850Y-58944669D01*
X104398858Y-59088872D01*
X104434188Y-59239309D01*
X104449907Y-59394296D01*
X104445081Y-59552145D01*
X104418777Y-59711172D01*
X104388863Y-59816967D01*
X104368230Y-59875182D01*
X104345331Y-59933456D01*
X104323631Y-59983209D01*
X104312913Y-60004872D01*
X104276794Y-60072638D01*
X104368690Y-60167597D01*
X104619452Y-60443029D01*
X104855162Y-60735039D01*
X105074902Y-61041944D01*
X105277750Y-61362061D01*
X105462788Y-61693707D01*
X105629095Y-62035200D01*
X105775753Y-62384855D01*
X105901841Y-62740990D01*
X106006440Y-63101922D01*
X106034953Y-63217025D01*
X106097083Y-63504321D01*
X106145178Y-63786153D01*
X106179914Y-64068415D01*
X106201966Y-64357003D01*
X106212007Y-64657811D01*
X106212812Y-64771056D01*
X106205432Y-65116311D01*
X106182566Y-65447978D01*
X106143780Y-65769977D01*
X106088639Y-66086229D01*
X106045491Y-66283511D01*
X105943743Y-66665688D01*
X105821011Y-67038475D01*
X105677637Y-67401336D01*
X105513963Y-67753732D01*
X105330332Y-68095126D01*
X105127087Y-68424982D01*
X104904569Y-68742763D01*
X104663121Y-69047931D01*
X104403085Y-69339949D01*
X104124803Y-69618280D01*
X103828618Y-69882386D01*
X103668413Y-70013310D01*
X103364851Y-70239444D01*
X103047279Y-70447722D01*
X102716945Y-70637617D01*
X102375102Y-70808602D01*
X102022999Y-70960148D01*
X101661888Y-71091728D01*
X101293019Y-71202814D01*
X100917643Y-71292878D01*
X100537012Y-71361394D01*
X100440231Y-71375222D01*
X100240477Y-71398192D01*
X100026563Y-71415381D01*
X99804962Y-71426606D01*
X99582149Y-71431682D01*
X99364597Y-71430426D01*
X99158781Y-71422654D01*
X99044458Y-71414855D01*
X98648937Y-71371441D01*
X98260235Y-71306177D01*
X97878813Y-71219219D01*
X97505131Y-71110724D01*
X97139649Y-70980845D01*
X96782828Y-70829741D01*
X96435128Y-70657565D01*
X96097008Y-70464473D01*
X95937604Y-70363987D01*
X95615155Y-70140782D01*
X95307958Y-69900748D01*
X95016555Y-69644655D01*
X94741487Y-69373272D01*
X94483294Y-69087368D01*
X94242518Y-68787714D01*
X94019699Y-68475078D01*
X93815378Y-68150231D01*
X93630097Y-67813941D01*
X93464395Y-67466978D01*
X93318815Y-67110112D01*
X93193896Y-66744113D01*
X93090180Y-66369749D01*
X93069686Y-66283858D01*
X93053518Y-66212473D01*
X93038043Y-66141328D01*
X93024584Y-66076706D01*
X93014464Y-66024888D01*
X93010871Y-66004548D01*
X92996251Y-65916085D01*
X92961974Y-65908091D01*
X93404504Y-65908091D01*
X93411378Y-65948596D01*
X93427692Y-66033762D01*
X93450252Y-66135690D01*
X93477727Y-66249330D01*
X93508786Y-66369634D01*
X93542097Y-66491551D01*
X93576330Y-66610032D01*
X93610152Y-66720028D01*
X93633630Y-66791511D01*
X93728171Y-67047910D01*
X93839045Y-67310239D01*
X93963110Y-67572021D01*
X94097222Y-67826779D01*
X94238241Y-68068035D01*
X94300726Y-68166791D01*
X94514013Y-68474737D01*
X94745961Y-68770441D01*
X94995006Y-69052177D01*
X95259582Y-69318218D01*
X95538124Y-69566840D01*
X95662814Y-69668767D01*
X95724388Y-69717168D01*
X95786392Y-69764868D01*
X95845927Y-69809742D01*
X95900095Y-69849666D01*
X95945997Y-69882515D01*
X95980738Y-69906163D01*
X96001417Y-69918485D01*
X96005117Y-69919768D01*
X96006038Y-69908478D01*
X96006932Y-69875270D01*
X96007794Y-69821317D01*
X96008618Y-69747791D01*
X96009400Y-69655864D01*
X96010135Y-69546709D01*
X96010817Y-69421499D01*
X96011441Y-69281407D01*
X96012002Y-69127605D01*
X96012496Y-68961265D01*
X96012917Y-68783561D01*
X96013260Y-68595665D01*
X96013520Y-68398750D01*
X96013692Y-68193987D01*
X96013771Y-67982551D01*
X96013776Y-67915734D01*
X96013776Y-67039438D01*
X96477813Y-67039438D01*
X96477853Y-67241820D01*
X96477959Y-67452947D01*
X96478132Y-67671717D01*
X96478373Y-67897027D01*
X96478452Y-67960135D01*
X96481367Y-70225577D01*
X96654549Y-70315072D01*
X97003629Y-70483306D01*
X97355486Y-70628635D01*
X97710229Y-70751091D01*
X98067967Y-70850705D01*
X98428809Y-70927509D01*
X98792863Y-70981534D01*
X99038685Y-71005007D01*
X99103408Y-71009867D01*
X99164414Y-71014520D01*
X99215806Y-71018509D01*
X99251688Y-71021381D01*
X99258049Y-71021914D01*
X99293506Y-71023578D01*
X99348208Y-71024424D01*
X99418324Y-71024526D01*
X99500026Y-71023957D01*
X99589483Y-71022792D01*
X99682866Y-71021104D01*
X99776346Y-71018967D01*
X99866092Y-71016454D01*
X99948277Y-71013640D01*
X100019069Y-71010597D01*
X100074639Y-71007400D01*
X100095094Y-71005805D01*
X100469694Y-70961976D01*
X100835156Y-70897644D01*
X101193237Y-70812319D01*
X101545699Y-70705508D01*
X101894301Y-70576722D01*
X102240801Y-70425467D01*
X102333811Y-70380915D01*
X102390436Y-70353283D01*
X102382879Y-68830255D01*
X102381900Y-68626174D01*
X102380958Y-68416533D01*
X102380061Y-68203817D01*
X102379217Y-67990510D01*
X102378434Y-67779095D01*
X102377720Y-67572055D01*
X102377083Y-67371875D01*
X102376532Y-67181038D01*
X102376074Y-67002028D01*
X102375717Y-66837327D01*
X102375470Y-66689421D01*
X102375340Y-66560792D01*
X102375322Y-66500726D01*
X102375322Y-65815920D01*
X102833969Y-65815920D01*
X102841292Y-67166738D01*
X102842305Y-67361160D01*
X102843278Y-67562379D01*
X102844200Y-67767607D01*
X102845062Y-67974059D01*
X102845854Y-68178947D01*
X102846567Y-68379485D01*
X102847192Y-68572886D01*
X102847718Y-68756363D01*
X102848136Y-68927130D01*
X102848436Y-69082400D01*
X102848609Y-69219387D01*
X102848650Y-69305678D01*
X102848685Y-70093800D01*
X102897753Y-70063091D01*
X102925508Y-70045242D01*
X102967223Y-70017824D01*
X103017758Y-69984240D01*
X103071971Y-69947894D01*
X103085367Y-69938863D01*
X103352863Y-69746175D01*
X103615253Y-69533207D01*
X103869715Y-69302657D01*
X104113426Y-69057224D01*
X104343566Y-68799604D01*
X104557312Y-68532497D01*
X104559874Y-68529102D01*
X104665619Y-68383451D01*
X104773183Y-68225250D01*
X104878861Y-68060425D01*
X104978948Y-67894902D01*
X105069742Y-67734607D01*
X105139225Y-67602150D01*
X105266994Y-67330724D01*
X105383439Y-67049535D01*
X105487372Y-66762425D01*
X105577605Y-66473233D01*
X105652951Y-66185802D01*
X105712220Y-65903972D01*
X105754225Y-65631585D01*
X105757745Y-65602329D01*
X105763939Y-65551503D01*
X105769829Y-65506988D01*
X105774514Y-65475448D01*
X105776113Y-65466670D01*
X105781671Y-65440693D01*
X103210553Y-65440693D01*
X103153733Y-65478215D01*
X103100205Y-65518777D01*
X103039855Y-65572993D01*
X102978435Y-65635149D01*
X102921696Y-65699534D01*
X102889311Y-65740874D01*
X102833969Y-65815920D01*
X102375322Y-65815920D01*
X102375322Y-65694225D01*
X102314708Y-65729908D01*
X102178525Y-65801176D01*
X102021326Y-65867523D01*
X101844692Y-65928788D01*
X101650201Y-65984808D01*
X101439433Y-66035423D01*
X101213968Y-66080471D01*
X100975385Y-66119791D01*
X100725265Y-66153221D01*
X100465185Y-66180599D01*
X100196727Y-66201765D01*
X99921470Y-66216556D01*
X99640992Y-66224812D01*
X99356874Y-66226370D01*
X99070696Y-66221069D01*
X98784036Y-66208748D01*
X98498475Y-66189245D01*
X98215592Y-66162400D01*
X98152890Y-66155379D01*
X97931158Y-66126639D01*
X97716323Y-66092487D01*
X97510407Y-66053447D01*
X97315435Y-66010044D01*
X97133431Y-65962802D01*
X96966421Y-65912246D01*
X96816426Y-65858902D01*
X96685473Y-65803294D01*
X96577099Y-65746835D01*
X96536906Y-65723671D01*
X96504631Y-65705793D01*
X96485136Y-65695861D01*
X96481820Y-65694693D01*
X96481205Y-65706054D01*
X96480636Y-65739403D01*
X96480114Y-65793636D01*
X96479641Y-65867649D01*
X96479219Y-65960340D01*
X96478848Y-66070603D01*
X96478531Y-66197337D01*
X96478270Y-66339438D01*
X96478066Y-66495802D01*
X96477921Y-66665325D01*
X96477836Y-66846905D01*
X96477813Y-67039438D01*
X96013776Y-67039438D01*
X96013776Y-65911140D01*
X95978244Y-65841217D01*
X95920867Y-65740899D01*
X95854167Y-65649643D01*
X95773437Y-65561523D01*
X95706174Y-65498634D01*
X95627895Y-65429147D01*
X94187410Y-65429147D01*
X94104797Y-65517792D01*
X93993027Y-65623429D01*
X93867519Y-65716677D01*
X93732991Y-65794675D01*
X93594161Y-65854557D01*
X93504367Y-65882275D01*
X93404504Y-65908091D01*
X92961974Y-65908091D01*
X92892648Y-65891923D01*
X92731879Y-65843389D01*
X92582322Y-65775145D01*
X92442919Y-65686577D01*
X92312612Y-65577071D01*
X92261483Y-65525888D01*
X92189830Y-65445589D01*
X92131393Y-65367433D01*
X92079467Y-65281892D01*
X92049417Y-65224594D01*
X91984399Y-65070902D01*
X91941256Y-64914712D01*
X91919151Y-64757687D01*
X91918163Y-64676665D01*
X92182908Y-64676665D01*
X92184329Y-64724874D01*
X92203313Y-64874856D01*
X92242982Y-65016379D01*
X92302008Y-65147952D01*
X92379060Y-65268084D01*
X92472809Y-65375285D01*
X92581927Y-65468062D01*
X92705084Y-65544926D01*
X92840950Y-65604386D01*
X92988197Y-65644950D01*
X93008030Y-65648744D01*
X93074887Y-65655913D01*
X93156199Y-65657001D01*
X93244287Y-65652513D01*
X93331475Y-65642958D01*
X93410086Y-65628841D01*
X93444913Y-65619899D01*
X93585615Y-65567082D01*
X93713896Y-65495346D01*
X93828570Y-65405946D01*
X93928452Y-65300135D01*
X94012356Y-65179167D01*
X94079098Y-65044297D01*
X94104397Y-64967329D01*
X94406455Y-64967329D01*
X95939084Y-64967329D01*
X95959157Y-65023848D01*
X96000932Y-65108776D01*
X96065185Y-65192374D01*
X96151315Y-65274102D01*
X96258723Y-65353419D01*
X96386808Y-65429786D01*
X96442012Y-65458540D01*
X96600631Y-65530931D01*
X96779763Y-65599464D01*
X96977063Y-65663540D01*
X97190184Y-65722558D01*
X97416780Y-65775917D01*
X97654506Y-65823018D01*
X97901014Y-65863259D01*
X98149685Y-65895557D01*
X98335719Y-65915390D01*
X98514737Y-65931652D01*
X98690391Y-65944465D01*
X98866336Y-65953950D01*
X99046224Y-65960227D01*
X99233709Y-65963416D01*
X99432444Y-65963638D01*
X99646081Y-65961014D01*
X99878275Y-65955664D01*
X99927685Y-65954266D01*
X100210293Y-65941480D01*
X100492171Y-65919852D01*
X100770635Y-65889849D01*
X101043000Y-65851938D01*
X101306581Y-65806587D01*
X101558695Y-65754264D01*
X101796657Y-65695436D01*
X102017782Y-65630570D01*
X102219385Y-65560134D01*
X102242490Y-65551192D01*
X102409855Y-65479522D01*
X102554697Y-65404290D01*
X102677346Y-65325252D01*
X102778131Y-65242162D01*
X102857380Y-65154777D01*
X102915423Y-65062852D01*
X102924099Y-65044814D01*
X102954287Y-64978874D01*
X105801435Y-64978874D01*
X105808651Y-64942795D01*
X105812852Y-64909917D01*
X105815454Y-64866701D01*
X105815867Y-64843653D01*
X105815867Y-64780592D01*
X102700199Y-64788374D01*
X102692258Y-64857647D01*
X102680211Y-64921648D01*
X102657947Y-64975045D01*
X102621646Y-65024867D01*
X102577128Y-65069448D01*
X102490873Y-65136958D01*
X102382789Y-65202252D01*
X102254063Y-65264952D01*
X102105884Y-65324686D01*
X101939439Y-65381078D01*
X101755917Y-65433755D01*
X101556505Y-65482341D01*
X101342392Y-65526461D01*
X101114765Y-65565742D01*
X100909049Y-65595375D01*
X100705576Y-65620330D01*
X100508070Y-65640656D01*
X100311698Y-65656643D01*
X100111628Y-65668579D01*
X99903030Y-65676754D01*
X99681070Y-65681458D01*
X99446943Y-65682979D01*
X99217833Y-65681714D01*
X99006521Y-65677528D01*
X98807863Y-65670114D01*
X98616716Y-65659166D01*
X98427935Y-65644380D01*
X98236378Y-65625448D01*
X98036898Y-65602066D01*
X97993373Y-65596542D01*
X97765043Y-65563864D01*
X97547479Y-65526038D01*
X97341843Y-65483470D01*
X97149298Y-65436569D01*
X96971008Y-65385739D01*
X96808135Y-65331389D01*
X96661842Y-65273924D01*
X96533293Y-65213752D01*
X96423650Y-65151279D01*
X96334076Y-65086911D01*
X96265734Y-65021056D01*
X96236067Y-64982010D01*
X96222336Y-64947687D01*
X96212838Y-64894899D01*
X96210049Y-64864014D01*
X96204276Y-64776829D01*
X96059958Y-64778701D01*
X96022661Y-64779162D01*
X95964739Y-64779847D01*
X95888656Y-64780729D01*
X95796877Y-64781779D01*
X95691866Y-64782969D01*
X95576087Y-64784272D01*
X95452005Y-64785660D01*
X95322085Y-64787104D01*
X95188790Y-64788577D01*
X95175150Y-64788728D01*
X94434661Y-64796882D01*
X94426937Y-64856128D01*
X94421170Y-64895947D01*
X94415279Y-64929930D01*
X94412834Y-64941352D01*
X94406455Y-64967329D01*
X94104397Y-64967329D01*
X94127168Y-64898056D01*
X94142983Y-64808186D01*
X94149491Y-64705718D01*
X94146887Y-64599098D01*
X94135366Y-64496775D01*
X94115887Y-64409723D01*
X94060849Y-64263553D01*
X93987933Y-64131340D01*
X93898148Y-64014072D01*
X93792504Y-63912737D01*
X93672013Y-63828324D01*
X93537683Y-63761821D01*
X93410276Y-63719284D01*
X93324349Y-63702900D01*
X93225238Y-63694496D01*
X93121431Y-63694069D01*
X93021414Y-63701621D01*
X92933671Y-63717150D01*
X92925367Y-63719284D01*
X92782440Y-63768580D01*
X92651638Y-63836194D01*
X92534239Y-63920391D01*
X92431522Y-64019436D01*
X92344765Y-64131595D01*
X92275246Y-64255132D01*
X92224245Y-64388312D01*
X92193040Y-64529402D01*
X92182908Y-64676665D01*
X91918163Y-64676665D01*
X91917246Y-64601488D01*
X91934705Y-64447778D01*
X91970688Y-64298221D01*
X92024360Y-64154479D01*
X92094882Y-64018213D01*
X92181417Y-63891088D01*
X92283128Y-63774764D01*
X92399176Y-63670906D01*
X92528725Y-63581176D01*
X92670936Y-63507236D01*
X92824974Y-63450748D01*
X92959103Y-63418695D01*
X92982741Y-63412995D01*
X93450685Y-63412995D01*
X93461312Y-63424347D01*
X93490220Y-63437575D01*
X93524016Y-63448206D01*
X93648448Y-63491237D01*
X93775238Y-63552437D01*
X93898415Y-63628440D01*
X94012004Y-63715880D01*
X94035050Y-63736259D01*
X94118250Y-63821803D01*
X94197759Y-63922305D01*
X94269314Y-64031303D01*
X94328654Y-64142335D01*
X94369847Y-64243862D01*
X94400393Y-64335585D01*
X95204198Y-64327106D01*
X95338218Y-64325653D01*
X95465325Y-64324200D01*
X95583658Y-64322774D01*
X95691355Y-64321398D01*
X95786556Y-64320101D01*
X95867398Y-64318907D01*
X95932021Y-64317844D01*
X95978563Y-64316936D01*
X96005163Y-64316210D01*
X96010918Y-64315828D01*
X96011191Y-64304185D01*
X96011428Y-64270537D01*
X96011631Y-64215970D01*
X96011799Y-64141571D01*
X96011931Y-64048425D01*
X96012029Y-63937618D01*
X96012091Y-63810237D01*
X96012119Y-63667367D01*
X96012111Y-63510095D01*
X96012068Y-63339506D01*
X96011990Y-63156688D01*
X96011877Y-62962724D01*
X96011729Y-62758703D01*
X96011546Y-62545710D01*
X96011328Y-62324830D01*
X96011075Y-62097151D01*
X96010918Y-61966948D01*
X96008003Y-59620865D01*
X95921413Y-59681442D01*
X95760654Y-59799792D01*
X95592900Y-59934201D01*
X95422579Y-60080659D01*
X95254113Y-60235155D01*
X95091930Y-60393679D01*
X94940454Y-60552219D01*
X94853207Y-60649508D01*
X94612714Y-60940872D01*
X94393674Y-61239547D01*
X94195208Y-61547079D01*
X94016438Y-61865015D01*
X93856482Y-62194899D01*
X93714463Y-62538279D01*
X93608740Y-62837193D01*
X93588492Y-62900799D01*
X93566591Y-62972856D01*
X93544038Y-63049714D01*
X93521836Y-63127723D01*
X93500985Y-63203236D01*
X93482488Y-63272602D01*
X93467346Y-63332172D01*
X93456561Y-63378298D01*
X93451134Y-63407330D01*
X93450685Y-63412995D01*
X92982741Y-63412995D01*
X93008689Y-63406738D01*
X93035473Y-63393366D01*
X93040163Y-63386521D01*
X93044760Y-63368465D01*
X93053177Y-63333113D01*
X93064184Y-63285698D01*
X93075635Y-63235511D01*
X93152228Y-62937918D01*
X93248150Y-62634374D01*
X93361794Y-62328678D01*
X93491558Y-62024627D01*
X93635837Y-61726020D01*
X93793026Y-61436655D01*
X93933867Y-61203511D01*
X94146808Y-60888953D01*
X94379316Y-60585165D01*
X94629750Y-60293863D01*
X94896473Y-60016764D01*
X95177842Y-59755584D01*
X95472219Y-59512040D01*
X95725260Y-59324925D01*
X96475594Y-59324925D01*
X96475594Y-64896094D01*
X96528585Y-64942738D01*
X96577103Y-64978556D01*
X96643654Y-65017592D01*
X96723824Y-65057644D01*
X96813201Y-65096513D01*
X96907371Y-65131997D01*
X96909803Y-65132841D01*
X97096582Y-65191022D01*
X97303905Y-65243717D01*
X97529839Y-65290746D01*
X97772456Y-65331933D01*
X98029825Y-65367099D01*
X98300016Y-65396065D01*
X98581100Y-65418655D01*
X98871146Y-65434690D01*
X99168224Y-65443993D01*
X99470404Y-65446384D01*
X99775757Y-65441687D01*
X100082352Y-65429724D01*
X100112413Y-65428153D01*
X100367113Y-65411547D01*
X100615269Y-65389475D01*
X100854860Y-65362278D01*
X101083864Y-65330300D01*
X101300261Y-65293886D01*
X101502030Y-65253377D01*
X101687150Y-65209118D01*
X101853600Y-65161453D01*
X101999361Y-65110724D01*
X102014128Y-65104938D01*
X102100558Y-65068008D01*
X102182082Y-65028201D01*
X102253668Y-64988217D01*
X102310286Y-64950757D01*
X102328959Y-64935941D01*
X102377893Y-64894056D01*
X102369424Y-62595624D01*
X102362054Y-60595123D01*
X102821813Y-60595123D01*
X102829469Y-61658430D01*
X102830663Y-61831932D01*
X102831799Y-62012298D01*
X102832864Y-62196334D01*
X102833844Y-62380848D01*
X102834724Y-62562646D01*
X102835489Y-62738535D01*
X102836126Y-62905323D01*
X102836619Y-63059817D01*
X102836955Y-63198823D01*
X102837119Y-63319148D01*
X102837133Y-63359414D01*
X102837140Y-63997091D01*
X102926617Y-64087348D01*
X102998668Y-64155998D01*
X103068412Y-64212778D01*
X103145732Y-64265431D01*
X103183302Y-64288452D01*
X103235458Y-64319620D01*
X104515705Y-64320202D01*
X105795952Y-64320783D01*
X105788173Y-64219761D01*
X105758266Y-63938372D01*
X105711648Y-63647295D01*
X105649473Y-63351472D01*
X105572896Y-63055843D01*
X105483069Y-62765350D01*
X105385719Y-62496602D01*
X105255991Y-62190333D01*
X105107894Y-61887812D01*
X104943294Y-61591977D01*
X104764057Y-61305766D01*
X104572049Y-61032118D01*
X104369136Y-60773971D01*
X104157184Y-60534263D01*
X104104539Y-60479144D01*
X104012239Y-60384005D01*
X103918258Y-60446110D01*
X103800053Y-60517565D01*
X103685160Y-60572159D01*
X103565567Y-60613153D01*
X103433259Y-60643809D01*
X103431731Y-60644096D01*
X103326493Y-60656825D01*
X103209612Y-60659133D01*
X103089860Y-60651382D01*
X102976011Y-60633933D01*
X102930499Y-60623395D01*
X102821813Y-60595123D01*
X102362054Y-60595123D01*
X102360956Y-60297193D01*
X102312735Y-60245238D01*
X102222125Y-60131636D01*
X102144921Y-60001674D01*
X102082793Y-59858878D01*
X102037415Y-59706775D01*
X102022219Y-59632331D01*
X102011405Y-59537635D01*
X102008592Y-59431016D01*
X102010408Y-59390874D01*
X102229045Y-59390874D01*
X102231893Y-59538826D01*
X102255662Y-59680353D01*
X102298739Y-59814077D01*
X102359513Y-59938619D01*
X102436371Y-60052599D01*
X102527700Y-60154638D01*
X102631889Y-60243356D01*
X102747325Y-60317376D01*
X102872396Y-60375316D01*
X103005489Y-60415799D01*
X103144992Y-60437444D01*
X103289294Y-60438872D01*
X103431754Y-60419756D01*
X103577524Y-60378324D01*
X103712561Y-60317129D01*
X103835467Y-60237527D01*
X103944845Y-60140876D01*
X104039297Y-60028531D01*
X104117426Y-59901848D01*
X104177835Y-59762184D01*
X104206211Y-59667965D01*
X104220330Y-59588626D01*
X104227391Y-59495451D01*
X104227481Y-59396563D01*
X104220690Y-59300082D01*
X104207107Y-59214132D01*
X104200978Y-59188829D01*
X104150272Y-59043694D01*
X104080176Y-58909921D01*
X103992018Y-58789110D01*
X103887130Y-58682863D01*
X103766842Y-58592781D01*
X103653913Y-58530320D01*
X103563428Y-58492005D01*
X103476118Y-58465595D01*
X103384648Y-58449555D01*
X103281685Y-58442352D01*
X103229685Y-58441585D01*
X103124830Y-58444486D01*
X103034631Y-58454716D01*
X102951320Y-58474083D01*
X102867132Y-58504395D01*
X102774301Y-58547461D01*
X102773640Y-58547793D01*
X102645294Y-58623726D01*
X102534331Y-58714342D01*
X102439388Y-58821003D01*
X102359102Y-58945069D01*
X102340124Y-58981011D01*
X102290751Y-59090169D01*
X102257163Y-59194023D01*
X102236945Y-59301480D01*
X102229045Y-59390874D01*
X102010408Y-59390874D01*
X102013519Y-59322114D01*
X102025927Y-59220570D01*
X102034462Y-59177283D01*
X102044691Y-59132239D01*
X102053651Y-59092340D01*
X102059320Y-59066612D01*
X102060798Y-59055714D01*
X102058140Y-59046277D01*
X102048529Y-59036700D01*
X102029147Y-59025385D01*
X101997177Y-59010736D01*
X101949803Y-58991152D01*
X101884206Y-58965036D01*
X101871272Y-58959923D01*
X101562430Y-58846184D01*
X101256563Y-58750710D01*
X100949113Y-58672445D01*
X100635522Y-58610337D01*
X100311231Y-58563329D01*
X100037367Y-58535580D01*
X99959499Y-58530573D01*
X99863656Y-58526764D01*
X99754759Y-58524154D01*
X99637730Y-58522744D01*
X99517490Y-58522533D01*
X99398960Y-58523522D01*
X99287061Y-58525711D01*
X99186717Y-58529101D01*
X99102847Y-58533692D01*
X99079094Y-58535515D01*
X98702905Y-58576924D01*
X98339237Y-58636986D01*
X97986334Y-58716206D01*
X97642440Y-58815086D01*
X97305801Y-58934132D01*
X96974660Y-59073846D01*
X96651663Y-59232420D01*
X96475594Y-59324925D01*
X95725260Y-59324925D01*
X95736048Y-59316948D01*
X95792851Y-59277552D01*
X95849209Y-59239134D01*
X95899548Y-59205451D01*
X95938291Y-59180260D01*
X95946752Y-59174962D01*
X95980385Y-59152856D01*
X96004442Y-59134476D01*
X96013774Y-59123758D01*
X96013776Y-59123688D01*
X96022599Y-59114051D01*
X96025245Y-59113783D01*
X96038477Y-59108249D01*
X96068239Y-59092873D01*
X96111143Y-59069499D01*
X96163803Y-59039970D01*
X96218632Y-59008561D01*
X96562310Y-58822508D01*
X96912546Y-58658237D01*
X97269943Y-58515560D01*
X97635102Y-58394290D01*
X98008624Y-58294241D01*
X98391112Y-58215223D01*
X98783167Y-58157051D01*
X99038685Y-58130734D01*
X99115267Y-58125654D01*
X99210279Y-58121719D01*
X99319091Y-58118929D01*
X99437072Y-58117282D01*
X99559589Y-58116779D01*
X99682011Y-58117419D01*
G04 #@! TO.C,U1*
D12*
X186283738Y-46814785D02*
X186450404Y-46457642D01*
X186569452Y-46814785D02*
X186569452Y-46064785D01*
X186378976Y-46064785D01*
X186331357Y-46100500D01*
X186307547Y-46136214D01*
X186283738Y-46207642D01*
X186283738Y-46314785D01*
X186307547Y-46386214D01*
X186331357Y-46421928D01*
X186378976Y-46457642D01*
X186569452Y-46457642D01*
X186093261Y-46600500D02*
X185855166Y-46600500D01*
X186140880Y-46814785D02*
X185974214Y-46064785D01*
X185807547Y-46814785D01*
X185688500Y-46064785D02*
X185569452Y-46814785D01*
X185474214Y-46279071D01*
X185378976Y-46814785D01*
X185259928Y-46064785D01*
X171019928Y-46814785D02*
X171258023Y-46814785D01*
X171258023Y-46064785D01*
X170853261Y-46421928D02*
X170686595Y-46421928D01*
X170615166Y-46814785D02*
X170853261Y-46814785D01*
X170853261Y-46064785D01*
X170615166Y-46064785D01*
X170400880Y-46814785D02*
X170400880Y-46064785D01*
X170281833Y-46064785D01*
X170210404Y-46100500D01*
X170162785Y-46171928D01*
X170138976Y-46243357D01*
X170115166Y-46386214D01*
X170115166Y-46493357D01*
X170138976Y-46636214D01*
X170162785Y-46707642D01*
X170210404Y-46779071D01*
X170281833Y-46814785D01*
X170400880Y-46814785D01*
X186255952Y-48577000D02*
X186303571Y-48541285D01*
X186375000Y-48541285D01*
X186446428Y-48577000D01*
X186494047Y-48648428D01*
X186517857Y-48719857D01*
X186541666Y-48862714D01*
X186541666Y-48969857D01*
X186517857Y-49112714D01*
X186494047Y-49184142D01*
X186446428Y-49255571D01*
X186375000Y-49291285D01*
X186327380Y-49291285D01*
X186255952Y-49255571D01*
X186232142Y-49219857D01*
X186232142Y-48969857D01*
X186327380Y-48969857D01*
X186017857Y-49291285D02*
X186017857Y-48541285D01*
X185732142Y-49291285D01*
X185732142Y-48541285D01*
X185494047Y-49291285D02*
X185494047Y-48541285D01*
X185375000Y-48541285D01*
X185303571Y-48577000D01*
X185255952Y-48648428D01*
X185232142Y-48719857D01*
X185208333Y-48862714D01*
X185208333Y-48969857D01*
X185232142Y-49112714D01*
X185255952Y-49184142D01*
X185303571Y-49255571D01*
X185375000Y-49291285D01*
X185494047Y-49291285D01*
X171297500Y-49459285D02*
X171297500Y-48709285D01*
X171178452Y-48709285D01*
X171107023Y-48745000D01*
X171059404Y-48816428D01*
X171035595Y-48887857D01*
X171011785Y-49030714D01*
X171011785Y-49137857D01*
X171035595Y-49280714D01*
X171059404Y-49352142D01*
X171107023Y-49423571D01*
X171178452Y-49459285D01*
X171297500Y-49459285D01*
X170821309Y-49245000D02*
X170583214Y-49245000D01*
X170868928Y-49459285D02*
X170702261Y-48709285D01*
X170535595Y-49459285D01*
X170440357Y-48709285D02*
X170154642Y-48709285D01*
X170297500Y-49459285D02*
X170297500Y-48709285D01*
X170011785Y-49245000D02*
X169773690Y-49245000D01*
X170059404Y-49459285D02*
X169892738Y-48709285D01*
X169726071Y-49459285D01*
X186212309Y-51894785D02*
X186378976Y-51537642D01*
X186498023Y-51894785D02*
X186498023Y-51144785D01*
X186307547Y-51144785D01*
X186259928Y-51180500D01*
X186236119Y-51216214D01*
X186212309Y-51287642D01*
X186212309Y-51394785D01*
X186236119Y-51466214D01*
X186259928Y-51501928D01*
X186307547Y-51537642D01*
X186498023Y-51537642D01*
X186021833Y-51859071D02*
X185950404Y-51894785D01*
X185831357Y-51894785D01*
X185783738Y-51859071D01*
X185759928Y-51823357D01*
X185736119Y-51751928D01*
X185736119Y-51680500D01*
X185759928Y-51609071D01*
X185783738Y-51573357D01*
X185831357Y-51537642D01*
X185926595Y-51501928D01*
X185974214Y-51466214D01*
X185998023Y-51430500D01*
X186021833Y-51359071D01*
X186021833Y-51287642D01*
X185998023Y-51216214D01*
X185974214Y-51180500D01*
X185926595Y-51144785D01*
X185807547Y-51144785D01*
X185736119Y-51180500D01*
X185593261Y-51144785D02*
X185307547Y-51144785D01*
X185450404Y-51894785D02*
X185450404Y-51144785D01*
X171079452Y-51180500D02*
X171127071Y-51144785D01*
X171198500Y-51144785D01*
X171269928Y-51180500D01*
X171317547Y-51251928D01*
X171341357Y-51323357D01*
X171365166Y-51466214D01*
X171365166Y-51573357D01*
X171341357Y-51716214D01*
X171317547Y-51787642D01*
X171269928Y-51859071D01*
X171198500Y-51894785D01*
X171150880Y-51894785D01*
X171079452Y-51859071D01*
X171055642Y-51823357D01*
X171055642Y-51573357D01*
X171150880Y-51573357D01*
X170841357Y-51894785D02*
X170841357Y-51144785D01*
X170555642Y-51894785D01*
X170555642Y-51144785D01*
X170317547Y-51894785D02*
X170317547Y-51144785D01*
X170198500Y-51144785D01*
X170127071Y-51180500D01*
X170079452Y-51251928D01*
X170055642Y-51323357D01*
X170031833Y-51466214D01*
X170031833Y-51573357D01*
X170055642Y-51716214D01*
X170079452Y-51787642D01*
X170127071Y-51859071D01*
X170198500Y-51894785D01*
X170317547Y-51894785D01*
X186541666Y-53684785D02*
X186375000Y-54434785D01*
X186208333Y-53684785D01*
X185755952Y-54363357D02*
X185779761Y-54399071D01*
X185851190Y-54434785D01*
X185898809Y-54434785D01*
X185970238Y-54399071D01*
X186017857Y-54327642D01*
X186041666Y-54256214D01*
X186065476Y-54113357D01*
X186065476Y-54006214D01*
X186041666Y-53863357D01*
X186017857Y-53791928D01*
X185970238Y-53720500D01*
X185898809Y-53684785D01*
X185851190Y-53684785D01*
X185779761Y-53720500D01*
X185755952Y-53756214D01*
X185255952Y-54363357D02*
X185279761Y-54399071D01*
X185351190Y-54434785D01*
X185398809Y-54434785D01*
X185470238Y-54399071D01*
X185517857Y-54327642D01*
X185541666Y-54256214D01*
X185565476Y-54113357D01*
X185565476Y-54006214D01*
X185541666Y-53863357D01*
X185517857Y-53791928D01*
X185470238Y-53720500D01*
X185398809Y-53684785D01*
X185351190Y-53684785D01*
X185279761Y-53720500D01*
X185255952Y-53756214D01*
X171079452Y-53720500D02*
X171127071Y-53684785D01*
X171198500Y-53684785D01*
X171269928Y-53720500D01*
X171317547Y-53791928D01*
X171341357Y-53863357D01*
X171365166Y-54006214D01*
X171365166Y-54113357D01*
X171341357Y-54256214D01*
X171317547Y-54327642D01*
X171269928Y-54399071D01*
X171198500Y-54434785D01*
X171150880Y-54434785D01*
X171079452Y-54399071D01*
X171055642Y-54363357D01*
X171055642Y-54113357D01*
X171150880Y-54113357D01*
X170841357Y-54434785D02*
X170841357Y-53684785D01*
X170555642Y-54434785D01*
X170555642Y-53684785D01*
X170317547Y-54434785D02*
X170317547Y-53684785D01*
X170198500Y-53684785D01*
X170127071Y-53720500D01*
X170079452Y-53791928D01*
X170055642Y-53863357D01*
X170031833Y-54006214D01*
X170031833Y-54113357D01*
X170055642Y-54256214D01*
X170079452Y-54327642D01*
X170127071Y-54399071D01*
X170198500Y-54434785D01*
X170317547Y-54434785D01*
X186295119Y-64487857D02*
X186318928Y-64523571D01*
X186390357Y-64559285D01*
X186437976Y-64559285D01*
X186509404Y-64523571D01*
X186557023Y-64452142D01*
X186580833Y-64380714D01*
X186604642Y-64237857D01*
X186604642Y-64130714D01*
X186580833Y-63987857D01*
X186557023Y-63916428D01*
X186509404Y-63845000D01*
X186437976Y-63809285D01*
X186390357Y-63809285D01*
X186318928Y-63845000D01*
X186295119Y-63880714D01*
X185985595Y-63809285D02*
X185890357Y-63809285D01*
X185842738Y-63845000D01*
X185795119Y-63916428D01*
X185771309Y-64059285D01*
X185771309Y-64309285D01*
X185795119Y-64452142D01*
X185842738Y-64523571D01*
X185890357Y-64559285D01*
X185985595Y-64559285D01*
X186033214Y-64523571D01*
X186080833Y-64452142D01*
X186104642Y-64309285D01*
X186104642Y-64059285D01*
X186080833Y-63916428D01*
X186033214Y-63845000D01*
X185985595Y-63809285D01*
X185318928Y-64559285D02*
X185557023Y-64559285D01*
X185557023Y-63809285D01*
X185199880Y-63809285D02*
X184890357Y-63809285D01*
X185057023Y-64095000D01*
X184985595Y-64095000D01*
X184937976Y-64130714D01*
X184914166Y-64166428D01*
X184890357Y-64237857D01*
X184890357Y-64416428D01*
X184914166Y-64487857D01*
X184937976Y-64523571D01*
X184985595Y-64559285D01*
X185128452Y-64559285D01*
X185176071Y-64523571D01*
X185199880Y-64487857D01*
X171078452Y-61991285D02*
X171245119Y-61634142D01*
X171364166Y-61991285D02*
X171364166Y-61241285D01*
X171173690Y-61241285D01*
X171126071Y-61277000D01*
X171102261Y-61312714D01*
X171078452Y-61384142D01*
X171078452Y-61491285D01*
X171102261Y-61562714D01*
X171126071Y-61598428D01*
X171173690Y-61634142D01*
X171364166Y-61634142D01*
X170768928Y-61241285D02*
X170673690Y-61241285D01*
X170626071Y-61277000D01*
X170578452Y-61348428D01*
X170554642Y-61491285D01*
X170554642Y-61741285D01*
X170578452Y-61884142D01*
X170626071Y-61955571D01*
X170673690Y-61991285D01*
X170768928Y-61991285D01*
X170816547Y-61955571D01*
X170864166Y-61884142D01*
X170887976Y-61741285D01*
X170887976Y-61491285D01*
X170864166Y-61348428D01*
X170816547Y-61277000D01*
X170768928Y-61241285D01*
X170387976Y-61241285D02*
X170268928Y-61991285D01*
X170173690Y-61455571D01*
X170078452Y-61991285D01*
X169959404Y-61241285D01*
X169673690Y-61241285D02*
X169626071Y-61241285D01*
X169578452Y-61277000D01*
X169554642Y-61312714D01*
X169530833Y-61384142D01*
X169507023Y-61527000D01*
X169507023Y-61705571D01*
X169530833Y-61848428D01*
X169554642Y-61919857D01*
X169578452Y-61955571D01*
X169626071Y-61991285D01*
X169673690Y-61991285D01*
X169721309Y-61955571D01*
X169745119Y-61919857D01*
X169768928Y-61848428D01*
X169792738Y-61705571D01*
X169792738Y-61527000D01*
X169768928Y-61384142D01*
X169745119Y-61312714D01*
X169721309Y-61277000D01*
X169673690Y-61241285D01*
X186295119Y-61987857D02*
X186318928Y-62023571D01*
X186390357Y-62059285D01*
X186437976Y-62059285D01*
X186509404Y-62023571D01*
X186557023Y-61952142D01*
X186580833Y-61880714D01*
X186604642Y-61737857D01*
X186604642Y-61630714D01*
X186580833Y-61487857D01*
X186557023Y-61416428D01*
X186509404Y-61345000D01*
X186437976Y-61309285D01*
X186390357Y-61309285D01*
X186318928Y-61345000D01*
X186295119Y-61380714D01*
X185985595Y-61309285D02*
X185890357Y-61309285D01*
X185842738Y-61345000D01*
X185795119Y-61416428D01*
X185771309Y-61559285D01*
X185771309Y-61809285D01*
X185795119Y-61952142D01*
X185842738Y-62023571D01*
X185890357Y-62059285D01*
X185985595Y-62059285D01*
X186033214Y-62023571D01*
X186080833Y-61952142D01*
X186104642Y-61809285D01*
X186104642Y-61559285D01*
X186080833Y-61416428D01*
X186033214Y-61345000D01*
X185985595Y-61309285D01*
X185318928Y-62059285D02*
X185557023Y-62059285D01*
X185557023Y-61309285D01*
X185176071Y-61380714D02*
X185152261Y-61345000D01*
X185104642Y-61309285D01*
X184985595Y-61309285D01*
X184937976Y-61345000D01*
X184914166Y-61380714D01*
X184890357Y-61452142D01*
X184890357Y-61523571D01*
X184914166Y-61630714D01*
X185199880Y-62059285D01*
X184890357Y-62059285D01*
X171293738Y-59479071D02*
X171222309Y-59514785D01*
X171103261Y-59514785D01*
X171055642Y-59479071D01*
X171031833Y-59443357D01*
X171008023Y-59371928D01*
X171008023Y-59300500D01*
X171031833Y-59229071D01*
X171055642Y-59193357D01*
X171103261Y-59157642D01*
X171198500Y-59121928D01*
X171246119Y-59086214D01*
X171269928Y-59050500D01*
X171293738Y-58979071D01*
X171293738Y-58907642D01*
X171269928Y-58836214D01*
X171246119Y-58800500D01*
X171198500Y-58764785D01*
X171079452Y-58764785D01*
X171008023Y-58800500D01*
X170508023Y-59443357D02*
X170531833Y-59479071D01*
X170603261Y-59514785D01*
X170650880Y-59514785D01*
X170722309Y-59479071D01*
X170769928Y-59407642D01*
X170793738Y-59336214D01*
X170817547Y-59193357D01*
X170817547Y-59086214D01*
X170793738Y-58943357D01*
X170769928Y-58871928D01*
X170722309Y-58800500D01*
X170650880Y-58764785D01*
X170603261Y-58764785D01*
X170531833Y-58800500D01*
X170508023Y-58836214D01*
X170055642Y-59514785D02*
X170293738Y-59514785D01*
X170293738Y-58764785D01*
X186295119Y-59443357D02*
X186318928Y-59479071D01*
X186390357Y-59514785D01*
X186437976Y-59514785D01*
X186509404Y-59479071D01*
X186557023Y-59407642D01*
X186580833Y-59336214D01*
X186604642Y-59193357D01*
X186604642Y-59086214D01*
X186580833Y-58943357D01*
X186557023Y-58871928D01*
X186509404Y-58800500D01*
X186437976Y-58764785D01*
X186390357Y-58764785D01*
X186318928Y-58800500D01*
X186295119Y-58836214D01*
X185985595Y-58764785D02*
X185890357Y-58764785D01*
X185842738Y-58800500D01*
X185795119Y-58871928D01*
X185771309Y-59014785D01*
X185771309Y-59264785D01*
X185795119Y-59407642D01*
X185842738Y-59479071D01*
X185890357Y-59514785D01*
X185985595Y-59514785D01*
X186033214Y-59479071D01*
X186080833Y-59407642D01*
X186104642Y-59264785D01*
X186104642Y-59014785D01*
X186080833Y-58871928D01*
X186033214Y-58800500D01*
X185985595Y-58764785D01*
X185318928Y-59514785D02*
X185557023Y-59514785D01*
X185557023Y-58764785D01*
X184890357Y-59514785D02*
X185176071Y-59514785D01*
X185033214Y-59514785D02*
X185033214Y-58764785D01*
X185080833Y-58871928D01*
X185128452Y-58943357D01*
X185176071Y-58979071D01*
X171305642Y-56939071D02*
X171234214Y-56974785D01*
X171115166Y-56974785D01*
X171067547Y-56939071D01*
X171043738Y-56903357D01*
X171019928Y-56831928D01*
X171019928Y-56760500D01*
X171043738Y-56689071D01*
X171067547Y-56653357D01*
X171115166Y-56617642D01*
X171210404Y-56581928D01*
X171258023Y-56546214D01*
X171281833Y-56510500D01*
X171305642Y-56439071D01*
X171305642Y-56367642D01*
X171281833Y-56296214D01*
X171258023Y-56260500D01*
X171210404Y-56224785D01*
X171091357Y-56224785D01*
X171019928Y-56260500D01*
X170805642Y-56974785D02*
X170805642Y-56224785D01*
X170686595Y-56224785D01*
X170615166Y-56260500D01*
X170567547Y-56331928D01*
X170543738Y-56403357D01*
X170519928Y-56546214D01*
X170519928Y-56653357D01*
X170543738Y-56796214D01*
X170567547Y-56867642D01*
X170615166Y-56939071D01*
X170686595Y-56974785D01*
X170805642Y-56974785D01*
X170329452Y-56760500D02*
X170091357Y-56760500D01*
X170377071Y-56974785D02*
X170210404Y-56224785D01*
X170043738Y-56974785D01*
X186295119Y-56937857D02*
X186318928Y-56973571D01*
X186390357Y-57009285D01*
X186437976Y-57009285D01*
X186509404Y-56973571D01*
X186557023Y-56902142D01*
X186580833Y-56830714D01*
X186604642Y-56687857D01*
X186604642Y-56580714D01*
X186580833Y-56437857D01*
X186557023Y-56366428D01*
X186509404Y-56295000D01*
X186437976Y-56259285D01*
X186390357Y-56259285D01*
X186318928Y-56295000D01*
X186295119Y-56330714D01*
X185985595Y-56259285D02*
X185890357Y-56259285D01*
X185842738Y-56295000D01*
X185795119Y-56366428D01*
X185771309Y-56509285D01*
X185771309Y-56759285D01*
X185795119Y-56902142D01*
X185842738Y-56973571D01*
X185890357Y-57009285D01*
X185985595Y-57009285D01*
X186033214Y-56973571D01*
X186080833Y-56902142D01*
X186104642Y-56759285D01*
X186104642Y-56509285D01*
X186080833Y-56366428D01*
X186033214Y-56295000D01*
X185985595Y-56259285D01*
X185318928Y-57009285D02*
X185557023Y-57009285D01*
X185557023Y-56259285D01*
X185057023Y-56259285D02*
X185009404Y-56259285D01*
X184961785Y-56295000D01*
X184937976Y-56330714D01*
X184914166Y-56402142D01*
X184890357Y-56545000D01*
X184890357Y-56723571D01*
X184914166Y-56866428D01*
X184937976Y-56937857D01*
X184961785Y-56973571D01*
X185009404Y-57009285D01*
X185057023Y-57009285D01*
X185104642Y-56973571D01*
X185128452Y-56937857D01*
X185152261Y-56866428D01*
X185176071Y-56723571D01*
X185176071Y-56545000D01*
X185152261Y-56402142D01*
X185128452Y-56330714D01*
X185104642Y-56295000D01*
X185057023Y-56259285D01*
X186394880Y-74298428D02*
X186323452Y-74334142D01*
X186299642Y-74369857D01*
X186275833Y-74441285D01*
X186275833Y-74548428D01*
X186299642Y-74619857D01*
X186323452Y-74655571D01*
X186371071Y-74691285D01*
X186561547Y-74691285D01*
X186561547Y-73941285D01*
X186394880Y-73941285D01*
X186347261Y-73977000D01*
X186323452Y-74012714D01*
X186299642Y-74084142D01*
X186299642Y-74155571D01*
X186323452Y-74227000D01*
X186347261Y-74262714D01*
X186394880Y-74298428D01*
X186561547Y-74298428D01*
X185847261Y-73941285D02*
X185942500Y-73941285D01*
X185990119Y-73977000D01*
X186013928Y-74012714D01*
X186061547Y-74119857D01*
X186085357Y-74262714D01*
X186085357Y-74548428D01*
X186061547Y-74619857D01*
X186037738Y-74655571D01*
X185990119Y-74691285D01*
X185894880Y-74691285D01*
X185847261Y-74655571D01*
X185823452Y-74619857D01*
X185799642Y-74548428D01*
X185799642Y-74369857D01*
X185823452Y-74298428D01*
X185847261Y-74262714D01*
X185894880Y-74227000D01*
X185990119Y-74227000D01*
X186037738Y-74262714D01*
X186061547Y-74298428D01*
X186085357Y-74369857D01*
X170900880Y-74361928D02*
X170829452Y-74397642D01*
X170805642Y-74433357D01*
X170781833Y-74504785D01*
X170781833Y-74611928D01*
X170805642Y-74683357D01*
X170829452Y-74719071D01*
X170877071Y-74754785D01*
X171067547Y-74754785D01*
X171067547Y-74004785D01*
X170900880Y-74004785D01*
X170853261Y-74040500D01*
X170829452Y-74076214D01*
X170805642Y-74147642D01*
X170805642Y-74219071D01*
X170829452Y-74290500D01*
X170853261Y-74326214D01*
X170900880Y-74361928D01*
X171067547Y-74361928D01*
X170329452Y-74004785D02*
X170567547Y-74004785D01*
X170591357Y-74361928D01*
X170567547Y-74326214D01*
X170519928Y-74290500D01*
X170400880Y-74290500D01*
X170353261Y-74326214D01*
X170329452Y-74361928D01*
X170305642Y-74433357D01*
X170305642Y-74611928D01*
X170329452Y-74683357D01*
X170353261Y-74719071D01*
X170400880Y-74754785D01*
X170519928Y-74754785D01*
X170567547Y-74719071D01*
X170591357Y-74683357D01*
X170900880Y-71821928D02*
X170829452Y-71857642D01*
X170805642Y-71893357D01*
X170781833Y-71964785D01*
X170781833Y-72071928D01*
X170805642Y-72143357D01*
X170829452Y-72179071D01*
X170877071Y-72214785D01*
X171067547Y-72214785D01*
X171067547Y-71464785D01*
X170900880Y-71464785D01*
X170853261Y-71500500D01*
X170829452Y-71536214D01*
X170805642Y-71607642D01*
X170805642Y-71679071D01*
X170829452Y-71750500D01*
X170853261Y-71786214D01*
X170900880Y-71821928D01*
X171067547Y-71821928D01*
X170353261Y-71714785D02*
X170353261Y-72214785D01*
X170472309Y-71429071D02*
X170591357Y-71964785D01*
X170281833Y-71964785D01*
X186458380Y-71694928D02*
X186386952Y-71730642D01*
X186363142Y-71766357D01*
X186339333Y-71837785D01*
X186339333Y-71944928D01*
X186363142Y-72016357D01*
X186386952Y-72052071D01*
X186434571Y-72087785D01*
X186625047Y-72087785D01*
X186625047Y-71337785D01*
X186458380Y-71337785D01*
X186410761Y-71373500D01*
X186386952Y-71409214D01*
X186363142Y-71480642D01*
X186363142Y-71552071D01*
X186386952Y-71623500D01*
X186410761Y-71659214D01*
X186458380Y-71694928D01*
X186625047Y-71694928D01*
X186148857Y-71409214D02*
X186125047Y-71373500D01*
X186077428Y-71337785D01*
X185958380Y-71337785D01*
X185910761Y-71373500D01*
X185886952Y-71409214D01*
X185863142Y-71480642D01*
X185863142Y-71552071D01*
X185886952Y-71659214D01*
X186172666Y-72087785D01*
X185863142Y-72087785D01*
X171078452Y-69709285D02*
X171245119Y-69352142D01*
X171364166Y-69709285D02*
X171364166Y-68959285D01*
X171173690Y-68959285D01*
X171126071Y-68995000D01*
X171102261Y-69030714D01*
X171078452Y-69102142D01*
X171078452Y-69209285D01*
X171102261Y-69280714D01*
X171126071Y-69316428D01*
X171173690Y-69352142D01*
X171364166Y-69352142D01*
X170768928Y-68959285D02*
X170673690Y-68959285D01*
X170626071Y-68995000D01*
X170578452Y-69066428D01*
X170554642Y-69209285D01*
X170554642Y-69459285D01*
X170578452Y-69602142D01*
X170626071Y-69673571D01*
X170673690Y-69709285D01*
X170768928Y-69709285D01*
X170816547Y-69673571D01*
X170864166Y-69602142D01*
X170887976Y-69459285D01*
X170887976Y-69209285D01*
X170864166Y-69066428D01*
X170816547Y-68995000D01*
X170768928Y-68959285D01*
X170387976Y-68959285D02*
X170268928Y-69709285D01*
X170173690Y-69173571D01*
X170078452Y-69709285D01*
X169959404Y-68959285D01*
X169816547Y-68959285D02*
X169507023Y-68959285D01*
X169673690Y-69245000D01*
X169602261Y-69245000D01*
X169554642Y-69280714D01*
X169530833Y-69316428D01*
X169507023Y-69387857D01*
X169507023Y-69566428D01*
X169530833Y-69637857D01*
X169554642Y-69673571D01*
X169602261Y-69709285D01*
X169745119Y-69709285D01*
X169792738Y-69673571D01*
X169816547Y-69637857D01*
X186295119Y-69637857D02*
X186318928Y-69673571D01*
X186390357Y-69709285D01*
X186437976Y-69709285D01*
X186509404Y-69673571D01*
X186557023Y-69602142D01*
X186580833Y-69530714D01*
X186604642Y-69387857D01*
X186604642Y-69280714D01*
X186580833Y-69137857D01*
X186557023Y-69066428D01*
X186509404Y-68995000D01*
X186437976Y-68959285D01*
X186390357Y-68959285D01*
X186318928Y-68995000D01*
X186295119Y-69030714D01*
X185985595Y-68959285D02*
X185890357Y-68959285D01*
X185842738Y-68995000D01*
X185795119Y-69066428D01*
X185771309Y-69209285D01*
X185771309Y-69459285D01*
X185795119Y-69602142D01*
X185842738Y-69673571D01*
X185890357Y-69709285D01*
X185985595Y-69709285D01*
X186033214Y-69673571D01*
X186080833Y-69602142D01*
X186104642Y-69459285D01*
X186104642Y-69209285D01*
X186080833Y-69066428D01*
X186033214Y-68995000D01*
X185985595Y-68959285D01*
X185318928Y-69709285D02*
X185557023Y-69709285D01*
X185557023Y-68959285D01*
X184914166Y-68959285D02*
X185152261Y-68959285D01*
X185176071Y-69316428D01*
X185152261Y-69280714D01*
X185104642Y-69245000D01*
X184985595Y-69245000D01*
X184937976Y-69280714D01*
X184914166Y-69316428D01*
X184890357Y-69387857D01*
X184890357Y-69566428D01*
X184914166Y-69637857D01*
X184937976Y-69673571D01*
X184985595Y-69709285D01*
X185104642Y-69709285D01*
X185152261Y-69673571D01*
X185176071Y-69637857D01*
X171078452Y-67198285D02*
X171245119Y-66841142D01*
X171364166Y-67198285D02*
X171364166Y-66448285D01*
X171173690Y-66448285D01*
X171126071Y-66484000D01*
X171102261Y-66519714D01*
X171078452Y-66591142D01*
X171078452Y-66698285D01*
X171102261Y-66769714D01*
X171126071Y-66805428D01*
X171173690Y-66841142D01*
X171364166Y-66841142D01*
X170768928Y-66448285D02*
X170673690Y-66448285D01*
X170626071Y-66484000D01*
X170578452Y-66555428D01*
X170554642Y-66698285D01*
X170554642Y-66948285D01*
X170578452Y-67091142D01*
X170626071Y-67162571D01*
X170673690Y-67198285D01*
X170768928Y-67198285D01*
X170816547Y-67162571D01*
X170864166Y-67091142D01*
X170887976Y-66948285D01*
X170887976Y-66698285D01*
X170864166Y-66555428D01*
X170816547Y-66484000D01*
X170768928Y-66448285D01*
X170387976Y-66448285D02*
X170268928Y-67198285D01*
X170173690Y-66662571D01*
X170078452Y-67198285D01*
X169959404Y-66448285D01*
X169792738Y-66519714D02*
X169768928Y-66484000D01*
X169721309Y-66448285D01*
X169602261Y-66448285D01*
X169554642Y-66484000D01*
X169530833Y-66519714D01*
X169507023Y-66591142D01*
X169507023Y-66662571D01*
X169530833Y-66769714D01*
X169816547Y-67198285D01*
X169507023Y-67198285D01*
X186245119Y-66999857D02*
X186268928Y-67035571D01*
X186340357Y-67071285D01*
X186387976Y-67071285D01*
X186459404Y-67035571D01*
X186507023Y-66964142D01*
X186530833Y-66892714D01*
X186554642Y-66749857D01*
X186554642Y-66642714D01*
X186530833Y-66499857D01*
X186507023Y-66428428D01*
X186459404Y-66357000D01*
X186387976Y-66321285D01*
X186340357Y-66321285D01*
X186268928Y-66357000D01*
X186245119Y-66392714D01*
X185935595Y-66321285D02*
X185840357Y-66321285D01*
X185792738Y-66357000D01*
X185745119Y-66428428D01*
X185721309Y-66571285D01*
X185721309Y-66821285D01*
X185745119Y-66964142D01*
X185792738Y-67035571D01*
X185840357Y-67071285D01*
X185935595Y-67071285D01*
X185983214Y-67035571D01*
X186030833Y-66964142D01*
X186054642Y-66821285D01*
X186054642Y-66571285D01*
X186030833Y-66428428D01*
X185983214Y-66357000D01*
X185935595Y-66321285D01*
X185268928Y-67071285D02*
X185507023Y-67071285D01*
X185507023Y-66321285D01*
X184887976Y-66571285D02*
X184887976Y-67071285D01*
X185007023Y-66285571D02*
X185126071Y-66821285D01*
X184816547Y-66821285D01*
X171078452Y-64594785D02*
X171245119Y-64237642D01*
X171364166Y-64594785D02*
X171364166Y-63844785D01*
X171173690Y-63844785D01*
X171126071Y-63880500D01*
X171102261Y-63916214D01*
X171078452Y-63987642D01*
X171078452Y-64094785D01*
X171102261Y-64166214D01*
X171126071Y-64201928D01*
X171173690Y-64237642D01*
X171364166Y-64237642D01*
X170768928Y-63844785D02*
X170673690Y-63844785D01*
X170626071Y-63880500D01*
X170578452Y-63951928D01*
X170554642Y-64094785D01*
X170554642Y-64344785D01*
X170578452Y-64487642D01*
X170626071Y-64559071D01*
X170673690Y-64594785D01*
X170768928Y-64594785D01*
X170816547Y-64559071D01*
X170864166Y-64487642D01*
X170887976Y-64344785D01*
X170887976Y-64094785D01*
X170864166Y-63951928D01*
X170816547Y-63880500D01*
X170768928Y-63844785D01*
X170387976Y-63844785D02*
X170268928Y-64594785D01*
X170173690Y-64059071D01*
X170078452Y-64594785D01*
X169959404Y-63844785D01*
X169507023Y-64594785D02*
X169792738Y-64594785D01*
X169649880Y-64594785D02*
X169649880Y-63844785D01*
X169697500Y-63951928D01*
X169745119Y-64023357D01*
X169792738Y-64059071D01*
D10*
G04 #@! TO.C,J1*
X181930130Y-85607595D02*
X181930130Y-86179023D01*
X182930130Y-85893309D02*
X181930130Y-85893309D01*
X182930130Y-87083785D02*
X182453940Y-86750452D01*
X182930130Y-86512357D02*
X181930130Y-86512357D01*
X181930130Y-86893309D01*
X181977750Y-86988547D01*
X182025369Y-87036166D01*
X182120607Y-87083785D01*
X182263464Y-87083785D01*
X182358702Y-87036166D01*
X182406321Y-86988547D01*
X182453940Y-86893309D01*
X182453940Y-86512357D01*
X182930130Y-88083785D02*
X182453940Y-87750452D01*
X182930130Y-87512357D02*
X181930130Y-87512357D01*
X181930130Y-87893309D01*
X181977750Y-87988547D01*
X182025369Y-88036166D01*
X182120607Y-88083785D01*
X182263464Y-88083785D01*
X182358702Y-88036166D01*
X182406321Y-87988547D01*
X182453940Y-87893309D01*
X182453940Y-87512357D01*
X182882511Y-88464738D02*
X182930130Y-88607595D01*
X182930130Y-88845690D01*
X182882511Y-88940928D01*
X182834892Y-88988547D01*
X182739654Y-89036166D01*
X182644416Y-89036166D01*
X182549178Y-88988547D01*
X182501559Y-88940928D01*
X182453940Y-88845690D01*
X182406321Y-88655214D01*
X182358702Y-88559976D01*
X182311083Y-88512357D01*
X182215845Y-88464738D01*
X182120607Y-88464738D01*
X182025369Y-88512357D01*
X181977750Y-88559976D01*
X181930130Y-88655214D01*
X181930130Y-88893309D01*
X181977750Y-89036166D01*
G04 #@! TO.C,SW1*
X176183130Y-79122380D02*
X176516464Y-78646190D01*
X176754559Y-79122380D02*
X176754559Y-78122380D01*
X176373607Y-78122380D01*
X176278369Y-78170000D01*
X176230750Y-78217619D01*
X176183130Y-78312857D01*
X176183130Y-78455714D01*
X176230750Y-78550952D01*
X176278369Y-78598571D01*
X176373607Y-78646190D01*
X176754559Y-78646190D01*
X175754559Y-78598571D02*
X175421226Y-78598571D01*
X175278369Y-79122380D02*
X175754559Y-79122380D01*
X175754559Y-78122380D01*
X175278369Y-78122380D01*
X174897416Y-79074761D02*
X174754559Y-79122380D01*
X174516464Y-79122380D01*
X174421226Y-79074761D01*
X174373607Y-79027142D01*
X174325988Y-78931904D01*
X174325988Y-78836666D01*
X174373607Y-78741428D01*
X174421226Y-78693809D01*
X174516464Y-78646190D01*
X174706940Y-78598571D01*
X174802178Y-78550952D01*
X174849797Y-78503333D01*
X174897416Y-78408095D01*
X174897416Y-78312857D01*
X174849797Y-78217619D01*
X174802178Y-78170000D01*
X174706940Y-78122380D01*
X174468845Y-78122380D01*
X174325988Y-78170000D01*
X173897416Y-78598571D02*
X173564083Y-78598571D01*
X173421226Y-79122380D02*
X173897416Y-79122380D01*
X173897416Y-78122380D01*
X173421226Y-78122380D01*
X173135511Y-78122380D02*
X172564083Y-78122380D01*
X172849797Y-79122380D02*
X172849797Y-78122380D01*
G04 #@! TD*
M02*
