M48
;DRILL file {KiCad (5.0.2)-1} date 2019/04/02 22:30:31
;FORMAT={-:-/ absolute / metric / decimal}
FMAT,2
METRIC,TZ
T1C1.200
T2C1.700
T3C1.900
T4C3.000
T5C4.100
T6C4.800
%
G90
G05
T1
X180.391Y-86.445
X180.391Y-88.195
X187.391Y-86.445
X187.391Y-88.195
T2
X95.705Y-86.862
X96.285Y-86.862
X105.285Y-86.862
X105.865Y-86.862
X162.38Y-101.15
X162.96Y-101.15
X171.96Y-101.15
X172.54Y-101.15
X133.805Y-82.1
X134.385Y-82.1
X143.385Y-82.1
X143.965Y-82.1
X152.855Y-63.05
X153.435Y-63.05
X162.435Y-63.05
X163.015Y-63.05
X133.805Y-44.
X134.385Y-44.
X143.385Y-44.
X143.965Y-44.
X114.755Y-67.812
X115.335Y-67.812
X124.335Y-67.812
X124.915Y-67.812
X152.855Y-44.
X153.435Y-44.
X162.435Y-44.
X163.015Y-44.
X152.855Y-82.1
X153.435Y-82.1
X162.435Y-82.1
X163.015Y-82.1
X114.755Y-86.862
X115.335Y-86.862
X124.335Y-86.862
X124.915Y-86.862
X114.755Y-48.762
X115.335Y-48.762
X124.335Y-48.762
X124.915Y-48.762
X133.805Y-63.05
X134.385Y-63.05
X143.385Y-63.05
X143.965Y-63.05
T3
X152.435Y-82.1
X163.435Y-82.1
X114.335Y-86.862
X125.335Y-86.862
X114.335Y-48.762
X125.335Y-48.762
X133.385Y-63.05
X144.385Y-63.05
X95.285Y-86.862
X106.285Y-86.862
X161.96Y-101.15
X172.96Y-101.15
X133.385Y-82.1
X144.385Y-82.1
X152.435Y-63.05
X163.435Y-63.05
X133.385Y-44.
X144.385Y-44.
X114.335Y-67.812
X125.335Y-67.812
X152.435Y-44.
X163.435Y-44.
T4
X114.835Y-71.513
X116.025Y-65.272
X117.295Y-62.732
X119.835Y-73.712
X122.375Y-62.732
X123.645Y-65.272
X124.835Y-71.513
X152.935Y-47.7
X154.125Y-41.46
X155.395Y-38.92
X157.935Y-49.9
X160.475Y-38.92
X161.745Y-41.46
X162.935Y-47.7
X152.935Y-85.8
X154.125Y-79.56
X155.395Y-77.02
X157.935Y-88.
X160.475Y-77.02
X161.745Y-79.56
X162.935Y-85.8
X114.835Y-90.562
X116.025Y-84.322
X117.295Y-81.782
X119.835Y-92.763
X122.375Y-81.782
X123.645Y-84.322
X124.835Y-90.562
X114.835Y-52.462
X116.025Y-46.222
X117.295Y-43.682
X119.835Y-54.662
X122.375Y-43.682
X123.645Y-46.222
X124.835Y-52.462
X133.885Y-66.75
X135.075Y-60.51
X136.345Y-57.97
X138.885Y-68.95
X141.425Y-57.97
X142.695Y-60.51
X143.885Y-66.75
X95.785Y-90.562
X96.975Y-84.322
X98.245Y-81.782
X100.785Y-92.763
X103.325Y-81.782
X104.595Y-84.322
X105.785Y-90.562
X162.46Y-104.85
X163.65Y-98.61
X164.92Y-96.07
X167.46Y-107.05
X170.Y-96.07
X171.27Y-98.61
X172.46Y-104.85
X133.885Y-85.8
X135.075Y-79.56
X136.345Y-77.02
X138.885Y-88.
X141.425Y-77.02
X142.695Y-79.56
X143.885Y-85.8
X152.935Y-66.75
X154.125Y-60.51
X155.395Y-57.97
X157.935Y-68.95
X160.475Y-57.97
X161.745Y-60.51
X162.935Y-66.75
X133.885Y-47.7
X135.075Y-41.46
X136.345Y-38.92
X138.885Y-49.9
X141.425Y-38.92
X142.695Y-41.46
X143.885Y-47.7
T5
X100.785Y-86.862
X167.46Y-101.15
X138.885Y-82.1
X157.935Y-63.05
X138.885Y-44.
X119.835Y-67.812
X157.935Y-44.
X157.935Y-82.1
X119.835Y-86.862
X119.835Y-48.762
X138.885Y-63.05
T6
X102.26Y-103.77
X183.26Y-103.77
X172.222Y-38.77
X106.26Y-38.77
T0
M30
