<?xml version="1.0" standalone="no"?>
 <!DOCTYPE svg PUBLIC "-//W3C//DTD SVG 1.1//EN" 
 "http://www.w3.org/Graphics/SVG/1.1/DTD/svg11.dtd"> 
<svg xmlns="http://www.w3.org/2000/svg" version="1.1" 
    width="29.7002cm" height="21.0007cm" viewBox="0 0 116930 82680 ">
<title>SVG Picture created as FirstContact-F.Fab.svg date 2019/04/01 22:18:07 </title>
  <desc>Picture generated by PCBNEW </desc>
<g style="fill:#000000; fill-opacity:1;stroke:#000000; stroke-opacity:1;
stroke-linecap:round; stroke-linejoin:round; "
 transform="translate(0 0) scale(1 1)">
</g>
<g style="fill:#000000; fill-opacity:0.0; 
stroke:#000000; stroke-width:-0.000393701; stroke-opacity:1; 
stroke-linecap:round; stroke-linejoin:round;">
</g>
<g style="fill:#000000; fill-opacity:0.0; 
stroke:#000000; stroke-width:39.3701; stroke-opacity:1; 
stroke-linecap:round; stroke-linejoin:round;">
</g>
<g style="fill:#000000; fill-opacity:0.0; 
stroke:#000000; stroke-width:59.0551; stroke-opacity:1; 
stroke-linecap:round; stroke-linejoin:round;">
<rect x="69685.9" y="65357.2" width="42519.7" height="12598.4" rx="0" />
</g>
<g style="fill:#000000; fill-opacity:0.0; 
stroke:#000000; stroke-width:39.3701; stroke-opacity:1; 
stroke-linecap:round; stroke-linejoin:round;">
</g>
<g style="fill:#000000; fill-opacity:0.0; 
stroke:#000000; stroke-width:59.0551; stroke-opacity:1; 
stroke-linecap:round; stroke-linejoin:round;">
<rect x="3937.01" y="3937.01" width="109056" height="74806" rx="0" />
</g>
<g style="fill:#000000; fill-opacity:0.0; 
stroke:#000000; stroke-width:39.3701; stroke-opacity:1; 
stroke-linecap:round; stroke-linejoin:round;">
</g>
<g style="fill:#000000; fill-opacity:0.0; 
stroke:#000000; stroke-width:59.0551; stroke-opacity:1; 
stroke-linecap:round; stroke-linejoin:round;">
<rect x="4724.41" y="4724.41" width="107481" height="73231.2" rx="0" />
</g>
<g style="fill:#000000; fill-opacity:0.0; 
stroke:#000000; stroke-width:39.3701; stroke-opacity:1; 
stroke-linecap:round; stroke-linejoin:round;">
</g>
<g style="fill:#000000; fill-opacity:0.0; 
stroke:#000000; stroke-width:59.0551; stroke-opacity:1; 
stroke-linecap:round; stroke-linejoin:round;">
<path d="M23622 4724
L23622 3937
" />
</g>
<g style="fill:#000000; fill-opacity:0.0; 
stroke:#000000; stroke-width:39.3701; stroke-opacity:1; 
stroke-linecap:round; stroke-linejoin:round;">
</g>
<g style="fill:#000000; fill-opacity:0.0; 
stroke:#000000; stroke-width:59.0551; stroke-opacity:1; 
stroke-linecap:round; stroke-linejoin:round;">
<path d="M43307 4724
L43307 3937
" />
</g>
<g style="fill:#000000; fill-opacity:0.0; 
stroke:#000000; stroke-width:39.3701; stroke-opacity:1; 
stroke-linecap:round; stroke-linejoin:round;">
</g>
<g style="fill:#000000; fill-opacity:0.0; 
stroke:#000000; stroke-width:59.0551; stroke-opacity:1; 
stroke-linecap:round; stroke-linejoin:round;">
<path d="M62992 4724
L62992 3937
" />
</g>
<g style="fill:#000000; fill-opacity:0.0; 
stroke:#000000; stroke-width:39.3701; stroke-opacity:1; 
stroke-linecap:round; stroke-linejoin:round;">
</g>
<g style="fill:#000000; fill-opacity:0.0; 
stroke:#000000; stroke-width:59.0551; stroke-opacity:1; 
stroke-linecap:round; stroke-linejoin:round;">
<path d="M82677 4724
L82677 3937
" />
</g>
<g style="fill:#000000; fill-opacity:0.0; 
stroke:#000000; stroke-width:39.3701; stroke-opacity:1; 
stroke-linecap:round; stroke-linejoin:round;">
</g>
<g style="fill:#000000; fill-opacity:0.0; 
stroke:#000000; stroke-width:59.0551; stroke-opacity:1; 
stroke-linecap:round; stroke-linejoin:round;">
<path d="M102362 4724
L102362 3937
" />
</g>
<g style="fill:#000000; fill-opacity:0.0; 
stroke:#000000; stroke-width:39.3701; stroke-opacity:1; 
stroke-linecap:round; stroke-linejoin:round;">
</g>
<g style="fill:#000000; fill-opacity:0.0; 
stroke:#000000; stroke-width:59.0551; stroke-opacity:1; 
stroke-linecap:round; stroke-linejoin:round;">
<path d="M14199 4562
L13906 4562
" />
<path d="M14052 4562
L14052 4050
L14004 4123
L13955 4172
L13906 4196
" />
</g>
<g style="fill:#000000; fill-opacity:0.0; 
stroke:#000000; stroke-width:39.3701; stroke-opacity:1; 
stroke-linecap:round; stroke-linejoin:round;">
</g>
<g style="fill:#000000; fill-opacity:0.0; 
stroke:#000000; stroke-width:59.0551; stroke-opacity:1; 
stroke-linecap:round; stroke-linejoin:round;">
<path d="M33591 4099
L33615 4074
L33664 4050
L33786 4050
L33835 4074
L33859 4099
L33884 4147
L33884 4196
L33859 4269
L33567 4562
L33884 4562
" />
</g>
<g style="fill:#000000; fill-opacity:0.0; 
stroke:#000000; stroke-width:39.3701; stroke-opacity:1; 
stroke-linecap:round; stroke-linejoin:round;">
</g>
<g style="fill:#000000; fill-opacity:0.0; 
stroke:#000000; stroke-width:59.0551; stroke-opacity:1; 
stroke-linecap:round; stroke-linejoin:round;">
<path d="M53252 4050
L53569 4050
L53398 4245
L53471 4245
L53520 4269
L53544 4294
L53569 4342
L53569 4464
L53544 4513
L53520 4537
L53471 4562
L53325 4562
L53276 4537
L53252 4513
" />
</g>
<g style="fill:#000000; fill-opacity:0.0; 
stroke:#000000; stroke-width:39.3701; stroke-opacity:1; 
stroke-linecap:round; stroke-linejoin:round;">
</g>
<g style="fill:#000000; fill-opacity:0.0; 
stroke:#000000; stroke-width:59.0551; stroke-opacity:1; 
stroke-linecap:round; stroke-linejoin:round;">
<path d="M73205 4221
L73205 4562
" />
<path d="M73083 4026
L72961 4391
L73278 4391
" />
</g>
<g style="fill:#000000; fill-opacity:0.0; 
stroke:#000000; stroke-width:39.3701; stroke-opacity:1; 
stroke-linecap:round; stroke-linejoin:round;">
</g>
<g style="fill:#000000; fill-opacity:0.0; 
stroke:#000000; stroke-width:59.0551; stroke-opacity:1; 
stroke-linecap:round; stroke-linejoin:round;">
<path d="M92914 4050
L92671 4050
L92646 4294
L92671 4269
L92719 4245
L92841 4245
L92890 4269
L92914 4294
L92939 4342
L92939 4464
L92914 4513
L92890 4537
L92841 4562
L92719 4562
L92671 4537
L92646 4513
" />
</g>
<g style="fill:#000000; fill-opacity:0.0; 
stroke:#000000; stroke-width:39.3701; stroke-opacity:1; 
stroke-linecap:round; stroke-linejoin:round;">
</g>
<g style="fill:#000000; fill-opacity:0.0; 
stroke:#000000; stroke-width:59.0551; stroke-opacity:1; 
stroke-linecap:round; stroke-linejoin:round;">
<path d="M112575 4050
L112477 4050
L112429 4074
L112404 4099
L112356 4172
L112331 4269
L112331 4464
L112356 4513
L112380 4537
L112429 4562
L112526 4562
L112575 4537
L112599 4513
L112624 4464
L112624 4342
L112599 4294
L112575 4269
L112526 4245
L112429 4245
L112380 4269
L112356 4294
L112331 4342
" />
</g>
<g style="fill:#000000; fill-opacity:0.0; 
stroke:#000000; stroke-width:39.3701; stroke-opacity:1; 
stroke-linecap:round; stroke-linejoin:round;">
</g>
<g style="fill:#000000; fill-opacity:0.0; 
stroke:#000000; stroke-width:59.0551; stroke-opacity:1; 
stroke-linecap:round; stroke-linejoin:round;">
<path d="M23622 77955
L23622 78742
" />
</g>
<g style="fill:#000000; fill-opacity:0.0; 
stroke:#000000; stroke-width:39.3701; stroke-opacity:1; 
stroke-linecap:round; stroke-linejoin:round;">
</g>
<g style="fill:#000000; fill-opacity:0.0; 
stroke:#000000; stroke-width:59.0551; stroke-opacity:1; 
stroke-linecap:round; stroke-linejoin:round;">
<path d="M43307 77955
L43307 78742
" />
</g>
<g style="fill:#000000; fill-opacity:0.0; 
stroke:#000000; stroke-width:39.3701; stroke-opacity:1; 
stroke-linecap:round; stroke-linejoin:round;">
</g>
<g style="fill:#000000; fill-opacity:0.0; 
stroke:#000000; stroke-width:59.0551; stroke-opacity:1; 
stroke-linecap:round; stroke-linejoin:round;">
<path d="M62992 77955
L62992 78742
" />
</g>
<g style="fill:#000000; fill-opacity:0.0; 
stroke:#000000; stroke-width:39.3701; stroke-opacity:1; 
stroke-linecap:round; stroke-linejoin:round;">
</g>
<g style="fill:#000000; fill-opacity:0.0; 
stroke:#000000; stroke-width:59.0551; stroke-opacity:1; 
stroke-linecap:round; stroke-linejoin:round;">
<path d="M82677 77955
L82677 78742
" />
</g>
<g style="fill:#000000; fill-opacity:0.0; 
stroke:#000000; stroke-width:39.3701; stroke-opacity:1; 
stroke-linecap:round; stroke-linejoin:round;">
</g>
<g style="fill:#000000; fill-opacity:0.0; 
stroke:#000000; stroke-width:59.0551; stroke-opacity:1; 
stroke-linecap:round; stroke-linejoin:round;">
<path d="M102362 77955
L102362 78742
" />
</g>
<g style="fill:#000000; fill-opacity:0.0; 
stroke:#000000; stroke-width:39.3701; stroke-opacity:1; 
stroke-linecap:round; stroke-linejoin:round;">
</g>
<g style="fill:#000000; fill-opacity:0.0; 
stroke:#000000; stroke-width:59.0551; stroke-opacity:1; 
stroke-linecap:round; stroke-linejoin:round;">
<path d="M14199 78580
L13906 78580
" />
<path d="M14052 78580
L14052 78069
L14004 78142
L13955 78190
L13906 78215
" />
</g>
<g style="fill:#000000; fill-opacity:0.0; 
stroke:#000000; stroke-width:39.3701; stroke-opacity:1; 
stroke-linecap:round; stroke-linejoin:round;">
</g>
<g style="fill:#000000; fill-opacity:0.0; 
stroke:#000000; stroke-width:59.0551; stroke-opacity:1; 
stroke-linecap:round; stroke-linejoin:round;">
<path d="M33591 78117
L33615 78093
L33664 78069
L33786 78069
L33835 78093
L33859 78117
L33884 78166
L33884 78215
L33859 78288
L33567 78580
L33884 78580
" />
</g>
<g style="fill:#000000; fill-opacity:0.0; 
stroke:#000000; stroke-width:39.3701; stroke-opacity:1; 
stroke-linecap:round; stroke-linejoin:round;">
</g>
<g style="fill:#000000; fill-opacity:0.0; 
stroke:#000000; stroke-width:59.0551; stroke-opacity:1; 
stroke-linecap:round; stroke-linejoin:round;">
<path d="M53252 78069
L53569 78069
L53398 78263
L53471 78263
L53520 78288
L53544 78312
L53569 78361
L53569 78483
L53544 78532
L53520 78556
L53471 78580
L53325 78580
L53276 78556
L53252 78532
" />
</g>
<g style="fill:#000000; fill-opacity:0.0; 
stroke:#000000; stroke-width:39.3701; stroke-opacity:1; 
stroke-linecap:round; stroke-linejoin:round;">
</g>
<g style="fill:#000000; fill-opacity:0.0; 
stroke:#000000; stroke-width:59.0551; stroke-opacity:1; 
stroke-linecap:round; stroke-linejoin:round;">
<path d="M73205 78239
L73205 78580
" />
<path d="M73083 78044
L72961 78410
L73278 78410
" />
</g>
<g style="fill:#000000; fill-opacity:0.0; 
stroke:#000000; stroke-width:39.3701; stroke-opacity:1; 
stroke-linecap:round; stroke-linejoin:round;">
</g>
<g style="fill:#000000; fill-opacity:0.0; 
stroke:#000000; stroke-width:59.0551; stroke-opacity:1; 
stroke-linecap:round; stroke-linejoin:round;">
<path d="M92914 78069
L92671 78069
L92646 78312
L92671 78288
L92719 78263
L92841 78263
L92890 78288
L92914 78312
L92939 78361
L92939 78483
L92914 78532
L92890 78556
L92841 78580
L92719 78580
L92671 78556
L92646 78532
" />
</g>
<g style="fill:#000000; fill-opacity:0.0; 
stroke:#000000; stroke-width:39.3701; stroke-opacity:1; 
stroke-linecap:round; stroke-linejoin:round;">
</g>
<g style="fill:#000000; fill-opacity:0.0; 
stroke:#000000; stroke-width:59.0551; stroke-opacity:1; 
stroke-linecap:round; stroke-linejoin:round;">
<path d="M112575 78069
L112477 78069
L112429 78093
L112404 78117
L112356 78190
L112331 78288
L112331 78483
L112356 78532
L112380 78556
L112429 78580
L112526 78580
L112575 78556
L112599 78532
L112624 78483
L112624 78361
L112599 78312
L112575 78288
L112526 78263
L112429 78263
L112380 78288
L112356 78312
L112331 78361
" />
</g>
<g style="fill:#000000; fill-opacity:0.0; 
stroke:#000000; stroke-width:39.3701; stroke-opacity:1; 
stroke-linecap:round; stroke-linejoin:round;">
</g>
<g style="fill:#000000; fill-opacity:0.0; 
stroke:#000000; stroke-width:59.0551; stroke-opacity:1; 
stroke-linecap:round; stroke-linejoin:round;">
<path d="M3937 23622
L4724 23622
" />
</g>
<g style="fill:#000000; fill-opacity:0.0; 
stroke:#000000; stroke-width:39.3701; stroke-opacity:1; 
stroke-linecap:round; stroke-linejoin:round;">
</g>
<g style="fill:#000000; fill-opacity:0.0; 
stroke:#000000; stroke-width:59.0551; stroke-opacity:1; 
stroke-linecap:round; stroke-linejoin:round;">
<path d="M3937 43307
L4724 43307
" />
</g>
<g style="fill:#000000; fill-opacity:0.0; 
stroke:#000000; stroke-width:39.3701; stroke-opacity:1; 
stroke-linecap:round; stroke-linejoin:round;">
</g>
<g style="fill:#000000; fill-opacity:0.0; 
stroke:#000000; stroke-width:59.0551; stroke-opacity:1; 
stroke-linecap:round; stroke-linejoin:round;">
<path d="M3937 62992
L4724 62992
" />
</g>
<g style="fill:#000000; fill-opacity:0.0; 
stroke:#000000; stroke-width:39.3701; stroke-opacity:1; 
stroke-linecap:round; stroke-linejoin:round;">
</g>
<g style="fill:#000000; fill-opacity:0.0; 
stroke:#000000; stroke-width:59.0551; stroke-opacity:1; 
stroke-linecap:round; stroke-linejoin:round;">
<path d="M4208 13864
L4452 13864
" />
<path d="M4160 14011
L4330 13499
L4501 14011
" />
</g>
<g style="fill:#000000; fill-opacity:0.0; 
stroke:#000000; stroke-width:39.3701; stroke-opacity:1; 
stroke-linecap:round; stroke-linejoin:round;">
</g>
<g style="fill:#000000; fill-opacity:0.0; 
stroke:#000000; stroke-width:59.0551; stroke-opacity:1; 
stroke-linecap:round; stroke-linejoin:round;">
<path d="M4367 33428
L4440 33452
L4464 33476
L4489 33525
L4489 33598
L4464 33647
L4440 33671
L4391 33696
L4196 33696
L4196 33184
L4367 33184
L4416 33208
L4440 33233
L4464 33281
L4464 33330
L4440 33379
L4416 33403
L4367 33428
L4196 33428
" />
</g>
<g style="fill:#000000; fill-opacity:0.0; 
stroke:#000000; stroke-width:39.3701; stroke-opacity:1; 
stroke-linecap:round; stroke-linejoin:round;">
</g>
<g style="fill:#000000; fill-opacity:0.0; 
stroke:#000000; stroke-width:59.0551; stroke-opacity:1; 
stroke-linecap:round; stroke-linejoin:round;">
<path d="M4489 53332
L4464 53356
L4391 53381
L4342 53381
L4269 53356
L4221 53308
L4196 53259
L4172 53161
L4172 53088
L4196 52991
L4221 52942
L4269 52893
L4342 52869
L4391 52869
L4464 52893
L4489 52918
" />
</g>
<g style="fill:#000000; fill-opacity:0.0; 
stroke:#000000; stroke-width:39.3701; stroke-opacity:1; 
stroke-linecap:round; stroke-linejoin:round;">
</g>
<g style="fill:#000000; fill-opacity:0.0; 
stroke:#000000; stroke-width:59.0551; stroke-opacity:1; 
stroke-linecap:round; stroke-linejoin:round;">
<path d="M4196 73066
L4196 72554
L4318 72554
L4391 72578
L4440 72627
L4464 72676
L4489 72773
L4489 72846
L4464 72944
L4440 72993
L4391 73041
L4318 73066
L4196 73066
" />
</g>
<g style="fill:#000000; fill-opacity:0.0; 
stroke:#000000; stroke-width:39.3701; stroke-opacity:1; 
stroke-linecap:round; stroke-linejoin:round;">
</g>
<g style="fill:#000000; fill-opacity:0.0; 
stroke:#000000; stroke-width:59.0551; stroke-opacity:1; 
stroke-linecap:round; stroke-linejoin:round;">
<path d="M112992 23622
L112205 23622
" />
</g>
<g style="fill:#000000; fill-opacity:0.0; 
stroke:#000000; stroke-width:39.3701; stroke-opacity:1; 
stroke-linecap:round; stroke-linejoin:round;">
</g>
<g style="fill:#000000; fill-opacity:0.0; 
stroke:#000000; stroke-width:59.0551; stroke-opacity:1; 
stroke-linecap:round; stroke-linejoin:round;">
<path d="M112992 43307
L112205 43307
" />
</g>
<g style="fill:#000000; fill-opacity:0.0; 
stroke:#000000; stroke-width:39.3701; stroke-opacity:1; 
stroke-linecap:round; stroke-linejoin:round;">
</g>
<g style="fill:#000000; fill-opacity:0.0; 
stroke:#000000; stroke-width:59.0551; stroke-opacity:1; 
stroke-linecap:round; stroke-linejoin:round;">
<path d="M112992 62992
L112205 62992
" />
</g>
<g style="fill:#000000; fill-opacity:0.0; 
stroke:#000000; stroke-width:39.3701; stroke-opacity:1; 
stroke-linecap:round; stroke-linejoin:round;">
</g>
<g style="fill:#000000; fill-opacity:0.0; 
stroke:#000000; stroke-width:59.0551; stroke-opacity:1; 
stroke-linecap:round; stroke-linejoin:round;">
<path d="M112477 13864
L112721 13864
" />
<path d="M112428 14011
L112599 13499
L112769 14011
" />
</g>
<g style="fill:#000000; fill-opacity:0.0; 
stroke:#000000; stroke-width:39.3701; stroke-opacity:1; 
stroke-linecap:round; stroke-linejoin:round;">
</g>
<g style="fill:#000000; fill-opacity:0.0; 
stroke:#000000; stroke-width:59.0551; stroke-opacity:1; 
stroke-linecap:round; stroke-linejoin:round;">
<path d="M112635 33428
L112708 33452
L112733 33476
L112757 33525
L112757 33598
L112733 33647
L112708 33671
L112660 33696
L112465 33696
L112465 33184
L112635 33184
L112684 33208
L112708 33233
L112733 33281
L112733 33330
L112708 33379
L112684 33403
L112635 33428
L112465 33428
" />
</g>
<g style="fill:#000000; fill-opacity:0.0; 
stroke:#000000; stroke-width:39.3701; stroke-opacity:1; 
stroke-linecap:round; stroke-linejoin:round;">
</g>
<g style="fill:#000000; fill-opacity:0.0; 
stroke:#000000; stroke-width:59.0551; stroke-opacity:1; 
stroke-linecap:round; stroke-linejoin:round;">
<path d="M112757 53332
L112733 53356
L112660 53381
L112611 53381
L112538 53356
L112489 53308
L112465 53259
L112440 53161
L112440 53088
L112465 52991
L112489 52942
L112538 52893
L112611 52869
L112660 52869
L112733 52893
L112757 52918
" />
</g>
<g style="fill:#000000; fill-opacity:0.0; 
stroke:#000000; stroke-width:39.3701; stroke-opacity:1; 
stroke-linecap:round; stroke-linejoin:round;">
</g>
<g style="fill:#000000; fill-opacity:0.0; 
stroke:#000000; stroke-width:59.0551; stroke-opacity:1; 
stroke-linecap:round; stroke-linejoin:round;">
<path d="M112465 73066
L112465 72554
L112587 72554
L112660 72578
L112708 72627
L112733 72676
L112757 72773
L112757 72846
L112733 72944
L112708 72993
L112660 73041
L112587 73066
L112465 73066
" />
</g>
<g style="fill:#000000; fill-opacity:0.0; 
stroke:#000000; stroke-width:39.3701; stroke-opacity:1; 
stroke-linecap:round; stroke-linejoin:round;">
</g>
<g style="fill:#000000; fill-opacity:0.0; 
stroke:#000000; stroke-width:59.0551; stroke-opacity:1; 
stroke-linecap:round; stroke-linejoin:round;">
<path d="M78911 76293
L78911 75703
L79051 75703
L79136 75731
L79192 75787
L79220 75843
L79248 75956
L79248 76040
L79220 76153
L79192 76209
L79136 76265
L79051 76293
L78911 76293
" />
<path d="M79754 76293
L79754 75984
L79726 75928
L79670 75899
L79557 75899
L79501 75928
" />
<path d="M79754 76265
L79698 76293
L79557 76293
L79501 76265
L79473 76209
L79473 76153
L79501 76096
L79557 76068
L79698 76068
L79754 76040
" />
<path d="M79951 75899
L80176 75899
" />
<path d="M80036 75703
L80036 76209
L80064 76265
L80120 76293
L80176 76293
" />
<path d="M80598 76265
L80542 76293
L80429 76293
L80373 76265
L80345 76209
L80345 75984
L80373 75928
L80429 75899
L80542 75899
L80598 75928
L80626 75984
L80626 76040
L80345 76096
" />
<path d="M80879 76237
L80907 76265
L80879 76293
L80851 76265
L80879 76237
L80879 76293
" />
<path d="M80879 75928
L80907 75956
L80879 75984
L80851 75956
L80879 75928
L80879 75984
" />
</g>
<g style="fill:#000000; fill-opacity:0.0; 
stroke:#000000; stroke-width:39.3701; stroke-opacity:1; 
stroke-linecap:round; stroke-linejoin:round;">
</g>
<g style="fill:#000000; fill-opacity:0.0; 
stroke:#000000; stroke-width:59.0551; stroke-opacity:1; 
stroke-linecap:round; stroke-linejoin:round;">
<path d="M69685 76577
L112205 76577
" />
</g>
<g style="fill:#000000; fill-opacity:0.0; 
stroke:#000000; stroke-width:39.3701; stroke-opacity:1; 
stroke-linecap:round; stroke-linejoin:round;">
</g>
<g style="fill:#000000; fill-opacity:0.0; 
stroke:#000000; stroke-width:59.0551; stroke-opacity:1; 
stroke-linecap:round; stroke-linejoin:round;">
<path d="M70249 77395
L70249 76805
" />
<path d="M70587 77395
L70334 77058
" />
<path d="M70587 76805
L70249 77142
" />
<path d="M70840 77395
L70840 77002
" />
<path d="M70840 76805
L70812 76833
L70840 76861
L70868 76833
L70840 76805
L70840 76861
" />
<path d="M71458 77339
L71430 77367
L71346 77395
L71290 77395
L71205 77367
L71149 77311
L71121 77255
L71093 77142
L71093 77058
L71121 76946
L71149 76889
L71205 76833
L71290 76805
L71346 76805
L71430 76833
L71458 76861
" />
<path d="M71965 77395
L71965 77086
L71937 77030
L71880 77002
L71768 77002
L71712 77030
" />
<path d="M71965 77367
L71908 77395
L71768 77395
L71712 77367
L71683 77311
L71683 77255
L71712 77199
L71768 77171
L71908 77171
L71965 77142
" />
<path d="M72499 77395
L72499 76805
" />
<path d="M72499 77367
L72443 77395
L72330 77395
L72274 77367
L72246 77339
L72218 77283
L72218 77114
L72246 77058
L72274 77030
L72330 77002
L72443 77002
L72499 77030
" />
<path d="M73230 77086
L73427 77086
" />
<path d="M73511 77395
L73230 77395
L73230 76805
L73511 76805
" />
<path d="M73764 77339
L73793 77367
L73764 77395
L73736 77367
L73764 77339
L73764 77395
" />
<path d="M74046 77395
L74046 76805
L74186 76805
L74271 76833
L74327 76889
L74355 76946
L74383 77058
L74383 77142
L74355 77255
L74327 77311
L74271 77367
L74186 77395
L74046 77395
" />
<path d="M74636 77339
L74664 77367
L74636 77395
L74608 77367
L74636 77339
L74636 77395
" />
<path d="M74889 77227
L75171 77227
" />
<path d="M74833 77395
L75030 76805
L75227 77395
" />
<path d="M75424 77339
L75452 77367
L75424 77395
L75395 77367
L75424 77339
L75424 77395
" />
<path d="M76605 77395
L76605 76805
" />
<path d="M76661 77171
L76830 77395
" />
<path d="M76830 77002
L76605 77227
" />
<path d="M77083 77395
L77083 77002
" />
<path d="M77083 76805
L77055 76833
L77083 76861
L77111 76833
L77083 76805
L77083 76861
" />
<path d="M77617 77367
L77561 77395
L77448 77395
L77392 77367
L77364 77339
L77336 77283
L77336 77114
L77364 77058
L77392 77030
L77448 77002
L77561 77002
L77617 77030
" />
<path d="M78123 77395
L78123 77086
L78095 77030
L78039 77002
L77926 77002
L77870 77030
" />
<path d="M78123 77367
L78067 77395
L77926 77395
L77870 77367
L77842 77311
L77842 77255
L77870 77199
L77926 77171
L78067 77171
L78123 77142
" />
<path d="M78658 77395
L78658 76805
" />
<path d="M78658 77367
L78601 77395
L78489 77395
L78433 77367
L78404 77339
L78376 77283
L78376 77114
L78404 77058
L78433 77030
L78489 77002
L78601 77002
L78658 77030
" />
<path d="M79557 77620
L79529 77592
L79473 77508
L79445 77452
L79417 77367
L79389 77227
L79389 77114
L79417 76974
L79445 76889
L79473 76833
L79529 76749
L79557 76721
" />
<path d="M80064 76805
L79782 76805
L79754 77086
L79782 77058
L79839 77030
L79979 77030
L80036 77058
L80064 77086
L80092 77142
L80092 77283
L80064 77339
L80036 77367
L79979 77395
L79839 77395
L79782 77367
L79754 77339
" />
<path d="M80345 77339
L80373 77367
L80345 77395
L80317 77367
L80345 77339
L80345 77395
" />
<path d="M80739 76805
L80795 76805
L80851 76833
L80879 76861
L80907 76917
L80935 77030
L80935 77171
L80907 77283
L80879 77339
L80851 77367
L80795 77395
L80739 77395
L80682 77367
L80654 77339
L80626 77283
L80598 77171
L80598 77030
L80626 76917
L80654 76861
L80682 76833
L80739 76805
" />
<path d="M81188 77339
L81217 77367
L81188 77395
L81160 77367
L81188 77339
L81188 77395
" />
<path d="M81442 76861
L81470 76833
L81526 76805
L81667 76805
L81723 76833
L81751 76861
L81779 76917
L81779 76974
L81751 77058
L81413 77395
L81779 77395
" />
<path d="M81976 77620
L82004 77592
L82060 77508
L82088 77452
L82117 77367
L82145 77227
L82145 77114
L82117 76974
L82088 76889
L82060 76833
L82004 76749
L81976 76721
" />
<path d="M82426 77171
L82876 77171
" />
<path d="M83466 77395
L83129 77395
" />
<path d="M83298 77395
L83298 76805
L83241 76889
L83185 76946
L83129 76974
" />
</g>
<g style="fill:#000000; fill-opacity:0.0; 
stroke:#000000; stroke-width:39.3701; stroke-opacity:1; 
stroke-linecap:round; stroke-linejoin:round;">
</g>
<g style="fill:#000000; fill-opacity:0.0; 
stroke:#000000; stroke-width:59.0551; stroke-opacity:1; 
stroke-linecap:round; stroke-linejoin:round;">
<path d="M69685 75396
L112205 75396
" />
</g>
<g style="fill:#000000; fill-opacity:0.0; 
stroke:#000000; stroke-width:39.3701; stroke-opacity:1; 
stroke-linecap:round; stroke-linejoin:round;">
</g>
<g style="fill:#000000; fill-opacity:0.0; 
stroke:#000000; stroke-width:118.11; stroke-opacity:1; 
stroke-linecap:round; stroke-linejoin:round;">
<path d="M104099 76293
L103902 76012
" />
<path d="M103761 76293
L103761 75703
L103986 75703
L104042 75731
L104070 75759
L104099 75815
L104099 75899
L104070 75956
L104042 75984
L103986 76012
L103761 76012
" />
<path d="M104577 76265
L104520 76293
L104408 76293
L104352 76265
L104323 76209
L104323 75984
L104352 75928
L104408 75899
L104520 75899
L104577 75928
L104605 75984
L104605 76040
L104323 76096
" />
<path d="M104802 75899
L104942 76293
L105083 75899
" />
<path d="M105308 76237
L105336 76265
L105308 76293
L105280 76265
L105308 76237
L105308 76293
" />
<path d="M105308 75928
L105336 75956
L105308 75984
L105280 75956
L105308 75928
L105308 75984
" />
</g>
<g style="fill:#000000; fill-opacity:0.0; 
stroke:#000000; stroke-width:39.3701; stroke-opacity:1; 
stroke-linecap:round; stroke-linejoin:round;">
</g>
<g style="fill:#000000; fill-opacity:0.0; 
stroke:#000000; stroke-width:59.0551; stroke-opacity:1; 
stroke-linecap:round; stroke-linejoin:round;">
<path d="M70221 76265
L70305 76293
L70446 76293
L70502 76265
L70530 76237
L70559 76181
L70559 76124
L70530 76068
L70502 76040
L70446 76012
L70334 75984
L70277 75956
L70249 75928
L70221 75871
L70221 75815
L70249 75759
L70277 75731
L70334 75703
L70474 75703
L70559 75731
" />
<path d="M70812 76293
L70812 75899
" />
<path d="M70812 75703
L70784 75731
L70812 75759
L70840 75731
L70812 75703
L70812 75759
" />
<path d="M71037 75899
L71346 75899
L71037 76293
L71346 76293
" />
<path d="M71796 76265
L71740 76293
L71627 76293
L71571 76265
L71543 76209
L71543 75984
L71571 75928
L71627 75899
L71740 75899
L71796 75928
L71824 75984
L71824 76040
L71543 76096
" />
<path d="M72077 76237
L72105 76265
L72077 76293
L72049 76265
L72077 76237
L72077 76293
" />
<path d="M72077 75928
L72105 75956
L72077 75984
L72049 75956
L72077 75928
L72077 75984
" />
<path d="M72780 76124
L73061 76124
" />
<path d="M72724 76293
L72921 75703
L73118 76293
" />
<path d="M73568 75899
L73568 76293
" />
<path d="M73427 75674
L73286 76096
L73652 76096
" />
</g>
<g style="fill:#000000; fill-opacity:0.0; 
stroke:#000000; stroke-width:39.3701; stroke-opacity:1; 
stroke-linecap:round; stroke-linejoin:round;">
</g>
<g style="fill:#000000; fill-opacity:0.0; 
stroke:#000000; stroke-width:59.0551; stroke-opacity:1; 
stroke-linecap:round; stroke-linejoin:round;">
<path d="M103714 77395
L103714 76805
" />
<path d="M104248 77395
L104248 76805
" />
<path d="M104248 77367
L104192 77395
L104079 77395
L104023 77367
L103995 77339
L103967 77283
L103967 77114
L103995 77058
L104023 77030
L104079 77002
L104192 77002
L104248 77030
" />
<path d="M104529 77339
L104557 77367
L104529 77395
L104501 77367
L104529 77339
L104529 77395
" />
<path d="M104529 77030
L104557 77058
L104529 77086
L104501 77058
L104529 77030
L104529 77086
" />
<path d="M105570 77395
L105232 77395
" />
<path d="M105401 77395
L105401 76805
L105345 76889
L105289 76946
L105232 76974
" />
<path d="M106245 76777
L105739 77536
" />
<path d="M106751 77395
L106413 77395
" />
<path d="M106582 77395
L106582 76805
L106526 76889
L106470 76946
L106413 76974
" />
</g>
<g style="fill:#000000; fill-opacity:0.0; 
stroke:#000000; stroke-width:39.3701; stroke-opacity:1; 
stroke-linecap:round; stroke-linejoin:round;">
</g>
<g style="fill:#000000; fill-opacity:0.0; 
stroke:#000000; stroke-width:59.0551; stroke-opacity:1; 
stroke-linecap:round; stroke-linejoin:round;">
<path d="M69685 73821
L112205 73821
" />
</g>
<g style="fill:#000000; fill-opacity:0.0; 
stroke:#000000; stroke-width:39.3701; stroke-opacity:1; 
stroke-linecap:round; stroke-linejoin:round;">
</g>
<g style="fill:#000000; fill-opacity:0.0; 
stroke:#000000; stroke-width:157.48; stroke-opacity:1; 
stroke-linecap:round; stroke-linejoin:round;">
<path d="M70360 74099
L70810 74099
" />
<path d="M70486 74886
L70585 74099
" />
<path d="M70974 74886
L71039 74361
" />
<path d="M71072 74099
L71030 74136
L71063 74174
L71105 74136
L71072 74099
L71063 74174
" />
<path d="M71302 74361
L71602 74361
" />
<path d="M71447 74099
L71363 74774
L71391 74849
L71461 74886
L71536 74886
" />
<path d="M71911 74886
L71841 74849
L71813 74774
L71897 74099
" />
<path d="M72516 74849
L72436 74886
L72286 74886
L72216 74849
L72187 74774
L72225 74474
L72272 74399
L72352 74361
L72501 74361
L72572 74399
L72600 74474
L72591 74549
L72206 74624
" />
<path d="M72895 74811
L72928 74849
L72886 74886
L72853 74849
L72895 74811
L72886 74886
" />
<path d="M72947 74399
L72980 74436
L72937 74474
L72905 74436
L72947 74399
L72937 74474
" />
</g>
<g style="fill:#000000; fill-opacity:0.0; 
stroke:#000000; stroke-width:39.3701; stroke-opacity:1; 
stroke-linecap:round; stroke-linejoin:round;">
</g>
<g style="fill:#000000; fill-opacity:0.0; 
stroke:#000000; stroke-width:59.0551; stroke-opacity:1; 
stroke-linecap:round; stroke-linejoin:round;">
<path d="M70446 73070
L70249 73070
" />
<path d="M70249 73380
L70249 72789
L70530 72789
" />
<path d="M70755 73380
L70755 72986
" />
<path d="M70755 72789
L70727 72817
L70755 72845
L70784 72817
L70755 72789
L70755 72845
" />
<path d="M71121 73380
L71065 73352
L71037 73295
L71037 72789
" />
<path d="M71571 73352
L71515 73380
L71402 73380
L71346 73352
L71318 73295
L71318 73070
L71346 73014
L71402 72986
L71515 72986
L71571 73014
L71599 73070
L71599 73127
L71318 73183
" />
<path d="M71852 73323
L71880 73352
L71852 73380
L71824 73352
L71852 73323
L71852 73380
" />
<path d="M71852 73014
L71880 73042
L71852 73070
L71824 73042
L71852 73014
L71852 73070
" />
<path d="M72780 73070
L72583 73070
" />
<path d="M72583 73380
L72583 72789
L72865 72789
" />
<path d="M73090 73380
L73090 72986
" />
<path d="M73090 72789
L73061 72817
L73090 72845
L73118 72817
L73090 72789
L73090 72845
" />
<path d="M73371 73380
L73371 72986
" />
<path d="M73371 73099
L73399 73042
L73427 73014
L73483 72986
L73539 72986
" />
<path d="M73708 73352
L73764 73380
L73877 73380
L73933 73352
L73961 73295
L73961 73267
L73933 73211
L73877 73183
L73793 73183
L73736 73155
L73708 73099
L73708 73070
L73736 73014
L73793 72986
L73877 72986
L73933 73014
" />
<path d="M74130 72986
L74355 72986
" />
<path d="M74214 72789
L74214 73295
L74242 73352
L74299 73380
L74355 73380
" />
<path d="M74889 73323
L74861 73352
L74777 73380
L74721 73380
L74636 73352
L74580 73295
L74552 73239
L74524 73127
L74524 73042
L74552 72930
L74580 72874
L74636 72817
L74721 72789
L74777 72789
L74861 72817
L74889 72845
" />
<path d="M75227 73380
L75171 73352
L75142 73323
L75114 73267
L75114 73099
L75142 73042
L75171 73014
L75227 72986
L75311 72986
L75367 73014
L75395 73042
L75424 73099
L75424 73267
L75395 73323
L75367 73352
L75311 73380
L75227 73380
" />
<path d="M75677 72986
L75677 73380
" />
<path d="M75677 73042
L75705 73014
L75761 72986
L75845 72986
L75902 73014
L75930 73070
L75930 73380
" />
<path d="M76127 72986
L76352 72986
" />
<path d="M76211 72789
L76211 73295
L76239 73352
L76295 73380
L76352 73380
" />
<path d="M76802 73380
L76802 73070
L76773 73014
L76717 72986
L76605 72986
L76548 73014
" />
<path d="M76802 73352
L76745 73380
L76605 73380
L76548 73352
L76520 73295
L76520 73239
L76548 73183
L76605 73155
L76745 73155
L76802 73127
" />
<path d="M77336 73352
L77280 73380
L77167 73380
L77111 73352
L77083 73323
L77055 73267
L77055 73099
L77083 73042
L77111 73014
L77167 72986
L77280 72986
L77336 73014
" />
<path d="M77505 72986
L77730 72986
" />
<path d="M77589 72789
L77589 73295
L77617 73352
L77673 73380
L77730 73380
" />
<path d="M77926 73323
L77955 73352
L77926 73380
L77898 73352
L77926 73323
L77926 73380
" />
<path d="M78208 73380
L78208 72789
" />
<path d="M78264 73155
L78433 73380
" />
<path d="M78433 72986
L78208 73211
" />
<path d="M78686 73380
L78686 72986
" />
<path d="M78686 72789
L78658 72817
L78686 72845
L78714 72817
L78686 72789
L78686 72845
" />
<path d="M79220 73352
L79164 73380
L79051 73380
L78995 73352
L78967 73323
L78939 73267
L78939 73099
L78967 73042
L78995 73014
L79051 72986
L79164 72986
L79220 73014
" />
<path d="M79726 73380
L79726 73070
L79698 73014
L79642 72986
L79529 72986
L79473 73014
" />
<path d="M79726 73352
L79670 73380
L79529 73380
L79473 73352
L79445 73295
L79445 73239
L79473 73183
L79529 73155
L79670 73155
L79726 73127
" />
<path d="M80260 73380
L80260 72789
" />
<path d="M80260 73352
L80204 73380
L80092 73380
L80036 73352
L80007 73323
L79979 73267
L79979 73099
L80007 73042
L80036 73014
L80092 72986
L80204 72986
L80260 73014
" />
<path d="M80401 73436
L80851 73436
" />
<path d="M80992 72986
L80992 73577
" />
<path d="M80992 73014
L81048 72986
L81160 72986
L81217 73014
L81245 73042
L81273 73099
L81273 73267
L81245 73323
L81217 73352
L81160 73380
L81048 73380
L80992 73352
" />
<path d="M81779 73352
L81723 73380
L81610 73380
L81554 73352
L81526 73323
L81498 73267
L81498 73099
L81526 73042
L81554 73014
L81610 72986
L81723 72986
L81779 73014
" />
<path d="M82032 73380
L82032 72789
" />
<path d="M82032 73014
L82088 72986
L82201 72986
L82257 73014
L82285 73042
L82313 73099
L82313 73267
L82285 73323
L82257 73352
L82201 73380
L82088 73380
L82032 73352
" />
</g>
<g style="fill:#000000; fill-opacity:0.0; 
stroke:#000000; stroke-width:39.3701; stroke-opacity:1; 
stroke-linecap:round; stroke-linejoin:round;">
</g>
<g style="fill:#000000; fill-opacity:0.0; 
stroke:#000000; stroke-width:59.0551; stroke-opacity:1; 
stroke-linecap:round; stroke-linejoin:round;">
<path d="M69685 71459
L112205 71459
" />
</g>
<g style="fill:#000000; fill-opacity:0.0; 
stroke:#000000; stroke-width:39.3701; stroke-opacity:1; 
stroke-linecap:round; stroke-linejoin:round;">
</g>
<g style="fill:#000000; fill-opacity:0.0; 
stroke:#000000; stroke-width:59.0551; stroke-opacity:1; 
stroke-linecap:round; stroke-linejoin:round;">
<path d="M70221 72289
L70305 72317
L70446 72317
L70502 72289
L70530 72260
L70559 72204
L70559 72148
L70530 72092
L70502 72064
L70446 72036
L70334 72007
L70277 71979
L70249 71951
L70221 71895
L70221 71839
L70249 71782
L70277 71754
L70334 71726
L70474 71726
L70559 71754
" />
<path d="M70812 72317
L70812 71726
" />
<path d="M71065 72317
L71065 72007
L71037 71951
L70980 71923
L70896 71923
L70840 71951
L70812 71979
" />
<path d="M71571 72289
L71515 72317
L71402 72317
L71346 72289
L71318 72232
L71318 72007
L71346 71951
L71402 71923
L71515 71923
L71571 71951
L71599 72007
L71599 72064
L71318 72120
" />
<path d="M72077 72289
L72021 72317
L71908 72317
L71852 72289
L71824 72232
L71824 72007
L71852 71951
L71908 71923
L72021 71923
L72077 71951
L72105 72007
L72105 72064
L71824 72120
" />
<path d="M72274 71923
L72499 71923
" />
<path d="M72358 71726
L72358 72232
L72386 72289
L72443 72317
L72499 72317
" />
<path d="M72696 72260
L72724 72289
L72696 72317
L72668 72289
L72696 72260
L72696 72317
" />
<path d="M72696 71951
L72724 71979
L72696 72007
L72668 71979
L72696 71951
L72696 72007
" />
</g>
<g style="fill:#000000; fill-opacity:0.0; 
stroke:#000000; stroke-width:39.3701; stroke-opacity:1; 
stroke-linecap:round; stroke-linejoin:round;">
</g>
<g style="fill:#000000; fill-opacity:0.0; 
stroke:#000000; stroke-width:59.0551; stroke-opacity:1; 
stroke-linecap:round; stroke-linejoin:round;">
<path d="M77559 75396
L77559 76577
" />
</g>
<g style="fill:#000000; fill-opacity:0.0; 
stroke:#000000; stroke-width:39.3701; stroke-opacity:1; 
stroke-linecap:round; stroke-linejoin:round;">
</g>
<g style="fill:#000000; fill-opacity:0.0; 
stroke:#000000; stroke-width:59.0551; stroke-opacity:1; 
stroke-linecap:round; stroke-linejoin:round;">
<path d="M102756 75396
L102756 77955
" />
</g>
<g style="fill:#848484; fill-opacity:0.0; 
stroke:#848484; stroke-width:59.0551; stroke-opacity:1; 
stroke-linecap:round; stroke-linejoin:round;">
<path d="M68071 29272
L68071 16272
" />
<path d="M75071 29272
L68071 29272
" />
<path d="M75071 16272
L75071 29272
" />
<path d="M68071 16272
L75071 16272
" />
<path d="M67554 16772
L74554 16772
" />
<path d="M74554 16772
L74554 29772
" />
<path d="M74554 29772
L67554 29772
" />
<path d="M67554 29772
L67554 16772
" />
<path d="M44009 38528
L44009 29867
" />
<path d="M35348 38528
L44009 38528
" />
<path d="M35348 29867
L35348 38528
" />
<path d="M44009 29867
L35348 29867
" />
<path d="M51509 22367
L42848 22367
" />
<path d="M42848 22367
L42848 31028
" />
<path d="M42848 31028
L51509 31028
" />
<path d="M51509 31028
L51509 22367
" />
<path d="M70259 35492
L61598 35492
" />
<path d="M61598 35492
L61598 44153
" />
<path d="M61598 44153
L70259 44153
" />
<path d="M70259 44153
L70259 35492
" />
<path d="M51509 23528
L51509 14867
" />
<path d="M42848 23528
L51509 23528
" />
<path d="M42848 14867
L42848 23528
" />
<path d="M51509 14867
L42848 14867
" />
<path d="M51509 38528
L51509 29867
" />
<path d="M42848 38528
L51509 38528
" />
<path d="M42848 29867
L42848 38528
" />
<path d="M51509 29867
L42848 29867
" />
<path d="M59009 29153
L59009 20492
" />
<path d="M50348 29153
L59009 29153
" />
<path d="M50348 20492
L50348 29153
" />
<path d="M59009 20492
L50348 20492
" />
<path d="M59009 21653
L59009 12992
" />
<path d="M50348 21653
L59009 21653
" />
<path d="M50348 12992
L50348 21653
" />
<path d="M59009 12992
L50348 12992
" />
<path d="M59009 27992
L50348 27992
" />
<path d="M50348 27992
L50348 36653
" />
<path d="M50348 36653
L59009 36653
" />
<path d="M59009 36653
L59009 27992
" />
<path d="M66509 20492
L57848 20492
" />
<path d="M57848 20492
L57848 29153
" />
<path d="M57848 29153
L66509 29153
" />
<path d="M66509 29153
L66509 20492
" />
<path d="M66509 21653
L66509 12992
" />
<path d="M57848 21653
L66509 21653
" />
<path d="M57848 12992
L57848 21653
" />
<path d="M66509 12992
L57848 12992
" />
<path d="M66509 27992
L57848 27992
" />
<path d="M57848 27992
L57848 36653
" />
<path d="M57848 36653
L66509 36653
" />
<path d="M66509 36653
L66509 27992
" />
<path d="M72202 34519
L72483 34519
L72539 34537
L72577 34575
L72595 34631
L72595 34669
" />
<path d="M72595 34125
L72595 34350
" />
<path d="M72595 34237
L72202 34237
L72258 34275
L72295 34312
L72314 34350
" />
<path d="M66960 30146
L66829 29959
" />
<path d="M66735 30146
L66735 29752
L66885 29752
L66923 29771
L66941 29790
L66960 29827
L66960 29884
L66941 29921
L66923 29940
L66885 29959
L66735 29959
" />
<path d="M67129 29940
L67260 29940
" />
<path d="M67316 30146
L67129 30146
L67129 29752
L67316 29752
" />
<path d="M67466 30127
L67523 30146
L67616 30146
L67654 30127
L67673 30109
L67691 30071
L67691 30034
L67673 29996
L67654 29977
L67616 29959
L67541 29940
L67504 29921
L67485 29902
L67466 29865
L67466 29827
L67485 29790
L67504 29771
L67541 29752
L67635 29752
L67691 29771
" />
<path d="M67860 29940
L67991 29940
" />
<path d="M68047 30146
L67860 30146
L67860 29752
L68047 29752
" />
<path d="M68160 29752
L68385 29752
" />
<path d="M68272 30146
L68272 29752
" />
<path d="M68422 30184
L68722 30184
" />
<path d="M68797 30127
L68854 30146
L68947 30146
L68985 30127
L69004 30109
L69022 30071
L69022 30034
L69004 29996
L68985 29977
L68947 29959
L68872 29940
L68835 29921
L68816 29902
L68797 29865
L68797 29827
L68816 29790
L68835 29771
L68872 29752
L68966 29752
L69022 29771
" />
<path d="M69154 29752
L69247 30146
L69322 29865
L69397 30146
L69491 29752
" />
<path d="M69641 30146
L69641 29752
" />
<path d="M69772 29752
L69997 29752
" />
<path d="M69885 30146
L69885 29752
" />
<path d="M70353 30109
L70335 30127
L70278 30146
L70241 30146
L70185 30127
L70147 30090
L70128 30052
L70110 29977
L70110 29921
L70128 29846
L70147 29809
L70185 29771
L70241 29752
L70278 29752
L70335 29771
L70353 29790
" />
<path d="M70522 30146
L70522 29752
" />
<path d="M70522 29940
L70747 29940
" />
<path d="M70747 30146
L70747 29752
" />
<path d="M67344 14182
L67213 13994
" />
<path d="M67119 14182
L67119 13788
L67269 13788
L67307 13807
L67326 13825
L67344 13863
L67344 13919
L67326 13957
L67307 13975
L67269 13994
L67119 13994
" />
<path d="M67663 14163
L67626 14182
L67551 14182
L67513 14163
L67494 14125
L67494 13975
L67513 13938
L67551 13919
L67626 13919
L67663 13938
L67682 13975
L67682 14013
L67494 14050
" />
<path d="M67794 13919
L67944 13919
" />
<path d="M67851 14182
L67851 13844
L67869 13807
L67907 13788
L67944 13788
" />
<path d="M68132 13788
L68132 13882
" />
<path d="M68038 13844
L68132 13882
L68225 13844
" />
<path d="M68075 13957
L68132 13882
L68188 13957
" />
<path d="M68432 13788
L68432 13882
" />
<path d="M68338 13844
L68432 13882
L68525 13844
" />
<path d="M68375 13957
L68432 13882
L68488 13957
" />
<path d="M67091 16308
L67222 16701
L67354 16308
" />
<path d="M67654 16701
L67654 16495
L67635 16458
L67597 16439
L67522 16439
L67485 16458
" />
<path d="M67654 16682
L67616 16701
L67522 16701
L67485 16682
L67466 16645
L67466 16607
L67485 16570
L67522 16551
L67616 16551
L67654 16532
" />
<path d="M67897 16701
L67860 16682
L67841 16645
L67841 16308
" />
<path d="M68104 16308
L68104 16401
" />
<path d="M68010 16364
L68104 16401
L68197 16364
" />
<path d="M68047 16476
L68104 16401
L68160 16476
" />
<path d="M68404 16308
L68404 16401
" />
<path d="M68310 16364
L68404 16401
L68497 16364
" />
<path d="M68347 16476
L68404 16401
L68460 16476
" />
<path d="M67462 15441
L67331 15254
" />
<path d="M67237 15441
L67237 15048
L67387 15048
L67425 15066
L67444 15085
L67462 15123
L67462 15179
L67444 15216
L67425 15235
L67387 15254
L67237 15254
" />
<path d="M67781 15423
L67744 15441
L67669 15441
L67631 15423
L67612 15385
L67612 15235
L67631 15198
L67669 15179
L67744 15179
L67781 15198
L67800 15235
L67800 15273
L67612 15310
" />
<path d="M67912 15179
L68062 15179
" />
<path d="M67969 15441
L67969 15104
L67987 15066
L68025 15048
L68062 15048
" />
<path d="M68250 15048
L68250 15141
" />
<path d="M68156 15104
L68250 15141
L68344 15104
" />
<path d="M68194 15216
L68250 15141
L68306 15216
" />
<path d="M68550 15048
L68550 15141
" />
<path d="M68456 15104
L68550 15141
L68644 15104
" />
<path d="M68494 15216
L68550 15141
L68606 15216
" />
<path d="M71690 39772
L71559 39585
" />
<path d="M71465 39772
L71465 39378
L71615 39378
L71652 39397
L71671 39416
L71690 39453
L71690 39510
L71671 39547
L71652 39566
L71615 39585
L71465 39585
" />
<path d="M72008 39753
L71971 39772
L71896 39772
L71859 39753
L71840 39716
L71840 39566
L71859 39528
L71896 39510
L71971 39510
L72008 39528
L72027 39566
L72027 39603
L71840 39641
" />
<path d="M72140 39510
L72290 39510
" />
<path d="M72196 39772
L72196 39435
L72215 39397
L72252 39378
L72290 39378
" />
<path d="M72477 39378
L72477 39472
" />
<path d="M72383 39435
L72477 39472
L72571 39435
" />
<path d="M72421 39547
L72477 39472
L72533 39547
" />
<path d="M72777 39378
L72777 39472
" />
<path d="M72683 39435
L72777 39472
L72871 39435
" />
<path d="M72721 39547
L72777 39472
L72833 39547
" />
<path d="M71437 41898
L71568 42292
L71699 41898
" />
<path d="M71999 42292
L71999 42086
L71980 42048
L71943 42029
L71868 42029
L71830 42048
" />
<path d="M71999 42273
L71962 42292
L71868 42292
L71830 42273
L71812 42236
L71812 42198
L71830 42161
L71868 42142
L71962 42142
L71999 42123
" />
<path d="M72243 42292
L72205 42273
L72187 42236
L72187 41898
" />
<path d="M72449 41898
L72449 41992
" />
<path d="M72355 41954
L72449 41992
L72543 41954
" />
<path d="M72393 42067
L72449 41992
L72505 42067
" />
<path d="M72749 41898
L72749 41992
" />
<path d="M72655 41954
L72749 41992
L72843 41954
" />
<path d="M72693 42067
L72749 41992
L72805 42067
" />
<path d="M71808 41032
L71677 40844
" />
<path d="M71583 41032
L71583 40638
L71733 40638
L71770 40657
L71789 40676
L71808 40713
L71808 40769
L71789 40807
L71770 40826
L71733 40844
L71583 40844
" />
<path d="M72127 41013
L72089 41032
L72014 41032
L71977 41013
L71958 40976
L71958 40826
L71977 40788
L72014 40769
L72089 40769
L72127 40788
L72145 40826
L72145 40863
L71958 40901
" />
<path d="M72258 40769
L72408 40769
" />
<path d="M72314 41032
L72314 40694
L72333 40657
L72370 40638
L72408 40638
" />
<path d="M72595 40638
L72595 40732
" />
<path d="M72502 40694
L72595 40732
L72689 40694
" />
<path d="M72539 40807
L72595 40732
L72652 40807
" />
<path d="M72895 40638
L72895 40732
" />
<path d="M72802 40694
L72895 40732
L72989 40694
" />
<path d="M72839 40807
L72895 40732
L72952 40807
" />
<path d="M39800 39772
L39669 39585
" />
<path d="M39575 39772
L39575 39378
L39725 39378
L39763 39397
L39781 39416
L39800 39453
L39800 39510
L39781 39547
L39763 39566
L39725 39585
L39575 39585
" />
<path d="M40119 39753
L40081 39772
L40006 39772
L39969 39753
L39950 39716
L39950 39566
L39969 39528
L40006 39510
L40081 39510
L40119 39528
L40137 39566
L40137 39603
L39950 39641
" />
<path d="M40250 39510
L40400 39510
" />
<path d="M40306 39772
L40306 39435
L40325 39397
L40362 39378
L40400 39378
" />
<path d="M40587 39378
L40587 39472
" />
<path d="M40494 39435
L40587 39472
L40681 39435
" />
<path d="M40531 39547
L40587 39472
L40644 39547
" />
<path d="M40887 39378
L40887 39472
" />
<path d="M40794 39435
L40887 39472
L40981 39435
" />
<path d="M40831 39547
L40887 39472
L40944 39547
" />
<path d="M39547 41898
L39678 42292
L39809 41898
" />
<path d="M40109 42292
L40109 42086
L40091 42048
L40053 42029
L39978 42029
L39941 42048
" />
<path d="M40109 42273
L40072 42292
L39978 42292
L39941 42273
L39922 42236
L39922 42198
L39941 42161
L39978 42142
L40072 42142
L40109 42123
" />
<path d="M40353 42292
L40316 42273
L40297 42236
L40297 41898
" />
<path d="M40559 41898
L40559 41992
" />
<path d="M40466 41954
L40559 41992
L40653 41954
" />
<path d="M40503 42067
L40559 41992
L40616 42067
" />
<path d="M40859 41898
L40859 41992
" />
<path d="M40766 41954
L40859 41992
L40953 41954
" />
<path d="M40803 42067
L40859 41992
L40916 42067
" />
<path d="M39918 41032
L39787 40844
" />
<path d="M39693 41032
L39693 40638
L39843 40638
L39881 40657
L39899 40676
L39918 40713
L39918 40769
L39899 40807
L39881 40826
L39843 40844
L39693 40844
" />
<path d="M40237 41013
L40199 41032
L40124 41032
L40087 41013
L40068 40976
L40068 40826
L40087 40788
L40124 40769
L40199 40769
L40237 40788
L40256 40826
L40256 40863
L40068 40901
" />
<path d="M40368 40769
L40518 40769
" />
<path d="M40424 41032
L40424 40694
L40443 40657
L40481 40638
L40518 40638
" />
<path d="M40706 40638
L40706 40732
" />
<path d="M40612 40694
L40706 40732
L40799 40694
" />
<path d="M40649 40807
L40706 40732
L40762 40807
" />
<path d="M41005 40638
L41005 40732
" />
<path d="M40912 40694
L41005 40732
L41099 40694
" />
<path d="M40949 40807
L41005 40732
L41062 40807
" />
<path d="M41375 14182
L41244 13994
" />
<path d="M41150 14182
L41150 13788
L41300 13788
L41337 13807
L41356 13825
L41375 13863
L41375 13919
L41356 13957
L41337 13975
L41300 13994
L41150 13994
" />
<path d="M41694 14163
L41656 14182
L41581 14182
L41544 14163
L41525 14125
L41525 13975
L41544 13938
L41581 13919
L41656 13919
L41694 13938
L41712 13975
L41712 14013
L41525 14050
" />
<path d="M41825 13919
L41975 13919
" />
<path d="M41881 14182
L41881 13844
L41900 13807
L41937 13788
L41975 13788
" />
<path d="M42162 13788
L42162 13882
" />
<path d="M42068 13844
L42162 13882
L42256 13844
" />
<path d="M42106 13957
L42162 13882
L42218 13957
" />
<path d="M42462 13788
L42462 13882
" />
<path d="M42368 13844
L42462 13882
L42556 13844
" />
<path d="M42406 13957
L42462 13882
L42518 13957
" />
<path d="M41122 16308
L41253 16701
L41384 16308
" />
<path d="M41684 16701
L41684 16495
L41665 16458
L41628 16439
L41553 16439
L41515 16458
" />
<path d="M41684 16682
L41647 16701
L41553 16701
L41515 16682
L41497 16645
L41497 16607
L41515 16570
L41553 16551
L41647 16551
L41684 16532
" />
<path d="M41928 16701
L41890 16682
L41872 16645
L41872 16308
" />
<path d="M42134 16308
L42134 16401
" />
<path d="M42040 16364
L42134 16401
L42228 16364
" />
<path d="M42078 16476
L42134 16401
L42190 16476
" />
<path d="M42434 16308
L42434 16401
" />
<path d="M42340 16364
L42434 16401
L42528 16364
" />
<path d="M42378 16476
L42434 16401
L42490 16476
" />
<path d="M41493 15441
L41362 15254
" />
<path d="M41268 15441
L41268 15048
L41418 15048
L41455 15066
L41474 15085
L41493 15123
L41493 15179
L41474 15216
L41455 15235
L41418 15254
L41268 15254
" />
<path d="M41812 15423
L41774 15441
L41699 15441
L41662 15423
L41643 15385
L41643 15235
L41662 15198
L41699 15179
L41774 15179
L41812 15198
L41830 15235
L41830 15273
L41643 15310
" />
<path d="M41943 15179
L42093 15179
" />
<path d="M41999 15441
L41999 15104
L42018 15066
L42055 15048
L42093 15048
" />
<path d="M42280 15048
L42280 15141
" />
<path d="M42187 15104
L42280 15141
L42374 15104
" />
<path d="M42224 15216
L42280 15141
L42337 15216
" />
<path d="M42580 15048
L42580 15141
" />
<path d="M42487 15104
L42580 15141
L42674 15104
" />
<path d="M42524 15216
L42580 15141
L42637 15216
" />
</g>
<g style="fill:#000000; fill-opacity:0.0; 
stroke:#000000; stroke-width:59.0551; stroke-opacity:1; 
stroke-linecap:round; stroke-linejoin:round;">
</g>
<g style="fill:#C2C200; fill-opacity:0.0; 
stroke:#C2C200; stroke-width:59.0551; stroke-opacity:1; 
stroke-linecap:round; stroke-linejoin:round;">
<path d="M76874 34161
L76874 17625
" />
<path d="M69787 15263
L69787 13688
" />
<path d="M74511 15263
L69787 15263
" />
<path d="M76874 17625
L74511 15263
" />
<path d="M74905 36129
L76874 34161
" />
<path d="M74905 43216
L74905 36129
" />
<path d="M73724 44397
L74905 43216
" />
<path d="M41834 44397
L73724 44397
" />
<path d="M35141 39279
L41834 44397
" />
<path d="M35141 22744
L35141 39279
" />
<path d="M41440 12507
L35141 22744
" />
<path d="M68212 12507
L41440 12507
" />
<path d="M69787 13688
L68212 12507
" />
</g> 
</svg>
