<?xml version="1.0" standalone="no"?>
 <!DOCTYPE svg PUBLIC "-//W3C//DTD SVG 1.1//EN" 
 "http://www.w3.org/Graphics/SVG/1.1/DTD/svg11.dtd"> 
<svg xmlns="http://www.w3.org/2000/svg" version="1.1" 
    width="29.7002cm" height="21.0007cm" viewBox="0 0 116930 82680 ">
<title>SVG Picture created as FirstContact-Dwgs.User.svg date 2019/04/01 22:18:07 </title>
  <desc>Picture generated by PCBNEW </desc>
<g style="fill:#000000; fill-opacity:1;stroke:#000000; stroke-opacity:1;
stroke-linecap:round; stroke-linejoin:round; "
 transform="translate(0 0) scale(1 1)">
</g>
<g style="fill:#000000; fill-opacity:0.0; 
stroke:#000000; stroke-width:-0.000393701; stroke-opacity:1; 
stroke-linecap:round; stroke-linejoin:round;">
</g>
<g style="fill:#000000; fill-opacity:0.0; 
stroke:#000000; stroke-width:39.3701; stroke-opacity:1; 
stroke-linecap:round; stroke-linejoin:round;">
</g>
<g style="fill:#000000; fill-opacity:0.0; 
stroke:#000000; stroke-width:59.0551; stroke-opacity:1; 
stroke-linecap:round; stroke-linejoin:round;">
<rect x="69685.9" y="65357.2" width="42519.7" height="12598.4" rx="0" />
</g>
<g style="fill:#000000; fill-opacity:0.0; 
stroke:#000000; stroke-width:39.3701; stroke-opacity:1; 
stroke-linecap:round; stroke-linejoin:round;">
</g>
<g style="fill:#000000; fill-opacity:0.0; 
stroke:#000000; stroke-width:59.0551; stroke-opacity:1; 
stroke-linecap:round; stroke-linejoin:round;">
<rect x="3937.01" y="3937.01" width="109056" height="74806" rx="0" />
</g>
<g style="fill:#000000; fill-opacity:0.0; 
stroke:#000000; stroke-width:39.3701; stroke-opacity:1; 
stroke-linecap:round; stroke-linejoin:round;">
</g>
<g style="fill:#000000; fill-opacity:0.0; 
stroke:#000000; stroke-width:59.0551; stroke-opacity:1; 
stroke-linecap:round; stroke-linejoin:round;">
<rect x="4724.41" y="4724.41" width="107481" height="73231.2" rx="0" />
</g>
<g style="fill:#000000; fill-opacity:0.0; 
stroke:#000000; stroke-width:39.3701; stroke-opacity:1; 
stroke-linecap:round; stroke-linejoin:round;">
</g>
<g style="fill:#000000; fill-opacity:0.0; 
stroke:#000000; stroke-width:59.0551; stroke-opacity:1; 
stroke-linecap:round; stroke-linejoin:round;">
<path d="M23622 4724
L23622 3937
" />
</g>
<g style="fill:#000000; fill-opacity:0.0; 
stroke:#000000; stroke-width:39.3701; stroke-opacity:1; 
stroke-linecap:round; stroke-linejoin:round;">
</g>
<g style="fill:#000000; fill-opacity:0.0; 
stroke:#000000; stroke-width:59.0551; stroke-opacity:1; 
stroke-linecap:round; stroke-linejoin:round;">
<path d="M43307 4724
L43307 3937
" />
</g>
<g style="fill:#000000; fill-opacity:0.0; 
stroke:#000000; stroke-width:39.3701; stroke-opacity:1; 
stroke-linecap:round; stroke-linejoin:round;">
</g>
<g style="fill:#000000; fill-opacity:0.0; 
stroke:#000000; stroke-width:59.0551; stroke-opacity:1; 
stroke-linecap:round; stroke-linejoin:round;">
<path d="M62992 4724
L62992 3937
" />
</g>
<g style="fill:#000000; fill-opacity:0.0; 
stroke:#000000; stroke-width:39.3701; stroke-opacity:1; 
stroke-linecap:round; stroke-linejoin:round;">
</g>
<g style="fill:#000000; fill-opacity:0.0; 
stroke:#000000; stroke-width:59.0551; stroke-opacity:1; 
stroke-linecap:round; stroke-linejoin:round;">
<path d="M82677 4724
L82677 3937
" />
</g>
<g style="fill:#000000; fill-opacity:0.0; 
stroke:#000000; stroke-width:39.3701; stroke-opacity:1; 
stroke-linecap:round; stroke-linejoin:round;">
</g>
<g style="fill:#000000; fill-opacity:0.0; 
stroke:#000000; stroke-width:59.0551; stroke-opacity:1; 
stroke-linecap:round; stroke-linejoin:round;">
<path d="M102362 4724
L102362 3937
" />
</g>
<g style="fill:#000000; fill-opacity:0.0; 
stroke:#000000; stroke-width:39.3701; stroke-opacity:1; 
stroke-linecap:round; stroke-linejoin:round;">
</g>
<g style="fill:#000000; fill-opacity:0.0; 
stroke:#000000; stroke-width:59.0551; stroke-opacity:1; 
stroke-linecap:round; stroke-linejoin:round;">
<path d="M14199 4562
L13906 4562
" />
<path d="M14052 4562
L14052 4050
L14004 4123
L13955 4172
L13906 4196
" />
</g>
<g style="fill:#000000; fill-opacity:0.0; 
stroke:#000000; stroke-width:39.3701; stroke-opacity:1; 
stroke-linecap:round; stroke-linejoin:round;">
</g>
<g style="fill:#000000; fill-opacity:0.0; 
stroke:#000000; stroke-width:59.0551; stroke-opacity:1; 
stroke-linecap:round; stroke-linejoin:round;">
<path d="M33591 4099
L33615 4074
L33664 4050
L33786 4050
L33835 4074
L33859 4099
L33884 4147
L33884 4196
L33859 4269
L33567 4562
L33884 4562
" />
</g>
<g style="fill:#000000; fill-opacity:0.0; 
stroke:#000000; stroke-width:39.3701; stroke-opacity:1; 
stroke-linecap:round; stroke-linejoin:round;">
</g>
<g style="fill:#000000; fill-opacity:0.0; 
stroke:#000000; stroke-width:59.0551; stroke-opacity:1; 
stroke-linecap:round; stroke-linejoin:round;">
<path d="M53252 4050
L53569 4050
L53398 4245
L53471 4245
L53520 4269
L53544 4294
L53569 4342
L53569 4464
L53544 4513
L53520 4537
L53471 4562
L53325 4562
L53276 4537
L53252 4513
" />
</g>
<g style="fill:#000000; fill-opacity:0.0; 
stroke:#000000; stroke-width:39.3701; stroke-opacity:1; 
stroke-linecap:round; stroke-linejoin:round;">
</g>
<g style="fill:#000000; fill-opacity:0.0; 
stroke:#000000; stroke-width:59.0551; stroke-opacity:1; 
stroke-linecap:round; stroke-linejoin:round;">
<path d="M73205 4221
L73205 4562
" />
<path d="M73083 4026
L72961 4391
L73278 4391
" />
</g>
<g style="fill:#000000; fill-opacity:0.0; 
stroke:#000000; stroke-width:39.3701; stroke-opacity:1; 
stroke-linecap:round; stroke-linejoin:round;">
</g>
<g style="fill:#000000; fill-opacity:0.0; 
stroke:#000000; stroke-width:59.0551; stroke-opacity:1; 
stroke-linecap:round; stroke-linejoin:round;">
<path d="M92914 4050
L92671 4050
L92646 4294
L92671 4269
L92719 4245
L92841 4245
L92890 4269
L92914 4294
L92939 4342
L92939 4464
L92914 4513
L92890 4537
L92841 4562
L92719 4562
L92671 4537
L92646 4513
" />
</g>
<g style="fill:#000000; fill-opacity:0.0; 
stroke:#000000; stroke-width:39.3701; stroke-opacity:1; 
stroke-linecap:round; stroke-linejoin:round;">
</g>
<g style="fill:#000000; fill-opacity:0.0; 
stroke:#000000; stroke-width:59.0551; stroke-opacity:1; 
stroke-linecap:round; stroke-linejoin:round;">
<path d="M112575 4050
L112477 4050
L112429 4074
L112404 4099
L112356 4172
L112331 4269
L112331 4464
L112356 4513
L112380 4537
L112429 4562
L112526 4562
L112575 4537
L112599 4513
L112624 4464
L112624 4342
L112599 4294
L112575 4269
L112526 4245
L112429 4245
L112380 4269
L112356 4294
L112331 4342
" />
</g>
<g style="fill:#000000; fill-opacity:0.0; 
stroke:#000000; stroke-width:39.3701; stroke-opacity:1; 
stroke-linecap:round; stroke-linejoin:round;">
</g>
<g style="fill:#000000; fill-opacity:0.0; 
stroke:#000000; stroke-width:59.0551; stroke-opacity:1; 
stroke-linecap:round; stroke-linejoin:round;">
<path d="M23622 77955
L23622 78742
" />
</g>
<g style="fill:#000000; fill-opacity:0.0; 
stroke:#000000; stroke-width:39.3701; stroke-opacity:1; 
stroke-linecap:round; stroke-linejoin:round;">
</g>
<g style="fill:#000000; fill-opacity:0.0; 
stroke:#000000; stroke-width:59.0551; stroke-opacity:1; 
stroke-linecap:round; stroke-linejoin:round;">
<path d="M43307 77955
L43307 78742
" />
</g>
<g style="fill:#000000; fill-opacity:0.0; 
stroke:#000000; stroke-width:39.3701; stroke-opacity:1; 
stroke-linecap:round; stroke-linejoin:round;">
</g>
<g style="fill:#000000; fill-opacity:0.0; 
stroke:#000000; stroke-width:59.0551; stroke-opacity:1; 
stroke-linecap:round; stroke-linejoin:round;">
<path d="M62992 77955
L62992 78742
" />
</g>
<g style="fill:#000000; fill-opacity:0.0; 
stroke:#000000; stroke-width:39.3701; stroke-opacity:1; 
stroke-linecap:round; stroke-linejoin:round;">
</g>
<g style="fill:#000000; fill-opacity:0.0; 
stroke:#000000; stroke-width:59.0551; stroke-opacity:1; 
stroke-linecap:round; stroke-linejoin:round;">
<path d="M82677 77955
L82677 78742
" />
</g>
<g style="fill:#000000; fill-opacity:0.0; 
stroke:#000000; stroke-width:39.3701; stroke-opacity:1; 
stroke-linecap:round; stroke-linejoin:round;">
</g>
<g style="fill:#000000; fill-opacity:0.0; 
stroke:#000000; stroke-width:59.0551; stroke-opacity:1; 
stroke-linecap:round; stroke-linejoin:round;">
<path d="M102362 77955
L102362 78742
" />
</g>
<g style="fill:#000000; fill-opacity:0.0; 
stroke:#000000; stroke-width:39.3701; stroke-opacity:1; 
stroke-linecap:round; stroke-linejoin:round;">
</g>
<g style="fill:#000000; fill-opacity:0.0; 
stroke:#000000; stroke-width:59.0551; stroke-opacity:1; 
stroke-linecap:round; stroke-linejoin:round;">
<path d="M14199 78580
L13906 78580
" />
<path d="M14052 78580
L14052 78069
L14004 78142
L13955 78190
L13906 78215
" />
</g>
<g style="fill:#000000; fill-opacity:0.0; 
stroke:#000000; stroke-width:39.3701; stroke-opacity:1; 
stroke-linecap:round; stroke-linejoin:round;">
</g>
<g style="fill:#000000; fill-opacity:0.0; 
stroke:#000000; stroke-width:59.0551; stroke-opacity:1; 
stroke-linecap:round; stroke-linejoin:round;">
<path d="M33591 78117
L33615 78093
L33664 78069
L33786 78069
L33835 78093
L33859 78117
L33884 78166
L33884 78215
L33859 78288
L33567 78580
L33884 78580
" />
</g>
<g style="fill:#000000; fill-opacity:0.0; 
stroke:#000000; stroke-width:39.3701; stroke-opacity:1; 
stroke-linecap:round; stroke-linejoin:round;">
</g>
<g style="fill:#000000; fill-opacity:0.0; 
stroke:#000000; stroke-width:59.0551; stroke-opacity:1; 
stroke-linecap:round; stroke-linejoin:round;">
<path d="M53252 78069
L53569 78069
L53398 78263
L53471 78263
L53520 78288
L53544 78312
L53569 78361
L53569 78483
L53544 78532
L53520 78556
L53471 78580
L53325 78580
L53276 78556
L53252 78532
" />
</g>
<g style="fill:#000000; fill-opacity:0.0; 
stroke:#000000; stroke-width:39.3701; stroke-opacity:1; 
stroke-linecap:round; stroke-linejoin:round;">
</g>
<g style="fill:#000000; fill-opacity:0.0; 
stroke:#000000; stroke-width:59.0551; stroke-opacity:1; 
stroke-linecap:round; stroke-linejoin:round;">
<path d="M73205 78239
L73205 78580
" />
<path d="M73083 78044
L72961 78410
L73278 78410
" />
</g>
<g style="fill:#000000; fill-opacity:0.0; 
stroke:#000000; stroke-width:39.3701; stroke-opacity:1; 
stroke-linecap:round; stroke-linejoin:round;">
</g>
<g style="fill:#000000; fill-opacity:0.0; 
stroke:#000000; stroke-width:59.0551; stroke-opacity:1; 
stroke-linecap:round; stroke-linejoin:round;">
<path d="M92914 78069
L92671 78069
L92646 78312
L92671 78288
L92719 78263
L92841 78263
L92890 78288
L92914 78312
L92939 78361
L92939 78483
L92914 78532
L92890 78556
L92841 78580
L92719 78580
L92671 78556
L92646 78532
" />
</g>
<g style="fill:#000000; fill-opacity:0.0; 
stroke:#000000; stroke-width:39.3701; stroke-opacity:1; 
stroke-linecap:round; stroke-linejoin:round;">
</g>
<g style="fill:#000000; fill-opacity:0.0; 
stroke:#000000; stroke-width:59.0551; stroke-opacity:1; 
stroke-linecap:round; stroke-linejoin:round;">
<path d="M112575 78069
L112477 78069
L112429 78093
L112404 78117
L112356 78190
L112331 78288
L112331 78483
L112356 78532
L112380 78556
L112429 78580
L112526 78580
L112575 78556
L112599 78532
L112624 78483
L112624 78361
L112599 78312
L112575 78288
L112526 78263
L112429 78263
L112380 78288
L112356 78312
L112331 78361
" />
</g>
<g style="fill:#000000; fill-opacity:0.0; 
stroke:#000000; stroke-width:39.3701; stroke-opacity:1; 
stroke-linecap:round; stroke-linejoin:round;">
</g>
<g style="fill:#000000; fill-opacity:0.0; 
stroke:#000000; stroke-width:59.0551; stroke-opacity:1; 
stroke-linecap:round; stroke-linejoin:round;">
<path d="M3937 23622
L4724 23622
" />
</g>
<g style="fill:#000000; fill-opacity:0.0; 
stroke:#000000; stroke-width:39.3701; stroke-opacity:1; 
stroke-linecap:round; stroke-linejoin:round;">
</g>
<g style="fill:#000000; fill-opacity:0.0; 
stroke:#000000; stroke-width:59.0551; stroke-opacity:1; 
stroke-linecap:round; stroke-linejoin:round;">
<path d="M3937 43307
L4724 43307
" />
</g>
<g style="fill:#000000; fill-opacity:0.0; 
stroke:#000000; stroke-width:39.3701; stroke-opacity:1; 
stroke-linecap:round; stroke-linejoin:round;">
</g>
<g style="fill:#000000; fill-opacity:0.0; 
stroke:#000000; stroke-width:59.0551; stroke-opacity:1; 
stroke-linecap:round; stroke-linejoin:round;">
<path d="M3937 62992
L4724 62992
" />
</g>
<g style="fill:#000000; fill-opacity:0.0; 
stroke:#000000; stroke-width:39.3701; stroke-opacity:1; 
stroke-linecap:round; stroke-linejoin:round;">
</g>
<g style="fill:#000000; fill-opacity:0.0; 
stroke:#000000; stroke-width:59.0551; stroke-opacity:1; 
stroke-linecap:round; stroke-linejoin:round;">
<path d="M4208 13864
L4452 13864
" />
<path d="M4160 14011
L4330 13499
L4501 14011
" />
</g>
<g style="fill:#000000; fill-opacity:0.0; 
stroke:#000000; stroke-width:39.3701; stroke-opacity:1; 
stroke-linecap:round; stroke-linejoin:round;">
</g>
<g style="fill:#000000; fill-opacity:0.0; 
stroke:#000000; stroke-width:59.0551; stroke-opacity:1; 
stroke-linecap:round; stroke-linejoin:round;">
<path d="M4367 33428
L4440 33452
L4464 33476
L4489 33525
L4489 33598
L4464 33647
L4440 33671
L4391 33696
L4196 33696
L4196 33184
L4367 33184
L4416 33208
L4440 33233
L4464 33281
L4464 33330
L4440 33379
L4416 33403
L4367 33428
L4196 33428
" />
</g>
<g style="fill:#000000; fill-opacity:0.0; 
stroke:#000000; stroke-width:39.3701; stroke-opacity:1; 
stroke-linecap:round; stroke-linejoin:round;">
</g>
<g style="fill:#000000; fill-opacity:0.0; 
stroke:#000000; stroke-width:59.0551; stroke-opacity:1; 
stroke-linecap:round; stroke-linejoin:round;">
<path d="M4489 53332
L4464 53356
L4391 53381
L4342 53381
L4269 53356
L4221 53308
L4196 53259
L4172 53161
L4172 53088
L4196 52991
L4221 52942
L4269 52893
L4342 52869
L4391 52869
L4464 52893
L4489 52918
" />
</g>
<g style="fill:#000000; fill-opacity:0.0; 
stroke:#000000; stroke-width:39.3701; stroke-opacity:1; 
stroke-linecap:round; stroke-linejoin:round;">
</g>
<g style="fill:#000000; fill-opacity:0.0; 
stroke:#000000; stroke-width:59.0551; stroke-opacity:1; 
stroke-linecap:round; stroke-linejoin:round;">
<path d="M4196 73066
L4196 72554
L4318 72554
L4391 72578
L4440 72627
L4464 72676
L4489 72773
L4489 72846
L4464 72944
L4440 72993
L4391 73041
L4318 73066
L4196 73066
" />
</g>
<g style="fill:#000000; fill-opacity:0.0; 
stroke:#000000; stroke-width:39.3701; stroke-opacity:1; 
stroke-linecap:round; stroke-linejoin:round;">
</g>
<g style="fill:#000000; fill-opacity:0.0; 
stroke:#000000; stroke-width:59.0551; stroke-opacity:1; 
stroke-linecap:round; stroke-linejoin:round;">
<path d="M112992 23622
L112205 23622
" />
</g>
<g style="fill:#000000; fill-opacity:0.0; 
stroke:#000000; stroke-width:39.3701; stroke-opacity:1; 
stroke-linecap:round; stroke-linejoin:round;">
</g>
<g style="fill:#000000; fill-opacity:0.0; 
stroke:#000000; stroke-width:59.0551; stroke-opacity:1; 
stroke-linecap:round; stroke-linejoin:round;">
<path d="M112992 43307
L112205 43307
" />
</g>
<g style="fill:#000000; fill-opacity:0.0; 
stroke:#000000; stroke-width:39.3701; stroke-opacity:1; 
stroke-linecap:round; stroke-linejoin:round;">
</g>
<g style="fill:#000000; fill-opacity:0.0; 
stroke:#000000; stroke-width:59.0551; stroke-opacity:1; 
stroke-linecap:round; stroke-linejoin:round;">
<path d="M112992 62992
L112205 62992
" />
</g>
<g style="fill:#000000; fill-opacity:0.0; 
stroke:#000000; stroke-width:39.3701; stroke-opacity:1; 
stroke-linecap:round; stroke-linejoin:round;">
</g>
<g style="fill:#000000; fill-opacity:0.0; 
stroke:#000000; stroke-width:59.0551; stroke-opacity:1; 
stroke-linecap:round; stroke-linejoin:round;">
<path d="M112477 13864
L112721 13864
" />
<path d="M112428 14011
L112599 13499
L112769 14011
" />
</g>
<g style="fill:#000000; fill-opacity:0.0; 
stroke:#000000; stroke-width:39.3701; stroke-opacity:1; 
stroke-linecap:round; stroke-linejoin:round;">
</g>
<g style="fill:#000000; fill-opacity:0.0; 
stroke:#000000; stroke-width:59.0551; stroke-opacity:1; 
stroke-linecap:round; stroke-linejoin:round;">
<path d="M112635 33428
L112708 33452
L112733 33476
L112757 33525
L112757 33598
L112733 33647
L112708 33671
L112660 33696
L112465 33696
L112465 33184
L112635 33184
L112684 33208
L112708 33233
L112733 33281
L112733 33330
L112708 33379
L112684 33403
L112635 33428
L112465 33428
" />
</g>
<g style="fill:#000000; fill-opacity:0.0; 
stroke:#000000; stroke-width:39.3701; stroke-opacity:1; 
stroke-linecap:round; stroke-linejoin:round;">
</g>
<g style="fill:#000000; fill-opacity:0.0; 
stroke:#000000; stroke-width:59.0551; stroke-opacity:1; 
stroke-linecap:round; stroke-linejoin:round;">
<path d="M112757 53332
L112733 53356
L112660 53381
L112611 53381
L112538 53356
L112489 53308
L112465 53259
L112440 53161
L112440 53088
L112465 52991
L112489 52942
L112538 52893
L112611 52869
L112660 52869
L112733 52893
L112757 52918
" />
</g>
<g style="fill:#000000; fill-opacity:0.0; 
stroke:#000000; stroke-width:39.3701; stroke-opacity:1; 
stroke-linecap:round; stroke-linejoin:round;">
</g>
<g style="fill:#000000; fill-opacity:0.0; 
stroke:#000000; stroke-width:59.0551; stroke-opacity:1; 
stroke-linecap:round; stroke-linejoin:round;">
<path d="M112465 73066
L112465 72554
L112587 72554
L112660 72578
L112708 72627
L112733 72676
L112757 72773
L112757 72846
L112733 72944
L112708 72993
L112660 73041
L112587 73066
L112465 73066
" />
</g>
<g style="fill:#000000; fill-opacity:0.0; 
stroke:#000000; stroke-width:39.3701; stroke-opacity:1; 
stroke-linecap:round; stroke-linejoin:round;">
</g>
<g style="fill:#000000; fill-opacity:0.0; 
stroke:#000000; stroke-width:59.0551; stroke-opacity:1; 
stroke-linecap:round; stroke-linejoin:round;">
<path d="M78911 76293
L78911 75703
L79051 75703
L79136 75731
L79192 75787
L79220 75843
L79248 75956
L79248 76040
L79220 76153
L79192 76209
L79136 76265
L79051 76293
L78911 76293
" />
<path d="M79754 76293
L79754 75984
L79726 75928
L79670 75899
L79557 75899
L79501 75928
" />
<path d="M79754 76265
L79698 76293
L79557 76293
L79501 76265
L79473 76209
L79473 76153
L79501 76096
L79557 76068
L79698 76068
L79754 76040
" />
<path d="M79951 75899
L80176 75899
" />
<path d="M80036 75703
L80036 76209
L80064 76265
L80120 76293
L80176 76293
" />
<path d="M80598 76265
L80542 76293
L80429 76293
L80373 76265
L80345 76209
L80345 75984
L80373 75928
L80429 75899
L80542 75899
L80598 75928
L80626 75984
L80626 76040
L80345 76096
" />
<path d="M80879 76237
L80907 76265
L80879 76293
L80851 76265
L80879 76237
L80879 76293
" />
<path d="M80879 75928
L80907 75956
L80879 75984
L80851 75956
L80879 75928
L80879 75984
" />
</g>
<g style="fill:#000000; fill-opacity:0.0; 
stroke:#000000; stroke-width:39.3701; stroke-opacity:1; 
stroke-linecap:round; stroke-linejoin:round;">
</g>
<g style="fill:#000000; fill-opacity:0.0; 
stroke:#000000; stroke-width:59.0551; stroke-opacity:1; 
stroke-linecap:round; stroke-linejoin:round;">
<path d="M69685 76577
L112205 76577
" />
</g>
<g style="fill:#000000; fill-opacity:0.0; 
stroke:#000000; stroke-width:39.3701; stroke-opacity:1; 
stroke-linecap:round; stroke-linejoin:round;">
</g>
<g style="fill:#000000; fill-opacity:0.0; 
stroke:#000000; stroke-width:59.0551; stroke-opacity:1; 
stroke-linecap:round; stroke-linejoin:round;">
<path d="M70249 77395
L70249 76805
" />
<path d="M70587 77395
L70334 77058
" />
<path d="M70587 76805
L70249 77142
" />
<path d="M70840 77395
L70840 77002
" />
<path d="M70840 76805
L70812 76833
L70840 76861
L70868 76833
L70840 76805
L70840 76861
" />
<path d="M71458 77339
L71430 77367
L71346 77395
L71290 77395
L71205 77367
L71149 77311
L71121 77255
L71093 77142
L71093 77058
L71121 76946
L71149 76889
L71205 76833
L71290 76805
L71346 76805
L71430 76833
L71458 76861
" />
<path d="M71965 77395
L71965 77086
L71937 77030
L71880 77002
L71768 77002
L71712 77030
" />
<path d="M71965 77367
L71908 77395
L71768 77395
L71712 77367
L71683 77311
L71683 77255
L71712 77199
L71768 77171
L71908 77171
L71965 77142
" />
<path d="M72499 77395
L72499 76805
" />
<path d="M72499 77367
L72443 77395
L72330 77395
L72274 77367
L72246 77339
L72218 77283
L72218 77114
L72246 77058
L72274 77030
L72330 77002
L72443 77002
L72499 77030
" />
<path d="M73230 77086
L73427 77086
" />
<path d="M73511 77395
L73230 77395
L73230 76805
L73511 76805
" />
<path d="M73764 77339
L73793 77367
L73764 77395
L73736 77367
L73764 77339
L73764 77395
" />
<path d="M74046 77395
L74046 76805
L74186 76805
L74271 76833
L74327 76889
L74355 76946
L74383 77058
L74383 77142
L74355 77255
L74327 77311
L74271 77367
L74186 77395
L74046 77395
" />
<path d="M74636 77339
L74664 77367
L74636 77395
L74608 77367
L74636 77339
L74636 77395
" />
<path d="M74889 77227
L75171 77227
" />
<path d="M74833 77395
L75030 76805
L75227 77395
" />
<path d="M75424 77339
L75452 77367
L75424 77395
L75395 77367
L75424 77339
L75424 77395
" />
<path d="M76605 77395
L76605 76805
" />
<path d="M76661 77171
L76830 77395
" />
<path d="M76830 77002
L76605 77227
" />
<path d="M77083 77395
L77083 77002
" />
<path d="M77083 76805
L77055 76833
L77083 76861
L77111 76833
L77083 76805
L77083 76861
" />
<path d="M77617 77367
L77561 77395
L77448 77395
L77392 77367
L77364 77339
L77336 77283
L77336 77114
L77364 77058
L77392 77030
L77448 77002
L77561 77002
L77617 77030
" />
<path d="M78123 77395
L78123 77086
L78095 77030
L78039 77002
L77926 77002
L77870 77030
" />
<path d="M78123 77367
L78067 77395
L77926 77395
L77870 77367
L77842 77311
L77842 77255
L77870 77199
L77926 77171
L78067 77171
L78123 77142
" />
<path d="M78658 77395
L78658 76805
" />
<path d="M78658 77367
L78601 77395
L78489 77395
L78433 77367
L78404 77339
L78376 77283
L78376 77114
L78404 77058
L78433 77030
L78489 77002
L78601 77002
L78658 77030
" />
<path d="M79557 77620
L79529 77592
L79473 77508
L79445 77452
L79417 77367
L79389 77227
L79389 77114
L79417 76974
L79445 76889
L79473 76833
L79529 76749
L79557 76721
" />
<path d="M80064 76805
L79782 76805
L79754 77086
L79782 77058
L79839 77030
L79979 77030
L80036 77058
L80064 77086
L80092 77142
L80092 77283
L80064 77339
L80036 77367
L79979 77395
L79839 77395
L79782 77367
L79754 77339
" />
<path d="M80345 77339
L80373 77367
L80345 77395
L80317 77367
L80345 77339
L80345 77395
" />
<path d="M80739 76805
L80795 76805
L80851 76833
L80879 76861
L80907 76917
L80935 77030
L80935 77171
L80907 77283
L80879 77339
L80851 77367
L80795 77395
L80739 77395
L80682 77367
L80654 77339
L80626 77283
L80598 77171
L80598 77030
L80626 76917
L80654 76861
L80682 76833
L80739 76805
" />
<path d="M81188 77339
L81217 77367
L81188 77395
L81160 77367
L81188 77339
L81188 77395
" />
<path d="M81442 76861
L81470 76833
L81526 76805
L81667 76805
L81723 76833
L81751 76861
L81779 76917
L81779 76974
L81751 77058
L81413 77395
L81779 77395
" />
<path d="M81976 77620
L82004 77592
L82060 77508
L82088 77452
L82117 77367
L82145 77227
L82145 77114
L82117 76974
L82088 76889
L82060 76833
L82004 76749
L81976 76721
" />
<path d="M82426 77171
L82876 77171
" />
<path d="M83466 77395
L83129 77395
" />
<path d="M83298 77395
L83298 76805
L83241 76889
L83185 76946
L83129 76974
" />
</g>
<g style="fill:#000000; fill-opacity:0.0; 
stroke:#000000; stroke-width:39.3701; stroke-opacity:1; 
stroke-linecap:round; stroke-linejoin:round;">
</g>
<g style="fill:#000000; fill-opacity:0.0; 
stroke:#000000; stroke-width:59.0551; stroke-opacity:1; 
stroke-linecap:round; stroke-linejoin:round;">
<path d="M69685 75396
L112205 75396
" />
</g>
<g style="fill:#000000; fill-opacity:0.0; 
stroke:#000000; stroke-width:39.3701; stroke-opacity:1; 
stroke-linecap:round; stroke-linejoin:round;">
</g>
<g style="fill:#000000; fill-opacity:0.0; 
stroke:#000000; stroke-width:118.11; stroke-opacity:1; 
stroke-linecap:round; stroke-linejoin:round;">
<path d="M104099 76293
L103902 76012
" />
<path d="M103761 76293
L103761 75703
L103986 75703
L104042 75731
L104070 75759
L104099 75815
L104099 75899
L104070 75956
L104042 75984
L103986 76012
L103761 76012
" />
<path d="M104577 76265
L104520 76293
L104408 76293
L104352 76265
L104323 76209
L104323 75984
L104352 75928
L104408 75899
L104520 75899
L104577 75928
L104605 75984
L104605 76040
L104323 76096
" />
<path d="M104802 75899
L104942 76293
L105083 75899
" />
<path d="M105308 76237
L105336 76265
L105308 76293
L105280 76265
L105308 76237
L105308 76293
" />
<path d="M105308 75928
L105336 75956
L105308 75984
L105280 75956
L105308 75928
L105308 75984
" />
</g>
<g style="fill:#000000; fill-opacity:0.0; 
stroke:#000000; stroke-width:39.3701; stroke-opacity:1; 
stroke-linecap:round; stroke-linejoin:round;">
</g>
<g style="fill:#000000; fill-opacity:0.0; 
stroke:#000000; stroke-width:59.0551; stroke-opacity:1; 
stroke-linecap:round; stroke-linejoin:round;">
<path d="M70221 76265
L70305 76293
L70446 76293
L70502 76265
L70530 76237
L70559 76181
L70559 76124
L70530 76068
L70502 76040
L70446 76012
L70334 75984
L70277 75956
L70249 75928
L70221 75871
L70221 75815
L70249 75759
L70277 75731
L70334 75703
L70474 75703
L70559 75731
" />
<path d="M70812 76293
L70812 75899
" />
<path d="M70812 75703
L70784 75731
L70812 75759
L70840 75731
L70812 75703
L70812 75759
" />
<path d="M71037 75899
L71346 75899
L71037 76293
L71346 76293
" />
<path d="M71796 76265
L71740 76293
L71627 76293
L71571 76265
L71543 76209
L71543 75984
L71571 75928
L71627 75899
L71740 75899
L71796 75928
L71824 75984
L71824 76040
L71543 76096
" />
<path d="M72077 76237
L72105 76265
L72077 76293
L72049 76265
L72077 76237
L72077 76293
" />
<path d="M72077 75928
L72105 75956
L72077 75984
L72049 75956
L72077 75928
L72077 75984
" />
<path d="M72780 76124
L73061 76124
" />
<path d="M72724 76293
L72921 75703
L73118 76293
" />
<path d="M73568 75899
L73568 76293
" />
<path d="M73427 75674
L73286 76096
L73652 76096
" />
</g>
<g style="fill:#000000; fill-opacity:0.0; 
stroke:#000000; stroke-width:39.3701; stroke-opacity:1; 
stroke-linecap:round; stroke-linejoin:round;">
</g>
<g style="fill:#000000; fill-opacity:0.0; 
stroke:#000000; stroke-width:59.0551; stroke-opacity:1; 
stroke-linecap:round; stroke-linejoin:round;">
<path d="M103714 77395
L103714 76805
" />
<path d="M104248 77395
L104248 76805
" />
<path d="M104248 77367
L104192 77395
L104079 77395
L104023 77367
L103995 77339
L103967 77283
L103967 77114
L103995 77058
L104023 77030
L104079 77002
L104192 77002
L104248 77030
" />
<path d="M104529 77339
L104557 77367
L104529 77395
L104501 77367
L104529 77339
L104529 77395
" />
<path d="M104529 77030
L104557 77058
L104529 77086
L104501 77058
L104529 77030
L104529 77086
" />
<path d="M105570 77395
L105232 77395
" />
<path d="M105401 77395
L105401 76805
L105345 76889
L105289 76946
L105232 76974
" />
<path d="M106245 76777
L105739 77536
" />
<path d="M106751 77395
L106413 77395
" />
<path d="M106582 77395
L106582 76805
L106526 76889
L106470 76946
L106413 76974
" />
</g>
<g style="fill:#000000; fill-opacity:0.0; 
stroke:#000000; stroke-width:39.3701; stroke-opacity:1; 
stroke-linecap:round; stroke-linejoin:round;">
</g>
<g style="fill:#000000; fill-opacity:0.0; 
stroke:#000000; stroke-width:59.0551; stroke-opacity:1; 
stroke-linecap:round; stroke-linejoin:round;">
<path d="M69685 73821
L112205 73821
" />
</g>
<g style="fill:#000000; fill-opacity:0.0; 
stroke:#000000; stroke-width:39.3701; stroke-opacity:1; 
stroke-linecap:round; stroke-linejoin:round;">
</g>
<g style="fill:#000000; fill-opacity:0.0; 
stroke:#000000; stroke-width:157.48; stroke-opacity:1; 
stroke-linecap:round; stroke-linejoin:round;">
<path d="M70360 74099
L70810 74099
" />
<path d="M70486 74886
L70585 74099
" />
<path d="M70974 74886
L71039 74361
" />
<path d="M71072 74099
L71030 74136
L71063 74174
L71105 74136
L71072 74099
L71063 74174
" />
<path d="M71302 74361
L71602 74361
" />
<path d="M71447 74099
L71363 74774
L71391 74849
L71461 74886
L71536 74886
" />
<path d="M71911 74886
L71841 74849
L71813 74774
L71897 74099
" />
<path d="M72516 74849
L72436 74886
L72286 74886
L72216 74849
L72187 74774
L72225 74474
L72272 74399
L72352 74361
L72501 74361
L72572 74399
L72600 74474
L72591 74549
L72206 74624
" />
<path d="M72895 74811
L72928 74849
L72886 74886
L72853 74849
L72895 74811
L72886 74886
" />
<path d="M72947 74399
L72980 74436
L72937 74474
L72905 74436
L72947 74399
L72937 74474
" />
</g>
<g style="fill:#000000; fill-opacity:0.0; 
stroke:#000000; stroke-width:39.3701; stroke-opacity:1; 
stroke-linecap:round; stroke-linejoin:round;">
</g>
<g style="fill:#000000; fill-opacity:0.0; 
stroke:#000000; stroke-width:59.0551; stroke-opacity:1; 
stroke-linecap:round; stroke-linejoin:round;">
<path d="M70446 73070
L70249 73070
" />
<path d="M70249 73380
L70249 72789
L70530 72789
" />
<path d="M70755 73380
L70755 72986
" />
<path d="M70755 72789
L70727 72817
L70755 72845
L70784 72817
L70755 72789
L70755 72845
" />
<path d="M71121 73380
L71065 73352
L71037 73295
L71037 72789
" />
<path d="M71571 73352
L71515 73380
L71402 73380
L71346 73352
L71318 73295
L71318 73070
L71346 73014
L71402 72986
L71515 72986
L71571 73014
L71599 73070
L71599 73127
L71318 73183
" />
<path d="M71852 73323
L71880 73352
L71852 73380
L71824 73352
L71852 73323
L71852 73380
" />
<path d="M71852 73014
L71880 73042
L71852 73070
L71824 73042
L71852 73014
L71852 73070
" />
<path d="M72780 73070
L72583 73070
" />
<path d="M72583 73380
L72583 72789
L72865 72789
" />
<path d="M73090 73380
L73090 72986
" />
<path d="M73090 72789
L73061 72817
L73090 72845
L73118 72817
L73090 72789
L73090 72845
" />
<path d="M73371 73380
L73371 72986
" />
<path d="M73371 73099
L73399 73042
L73427 73014
L73483 72986
L73539 72986
" />
<path d="M73708 73352
L73764 73380
L73877 73380
L73933 73352
L73961 73295
L73961 73267
L73933 73211
L73877 73183
L73793 73183
L73736 73155
L73708 73099
L73708 73070
L73736 73014
L73793 72986
L73877 72986
L73933 73014
" />
<path d="M74130 72986
L74355 72986
" />
<path d="M74214 72789
L74214 73295
L74242 73352
L74299 73380
L74355 73380
" />
<path d="M74889 73323
L74861 73352
L74777 73380
L74721 73380
L74636 73352
L74580 73295
L74552 73239
L74524 73127
L74524 73042
L74552 72930
L74580 72874
L74636 72817
L74721 72789
L74777 72789
L74861 72817
L74889 72845
" />
<path d="M75227 73380
L75171 73352
L75142 73323
L75114 73267
L75114 73099
L75142 73042
L75171 73014
L75227 72986
L75311 72986
L75367 73014
L75395 73042
L75424 73099
L75424 73267
L75395 73323
L75367 73352
L75311 73380
L75227 73380
" />
<path d="M75677 72986
L75677 73380
" />
<path d="M75677 73042
L75705 73014
L75761 72986
L75845 72986
L75902 73014
L75930 73070
L75930 73380
" />
<path d="M76127 72986
L76352 72986
" />
<path d="M76211 72789
L76211 73295
L76239 73352
L76295 73380
L76352 73380
" />
<path d="M76802 73380
L76802 73070
L76773 73014
L76717 72986
L76605 72986
L76548 73014
" />
<path d="M76802 73352
L76745 73380
L76605 73380
L76548 73352
L76520 73295
L76520 73239
L76548 73183
L76605 73155
L76745 73155
L76802 73127
" />
<path d="M77336 73352
L77280 73380
L77167 73380
L77111 73352
L77083 73323
L77055 73267
L77055 73099
L77083 73042
L77111 73014
L77167 72986
L77280 72986
L77336 73014
" />
<path d="M77505 72986
L77730 72986
" />
<path d="M77589 72789
L77589 73295
L77617 73352
L77673 73380
L77730 73380
" />
<path d="M77926 73323
L77955 73352
L77926 73380
L77898 73352
L77926 73323
L77926 73380
" />
<path d="M78208 73380
L78208 72789
" />
<path d="M78264 73155
L78433 73380
" />
<path d="M78433 72986
L78208 73211
" />
<path d="M78686 73380
L78686 72986
" />
<path d="M78686 72789
L78658 72817
L78686 72845
L78714 72817
L78686 72789
L78686 72845
" />
<path d="M79220 73352
L79164 73380
L79051 73380
L78995 73352
L78967 73323
L78939 73267
L78939 73099
L78967 73042
L78995 73014
L79051 72986
L79164 72986
L79220 73014
" />
<path d="M79726 73380
L79726 73070
L79698 73014
L79642 72986
L79529 72986
L79473 73014
" />
<path d="M79726 73352
L79670 73380
L79529 73380
L79473 73352
L79445 73295
L79445 73239
L79473 73183
L79529 73155
L79670 73155
L79726 73127
" />
<path d="M80260 73380
L80260 72789
" />
<path d="M80260 73352
L80204 73380
L80092 73380
L80036 73352
L80007 73323
L79979 73267
L79979 73099
L80007 73042
L80036 73014
L80092 72986
L80204 72986
L80260 73014
" />
<path d="M80401 73436
L80851 73436
" />
<path d="M80992 72986
L80992 73577
" />
<path d="M80992 73014
L81048 72986
L81160 72986
L81217 73014
L81245 73042
L81273 73099
L81273 73267
L81245 73323
L81217 73352
L81160 73380
L81048 73380
L80992 73352
" />
<path d="M81779 73352
L81723 73380
L81610 73380
L81554 73352
L81526 73323
L81498 73267
L81498 73099
L81526 73042
L81554 73014
L81610 72986
L81723 72986
L81779 73014
" />
<path d="M82032 73380
L82032 72789
" />
<path d="M82032 73014
L82088 72986
L82201 72986
L82257 73014
L82285 73042
L82313 73099
L82313 73267
L82285 73323
L82257 73352
L82201 73380
L82088 73380
L82032 73352
" />
</g>
<g style="fill:#000000; fill-opacity:0.0; 
stroke:#000000; stroke-width:39.3701; stroke-opacity:1; 
stroke-linecap:round; stroke-linejoin:round;">
</g>
<g style="fill:#000000; fill-opacity:0.0; 
stroke:#000000; stroke-width:59.0551; stroke-opacity:1; 
stroke-linecap:round; stroke-linejoin:round;">
<path d="M69685 71459
L112205 71459
" />
</g>
<g style="fill:#000000; fill-opacity:0.0; 
stroke:#000000; stroke-width:39.3701; stroke-opacity:1; 
stroke-linecap:round; stroke-linejoin:round;">
</g>
<g style="fill:#000000; fill-opacity:0.0; 
stroke:#000000; stroke-width:59.0551; stroke-opacity:1; 
stroke-linecap:round; stroke-linejoin:round;">
<path d="M70221 72289
L70305 72317
L70446 72317
L70502 72289
L70530 72260
L70559 72204
L70559 72148
L70530 72092
L70502 72064
L70446 72036
L70334 72007
L70277 71979
L70249 71951
L70221 71895
L70221 71839
L70249 71782
L70277 71754
L70334 71726
L70474 71726
L70559 71754
" />
<path d="M70812 72317
L70812 71726
" />
<path d="M71065 72317
L71065 72007
L71037 71951
L70980 71923
L70896 71923
L70840 71951
L70812 71979
" />
<path d="M71571 72289
L71515 72317
L71402 72317
L71346 72289
L71318 72232
L71318 72007
L71346 71951
L71402 71923
L71515 71923
L71571 71951
L71599 72007
L71599 72064
L71318 72120
" />
<path d="M72077 72289
L72021 72317
L71908 72317
L71852 72289
L71824 72232
L71824 72007
L71852 71951
L71908 71923
L72021 71923
L72077 71951
L72105 72007
L72105 72064
L71824 72120
" />
<path d="M72274 71923
L72499 71923
" />
<path d="M72358 71726
L72358 72232
L72386 72289
L72443 72317
L72499 72317
" />
<path d="M72696 72260
L72724 72289
L72696 72317
L72668 72289
L72696 72260
L72696 72317
" />
<path d="M72696 71951
L72724 71979
L72696 72007
L72668 71979
L72696 71951
L72696 72007
" />
</g>
<g style="fill:#000000; fill-opacity:0.0; 
stroke:#000000; stroke-width:39.3701; stroke-opacity:1; 
stroke-linecap:round; stroke-linejoin:round;">
</g>
<g style="fill:#000000; fill-opacity:0.0; 
stroke:#000000; stroke-width:59.0551; stroke-opacity:1; 
stroke-linecap:round; stroke-linejoin:round;">
<path d="M77559 75396
L77559 76577
" />
</g>
<g style="fill:#000000; fill-opacity:0.0; 
stroke:#000000; stroke-width:39.3701; stroke-opacity:1; 
stroke-linecap:round; stroke-linejoin:round;">
</g>
<g style="fill:#000000; fill-opacity:0.0; 
stroke:#000000; stroke-width:59.0551; stroke-opacity:1; 
stroke-linecap:round; stroke-linejoin:round;">
<path d="M102756 75396
L102756 77955
" />
</g>
<g style="fill:#C2C2C2; fill-opacity:0.0; 
stroke:#C2C2C2; stroke-width:59.0551; stroke-opacity:1; 
stroke-linecap:round; stroke-linejoin:round;">
</g>
<g style="fill:#C2C2C2; fill-opacity:0.0; 
stroke:#C2C2C2; stroke-width:118.11; stroke-opacity:1; 
stroke-linecap:round; stroke-linejoin:round;">
<path d="M40684 30224
L40684 30336
L40712 30393
L40740 30421
L40825 30477
L40937 30505
L41162 30505
L41218 30477
L41246 30449
L41275 30393
L41275 30280
L41246 30224
L41218 30196
L41162 30168
L41021 30168
L40965 30196
L40937 30224
L40909 30280
L40909 30393
L40937 30449
L40965 30477
L41021 30505
" />
<path d="M40684 29633
L40684 29915
L40965 29943
L40937 29915
L40909 29858
L40909 29718
L40937 29661
L40965 29633
L41021 29605
L41162 29605
L41218 29633
L41246 29661
L41275 29718
L41275 29858
L41246 29915
L41218 29943
" />
<path d="M41218 29352
L41246 29324
L41275 29352
L41246 29380
L41218 29352
L41275 29352
" />
<path d="M40684 28958
L40684 28902
L40712 28846
L40740 28818
L40796 28790
L40909 28762
L41050 28762
L41162 28790
L41218 28818
L41246 28846
L41275 28902
L41275 28958
L41246 29015
L41218 29043
L41162 29071
L41050 29099
L40909 29099
L40796 29071
L40740 29043
L40712 29015
L40684 28958
" />
<path d="M40684 28396
L40684 28340
L40712 28284
L40740 28255
L40796 28227
L40909 28199
L41050 28199
L41162 28227
L41218 28255
L41246 28284
L41275 28340
L41275 28396
L41246 28452
L41218 28480
L41162 28508
L41050 28537
L40909 28537
L40796 28508
L40740 28480
L40712 28452
L40684 28396
" />
<path d="M40684 27834
L40684 27777
L40712 27721
L40740 27693
L40796 27665
L40909 27637
L41050 27637
L41162 27665
L41218 27693
L41246 27721
L41275 27777
L41275 27834
L41246 27890
L41218 27918
L41162 27946
L41050 27974
L40909 27974
L40796 27946
L40740 27918
L40712 27890
L40684 27834
" />
<path d="M41275 26934
L40881 26934
" />
<path d="M40937 26934
L40909 26906
L40881 26849
L40881 26765
L40909 26709
L40965 26681
L41275 26681
" />
<path d="M40965 26681
L40909 26652
L40881 26596
L40881 26512
L40909 26456
L40965 26428
L41275 26428
" />
<path d="M41275 26146
L40881 26146
" />
<path d="M40937 26146
L40909 26118
L40881 26062
L40881 25978
L40909 25921
L40965 25893
L41275 25893
" />
<path d="M40965 25893
L40909 25865
L40881 25809
L40881 25724
L40909 25668
L40965 25640
L41275 25640
" />
<path d="M41834 40854
L41834 15263
" />
<path d="M72149 40854
L41603 40854
" />
<path d="M72149 15263
L41603 15263
" />
<path d="M41834 15263
L42065 15707
" />
<path d="M41834 15263
L41603 15707
" />
<path d="M41834 40854
L42065 40410
" />
<path d="M41834 40854
L41603 40410
" />
<path d="M52661 7026
L52548 7026
L52492 7055
L52464 7083
L52408 7167
L52380 7280
L52380 7505
L52408 7561
L52436 7589
L52492 7617
L52605 7617
L52661 7589
L52689 7561
L52717 7505
L52717 7364
L52689 7308
L52661 7280
L52605 7251
L52492 7251
L52436 7280
L52408 7308
L52380 7364
" />
<path d="M53223 7026
L53111 7026
L53055 7055
L53026 7083
L52970 7167
L52942 7280
L52942 7505
L52970 7561
L52998 7589
L53055 7617
L53167 7617
L53223 7589
L53251 7561
L53280 7505
L53280 7364
L53251 7308
L53223 7280
L53167 7251
L53055 7251
L52998 7280
L52970 7308
L52942 7364
" />
<path d="M53533 7561
L53561 7589
L53533 7617
L53505 7589
L53533 7561
L53533 7617
" />
<path d="M53926 7026
L53983 7026
L54039 7055
L54067 7083
L54095 7139
L54123 7251
L54123 7392
L54095 7505
L54067 7561
L54039 7589
L53983 7617
L53926 7617
L53870 7589
L53842 7561
L53814 7505
L53786 7392
L53786 7251
L53814 7139
L53842 7083
L53870 7055
L53926 7026
" />
<path d="M54489 7026
L54545 7026
L54601 7055
L54629 7083
L54658 7139
L54686 7251
L54686 7392
L54658 7505
L54629 7561
L54601 7589
L54545 7617
L54489 7617
L54433 7589
L54404 7561
L54376 7505
L54348 7392
L54348 7251
L54376 7139
L54404 7083
L54433 7055
L54489 7026
" />
<path d="M55051 7026
L55107 7026
L55164 7055
L55192 7083
L55220 7139
L55248 7251
L55248 7392
L55220 7505
L55192 7561
L55164 7589
L55107 7617
L55051 7617
L54995 7589
L54967 7561
L54939 7505
L54911 7392
L54911 7251
L54939 7139
L54967 7083
L54995 7055
L55051 7026
" />
<path d="M55951 7617
L55951 7223
" />
<path d="M55951 7280
L55979 7251
L56035 7223
L56120 7223
L56176 7251
L56204 7308
L56204 7617
" />
<path d="M56204 7308
L56232 7251
L56289 7223
L56373 7223
L56429 7251
L56457 7308
L56457 7617
" />
<path d="M56739 7617
L56739 7223
" />
<path d="M56739 7280
L56767 7251
L56823 7223
L56907 7223
L56964 7251
L56992 7308
L56992 7617
" />
<path d="M56992 7308
L57020 7251
L57076 7223
L57160 7223
L57217 7251
L57245 7308
L57245 7617
" />
<path d="M67818 8177
L41834 8177
" />
<path d="M67818 15263
L67818 7946
" />
<path d="M41834 15263
L41834 7946
" />
<path d="M41834 8177
L42278 7946
" />
<path d="M41834 8177
L42278 8408
" />
<path d="M67818 8177
L67375 7946
" />
<path d="M67818 8177
L67375 8408
" />
<path d="M69899 14169
L69928 14141
L69984 14113
L70124 14113
L70181 14141
L70209 14169
L70237 14226
L70237 14282
L70209 14366
L69871 14704
L70237 14704
" />
<path d="M70434 14113
L70799 14113
L70602 14338
L70687 14338
L70743 14366
L70771 14394
L70799 14451
L70799 14591
L70771 14647
L70743 14676
L70687 14704
L70518 14704
L70462 14676
L70434 14647
" />
<path d="M71052 14647
L71080 14676
L71052 14704
L71024 14676
L71052 14647
L71052 14704
" />
<path d="M71446 14113
L71502 14113
L71559 14141
L71587 14169
L71615 14226
L71643 14338
L71643 14479
L71615 14591
L71587 14647
L71559 14676
L71502 14704
L71446 14704
L71390 14676
L71362 14647
L71334 14591
L71305 14479
L71305 14338
L71334 14226
L71362 14169
L71390 14141
L71446 14113
" />
<path d="M72008 14113
L72065 14113
L72121 14141
L72149 14169
L72177 14226
L72205 14338
L72205 14479
L72177 14591
L72149 14647
L72121 14676
L72065 14704
L72008 14704
L71952 14676
L71924 14647
L71896 14591
L71868 14479
L71868 14338
L71896 14226
L71924 14169
L71952 14141
L72008 14113
" />
<path d="M72571 14113
L72627 14113
L72683 14141
L72712 14169
L72740 14226
L72768 14338
L72768 14479
L72740 14591
L72712 14647
L72683 14676
L72627 14704
L72571 14704
L72515 14676
L72487 14647
L72458 14591
L72430 14479
L72430 14338
L72458 14226
L72487 14169
L72515 14141
L72571 14113
" />
<path d="M73471 14704
L73471 14310
" />
<path d="M73471 14366
L73499 14338
L73555 14310
L73640 14310
L73696 14338
L73724 14394
L73724 14704
" />
<path d="M73724 14394
L73752 14338
L73808 14310
L73893 14310
L73949 14338
L73977 14394
L73977 14704
" />
<path d="M74258 14704
L74258 14310
" />
<path d="M74258 14366
L74286 14338
L74343 14310
L74427 14310
L74483 14338
L74511 14394
L74511 14704
" />
<path d="M74511 14394
L74539 14338
L74596 14310
L74680 14310
L74736 14338
L74764 14394
L74764 14704
" />
<path d="M76874 15263
L67818 15263
" />
<path d="M76874 18413
L76874 15032
" />
<path d="M67818 18413
L67818 15032
" />
<path d="M67818 15263
L68262 15032
" />
<path d="M67818 15263
L68262 15494
" />
<path d="M76874 15263
L76430 15032
" />
<path d="M76874 15263
L76430 15494
" />
<path d="M78558 30224
L78558 30336
L78586 30393
L78614 30421
L78699 30477
L78811 30505
L79036 30505
L79092 30477
L79120 30449
L79149 30393
L79149 30280
L79120 30224
L79092 30196
L79036 30168
L78895 30168
L78839 30196
L78811 30224
L78783 30280
L78783 30393
L78811 30449
L78839 30477
L78895 30505
" />
<path d="M78558 29633
L78558 29915
L78839 29943
L78811 29915
L78783 29858
L78783 29718
L78811 29661
L78839 29633
L78895 29605
L79036 29605
L79092 29633
L79120 29661
L79149 29718
L79149 29858
L79120 29915
L79092 29943
" />
<path d="M79092 29352
L79120 29324
L79149 29352
L79120 29380
L79092 29352
L79149 29352
" />
<path d="M78558 28958
L78558 28902
L78586 28846
L78614 28818
L78670 28790
L78783 28762
L78924 28762
L79036 28790
L79092 28818
L79120 28846
L79149 28902
L79149 28958
L79120 29015
L79092 29043
L79036 29071
L78924 29099
L78783 29099
L78670 29071
L78614 29043
L78586 29015
L78558 28958
" />
<path d="M78558 28396
L78558 28340
L78586 28284
L78614 28255
L78670 28227
L78783 28199
L78924 28199
L79036 28227
L79092 28255
L79120 28284
L79149 28340
L79149 28396
L79120 28452
L79092 28480
L79036 28508
L78924 28537
L78783 28537
L78670 28508
L78614 28480
L78586 28452
L78558 28396
" />
<path d="M78558 27834
L78558 27777
L78586 27721
L78614 27693
L78670 27665
L78783 27637
L78924 27637
L79036 27665
L79092 27693
L79120 27721
L79149 27777
L79149 27834
L79120 27890
L79092 27918
L79036 27946
L78924 27974
L78783 27974
L78670 27946
L78614 27918
L78586 27890
L78558 27834
" />
<path d="M79149 26934
L78755 26934
" />
<path d="M78811 26934
L78783 26906
L78755 26849
L78755 26765
L78783 26709
L78839 26681
L79149 26681
" />
<path d="M78839 26681
L78783 26652
L78755 26596
L78755 26512
L78783 26456
L78839 26428
L79149 26428
" />
<path d="M79149 26146
L78755 26146
" />
<path d="M78811 26146
L78783 26118
L78755 26062
L78755 25978
L78783 25921
L78839 25893
L79149 25893
" />
<path d="M78839 25893
L78783 25865
L78755 25809
L78755 25724
L78783 25668
L78839 25640
L79149 25640
" />
<path d="M78055 40854
L78055 15263
" />
<path d="M72149 40854
L78285 40854
" />
<path d="M72149 15263
L78285 15263
" />
<path d="M78055 15263
L78285 15707
" />
<path d="M78055 15263
L77824 15707
" />
<path d="M78055 40854
L78285 40410
" />
<path d="M78055 40854
L77824 40410
" />
<path d="M47259 44735
L47259 44622
L47231 44566
L47203 44538
L47118 44482
L47006 44453
L46781 44453
L46724 44482
L46696 44510
L46668 44566
L46668 44678
L46696 44735
L46724 44763
L46781 44791
L46921 44791
L46978 44763
L47006 44735
L47034 44678
L47034 44566
L47006 44510
L46978 44482
L46921 44453
" />
<path d="M47203 44200
L47231 44172
L47259 44200
L47231 44228
L47203 44200
L47259 44200
" />
<path d="M46668 43807
L46668 43750
L46696 43694
L46724 43666
L46781 43638
L46893 43610
L47034 43610
L47146 43638
L47203 43666
L47231 43694
L47259 43750
L47259 43807
L47231 43863
L47203 43891
L47146 43919
L47034 43947
L46893 43947
L46781 43919
L46724 43891
L46696 43863
L46668 43807
" />
<path d="M46668 43244
L46668 43188
L46696 43132
L46724 43104
L46781 43075
L46893 43047
L47034 43047
L47146 43075
L47203 43104
L47231 43132
L47259 43188
L47259 43244
L47231 43300
L47203 43329
L47146 43357
L47034 43385
L46893 43385
L46781 43357
L46724 43329
L46696 43300
L46668 43244
" />
<path d="M46668 42682
L46668 42625
L46696 42569
L46724 42541
L46781 42513
L46893 42485
L47034 42485
L47146 42513
L47203 42541
L47231 42569
L47259 42625
L47259 42682
L47231 42738
L47203 42766
L47146 42794
L47034 42822
L46893 42822
L46781 42794
L46724 42766
L46696 42738
L46668 42682
" />
<path d="M47259 41782
L46865 41782
" />
<path d="M46921 41782
L46893 41754
L46865 41697
L46865 41613
L46893 41557
L46949 41529
L47259 41529
" />
<path d="M46949 41529
L46893 41501
L46865 41444
L46865 41360
L46893 41304
L46949 41276
L47259 41276
" />
<path d="M47259 40994
L46865 40994
" />
<path d="M46921 40994
L46893 40966
L46865 40910
L46865 40826
L46893 40769
L46949 40741
L47259 40741
" />
<path d="M46949 40741
L46893 40713
L46865 40657
L46865 40573
L46893 40516
L46949 40488
L47259 40488
" />
<path d="M46165 44397
L46165 40854
" />
<path d="M43015 44397
L46396 44397
" />
<path d="M43015 40854
L46396 40854
" />
<path d="M46165 40854
L46396 41297
" />
<path d="M46165 40854
L45934 41297
" />
<path d="M46165 44397
L46396 43954
" />
<path d="M46165 44397
L45934 43954
" />
<path d="M53870 46728
L53814 46700
L53786 46672
L53758 46616
L53758 46588
L53786 46532
L53814 46503
L53870 46475
L53983 46475
L54039 46503
L54067 46532
L54095 46588
L54095 46616
L54067 46672
L54039 46700
L53983 46728
L53870 46728
L53814 46757
L53786 46785
L53758 46841
L53758 46953
L53786 47010
L53814 47038
L53870 47066
L53983 47066
L54039 47038
L54067 47010
L54095 46953
L54095 46841
L54067 46785
L54039 46757
L53983 46728
" />
<path d="M54658 47066
L54320 47066
" />
<path d="M54489 47066
L54489 46475
L54433 46560
L54376 46616
L54320 46644
" />
<path d="M54911 47010
L54939 47038
L54911 47066
L54883 47038
L54911 47010
L54911 47066
" />
<path d="M55304 46475
L55361 46475
L55417 46503
L55445 46532
L55473 46588
L55501 46700
L55501 46841
L55473 46953
L55445 47010
L55417 47038
L55361 47066
L55304 47066
L55248 47038
L55220 47010
L55192 46953
L55164 46841
L55164 46700
L55192 46588
L55220 46532
L55248 46503
L55304 46475
" />
<path d="M55867 46475
L55923 46475
L55979 46503
L56007 46532
L56035 46588
L56064 46700
L56064 46841
L56035 46953
L56007 47010
L55979 47038
L55923 47066
L55867 47066
L55811 47038
L55782 47010
L55754 46953
L55726 46841
L55726 46700
L55754 46588
L55782 46532
L55811 46503
L55867 46475
" />
<path d="M56429 46475
L56485 46475
L56542 46503
L56570 46532
L56598 46588
L56626 46700
L56626 46841
L56598 46953
L56570 47010
L56542 47038
L56485 47066
L56429 47066
L56373 47038
L56345 47010
L56317 46953
L56289 46841
L56289 46700
L56317 46588
L56345 46532
L56373 46503
L56429 46475
" />
<path d="M57329 47066
L57329 46672
" />
<path d="M57329 46728
L57357 46700
L57413 46672
L57498 46672
L57554 46700
L57582 46757
L57582 47066
" />
<path d="M57582 46757
L57610 46700
L57667 46672
L57751 46672
L57807 46700
L57835 46757
L57835 47066
" />
<path d="M58116 47066
L58116 46672
" />
<path d="M58116 46728
L58145 46700
L58201 46672
L58285 46672
L58341 46700
L58370 46757
L58370 47066
" />
<path d="M58370 46757
L58398 46700
L58454 46672
L58538 46672
L58595 46700
L58623 46757
L58623 47066
" />
<path d="M72149 45972
L40259 45972
" />
<path d="M72149 40854
L72149 46203
" />
<path d="M40259 40854
L40259 46203
" />
<path d="M40259 45972
L40703 45741
" />
<path d="M40259 45972
L40703 46203
" />
<path d="M72149 45972
L71706 45741
" />
<path d="M72149 45972
L71706 46203
" />
<path d="M53870 49878
L53814 49850
L53786 49822
L53758 49766
L53758 49737
L53786 49681
L53814 49653
L53870 49625
L53983 49625
L54039 49653
L54067 49681
L54095 49737
L54095 49766
L54067 49822
L54039 49850
L53983 49878
L53870 49878
L53814 49906
L53786 49934
L53758 49991
L53758 50103
L53786 50159
L53814 50187
L53870 50215
L53983 50215
L54039 50187
L54067 50159
L54095 50103
L54095 49991
L54067 49934
L54039 49906
L53983 49878
" />
<path d="M54658 50215
L54320 50215
" />
<path d="M54489 50215
L54489 49625
L54433 49709
L54376 49766
L54320 49794
" />
<path d="M54911 50159
L54939 50187
L54911 50215
L54883 50187
L54911 50159
L54911 50215
" />
<path d="M55304 49625
L55361 49625
L55417 49653
L55445 49681
L55473 49737
L55501 49850
L55501 49991
L55473 50103
L55445 50159
L55417 50187
L55361 50215
L55304 50215
L55248 50187
L55220 50159
L55192 50103
L55164 49991
L55164 49850
L55192 49737
L55220 49681
L55248 49653
L55304 49625
" />
<path d="M55867 49625
L55923 49625
L55979 49653
L56007 49681
L56035 49737
L56064 49850
L56064 49991
L56035 50103
L56007 50159
L55979 50187
L55923 50215
L55867 50215
L55811 50187
L55782 50159
L55754 50103
L55726 49991
L55726 49850
L55754 49737
L55782 49681
L55811 49653
L55867 49625
" />
<path d="M56429 49625
L56485 49625
L56542 49653
L56570 49681
L56598 49737
L56626 49850
L56626 49991
L56598 50103
L56570 50159
L56542 50187
L56485 50215
L56429 50215
L56373 50187
L56345 50159
L56317 50103
L56289 49991
L56289 49850
L56317 49737
L56345 49681
L56373 49653
L56429 49625
" />
<path d="M57329 50215
L57329 49822
" />
<path d="M57329 49878
L57357 49850
L57413 49822
L57498 49822
L57554 49850
L57582 49906
L57582 50215
" />
<path d="M57582 49906
L57610 49850
L57667 49822
L57751 49822
L57807 49850
L57835 49906
L57835 50215
" />
<path d="M58116 50215
L58116 49822
" />
<path d="M58116 49878
L58145 49850
L58201 49822
L58285 49822
L58341 49850
L58370 49906
L58370 50215
" />
<path d="M58370 49906
L58398 49850
L58454 49822
L58538 49822
L58595 49850
L58623 49906
L58623 50215
" />
<path d="M72149 49122
L40259 49122
" />
<path d="M72149 44397
L72149 49352
" />
<path d="M40259 44397
L40259 49352
" />
<path d="M40259 49122
L40703 48891
" />
<path d="M40259 49122
L40703 49352
" />
<path d="M72149 49122
L71706 48891
" />
<path d="M72149 49122
L71706 49352
" />
<path d="M79149 44735
L79149 44622
L79120 44566
L79092 44538
L79008 44482
L78895 44453
L78670 44453
L78614 44482
L78586 44510
L78558 44566
L78558 44678
L78586 44735
L78614 44763
L78670 44791
L78811 44791
L78867 44763
L78895 44735
L78924 44678
L78924 44566
L78895 44510
L78867 44482
L78811 44453
" />
<path d="M79092 44200
L79120 44172
L79149 44200
L79120 44228
L79092 44200
L79149 44200
" />
<path d="M78558 43807
L78558 43750
L78586 43694
L78614 43666
L78670 43638
L78783 43610
L78924 43610
L79036 43638
L79092 43666
L79120 43694
L79149 43750
L79149 43807
L79120 43863
L79092 43891
L79036 43919
L78924 43947
L78783 43947
L78670 43919
L78614 43891
L78586 43863
L78558 43807
" />
<path d="M78558 43244
L78558 43188
L78586 43132
L78614 43104
L78670 43075
L78783 43047
L78924 43047
L79036 43075
L79092 43104
L79120 43132
L79149 43188
L79149 43244
L79120 43300
L79092 43329
L79036 43357
L78924 43385
L78783 43385
L78670 43357
L78614 43329
L78586 43300
L78558 43244
" />
<path d="M78558 42682
L78558 42625
L78586 42569
L78614 42541
L78670 42513
L78783 42485
L78924 42485
L79036 42513
L79092 42541
L79120 42569
L79149 42625
L79149 42682
L79120 42738
L79092 42766
L79036 42794
L78924 42822
L78783 42822
L78670 42794
L78614 42766
L78586 42738
L78558 42682
" />
<path d="M79149 41782
L78755 41782
" />
<path d="M78811 41782
L78783 41754
L78755 41697
L78755 41613
L78783 41557
L78839 41529
L79149 41529
" />
<path d="M78839 41529
L78783 41501
L78755 41444
L78755 41360
L78783 41304
L78839 41276
L79149 41276
" />
<path d="M79149 40994
L78755 40994
" />
<path d="M78811 40994
L78783 40966
L78755 40910
L78755 40826
L78783 40769
L78839 40741
L79149 40741
" />
<path d="M78839 40741
L78783 40713
L78755 40657
L78755 40573
L78783 40516
L78839 40488
L79149 40488
" />
<path d="M78055 44397
L78055 40854
" />
<path d="M72543 44397
L78285 44397
" />
<path d="M72543 40854
L78285 40854
" />
<path d="M78055 40854
L78285 41297
" />
<path d="M78055 40854
L77824 41297
" />
<path d="M78055 44397
L78285 43954
" />
<path d="M78055 44397
L77824 43954
" />
<path d="M71334 46082
L71727 46082
L71474 46672
" />
<path d="M71952 46616
L71980 46644
L71952 46672
L71924 46644
L71952 46616
L71952 46672
" />
<path d="M72346 46082
L72402 46082
L72458 46110
L72487 46138
L72515 46194
L72543 46307
L72543 46447
L72515 46560
L72487 46616
L72458 46644
L72402 46672
L72346 46672
L72290 46644
L72262 46616
L72233 46560
L72205 46447
L72205 46307
L72233 46194
L72262 46138
L72290 46110
L72346 46082
" />
<path d="M72908 46082
L72965 46082
L73021 46110
L73049 46138
L73077 46194
L73105 46307
L73105 46447
L73077 46560
L73049 46616
L73021 46644
L72965 46672
L72908 46672
L72852 46644
L72824 46616
L72796 46560
L72768 46447
L72768 46307
L72796 46194
L72824 46138
L72852 46110
L72908 46082
" />
<path d="M73471 46082
L73527 46082
L73583 46110
L73611 46138
L73640 46194
L73668 46307
L73668 46447
L73640 46560
L73611 46616
L73583 46644
L73527 46672
L73471 46672
L73415 46644
L73386 46616
L73358 46560
L73330 46447
L73330 46307
L73358 46194
L73386 46138
L73415 46110
L73471 46082
" />
<path d="M74371 46672
L74371 46278
" />
<path d="M74371 46335
L74399 46307
L74455 46278
L74539 46278
L74596 46307
L74624 46363
L74624 46672
" />
<path d="M74624 46363
L74652 46307
L74708 46278
L74793 46278
L74849 46307
L74877 46363
L74877 46672
" />
<path d="M75158 46672
L75158 46278
" />
<path d="M75158 46335
L75186 46307
L75242 46278
L75327 46278
L75383 46307
L75411 46363
L75411 46672
" />
<path d="M75411 46363
L75439 46307
L75496 46278
L75580 46278
L75636 46307
L75664 46363
L75664 46672
" />
<path d="M74905 45578
L72149 45578
" />
<path d="M74905 40460
L74905 45809
" />
<path d="M72149 40460
L72149 45809
" />
<path d="M72149 45578
L72593 45347
" />
<path d="M72149 45578
L72593 45809
" />
<path d="M74905 45578
L74462 45347
" />
<path d="M74905 45578
L74462 45809
" />
</g>
<g style="fill:#000000; fill-opacity:0.0; 
stroke:#000000; stroke-width:118.11; stroke-opacity:1; 
stroke-linecap:round; stroke-linejoin:round;">
</g>
<g style="fill:#C2C200; fill-opacity:0.0; 
stroke:#C2C200; stroke-width:118.11; stroke-opacity:1; 
stroke-linecap:round; stroke-linejoin:round;">
</g>
<g style="fill:#C2C200; fill-opacity:0.0; 
stroke:#C2C200; stroke-width:59.0551; stroke-opacity:1; 
stroke-linecap:round; stroke-linejoin:round;">
<path d="M76874 34161
L76874 17625
" />
<path d="M69787 15263
L69787 13688
" />
<path d="M74511 15263
L69787 15263
" />
<path d="M76874 17625
L74511 15263
" />
<path d="M74905 36129
L76874 34161
" />
<path d="M74905 43216
L74905 36129
" />
<path d="M73724 44397
L74905 43216
" />
<path d="M41834 44397
L73724 44397
" />
<path d="M35141 39279
L41834 44397
" />
<path d="M35141 22744
L35141 39279
" />
<path d="M41440 12507
L35141 22744
" />
<path d="M68212 12507
L41440 12507
" />
<path d="M69787 13688
L68212 12507
" />
</g> 
</svg>
