  0
SECTION
  2
HEADER
  9
$ACADVER
  1
AC1009
  9
$EXTMIN
 10
0.0
 20
0.0
 30
0.0
  9
$EXTMAX
 10
1000.0
 20
1000.0
 30
0.0
  9
$FILLMODE
 70
 0
  9
$SPLFRAME
 70
 1
  0
ENDSEC
  0
SECTION
  2
TABLES
  0
TABLE
  2
LAYER
 70
1
  0
LAYER
  2
0
 70
     0
 62
     7
  6
CONTINUOUS
  0
ENDTAB
  0
ENDSEC
  0
SECTION
  2
ENTITIES
  0
LINE
  8
0
 62
     0
 10
0.0950846
 20
95.3438
 30
0.0
 11
95.3452
 21
95.3438
 31
0.0
  0
LINE
  8
0
 62
     0
 10
95.3452
 20
95.3438
 30
0.0
 11
95.3452
 21
0.0923286
 31
0.0
  0
LINE
  8
0
 62
     0
 10
95.3452
 20
0.0923286
 30
0.0
 11
0.0950846
 21
0.0923286
 31
0.0
  0
LINE
  8
0
 62
     0
 10
0.0950846
 20
0.0923286
 30
0.0
 11
0.0950846
 21
95.3438
 31
0.0
  0
LINE
  8
0
 62
     0
 10
69.2947
 20
16.6192
 30
0.0
 11
69.2947
 21
11.9187
 31
0.0
  0
LINE
  8
0
 62
     0
 10
69.2947
 20
11.9187
 30
0.0
 11
67.7693
 21
11.9187
 31
0.0
  0
LINE
  8
0
 62
     0
 10
67.7693
 20
11.9187
 30
0.0
 11
67.7693
 21
15.1488
 31
0.0
  0
LINE
  8
0
 62
     0
 10
67.7693
 20
15.1488
 30
0.0
 11
66.0453
 21
15.1488
 31
0.0
  0
LINE
  8
0
 62
     0
 10
66.0453
 20
15.1488
 30
0.0
 11
66.0453
 21
16.0693
 31
0.0
  0
LINE
  8
0
 62
     0
 10
66.0453
 20
16.0693
 30
0.0
 11
62.7447
 21
16.0693
 31
0.0
  0
LINE
  8
0
 62
     0
 10
62.7447
 20
16.0693
 30
0.0
 11
62.7447
 21
15.1488
 31
0.0
  0
LINE
  8
0
 62
     0
 10
62.7447
 20
15.1488
 30
0.0
 11
61.0196
 21
15.1488
 31
0.0
  0
LINE
  8
0
 62
     0
 10
61.0196
 20
15.1488
 30
0.0
 11
61.0196
 21
11.9187
 31
0.0
  0
LINE
  8
0
 62
     0
 10
61.0196
 20
11.9187
 30
0.0
 11
60.1941
 21
11.9187
 31
0.0
  0
LINE
  8
0
 62
     0
 10
60.1941
 20
11.9187
 30
0.0
 11
60.1941
 21
9.11849
 31
0.0
  0
LINE
  8
0
 62
     0
 10
60.1941
 20
9.11849
 30
0.0
 11
61.0196
 21
9.11849
 31
0.0
  0
LINE
  8
0
 62
     0
 10
61.0196
 20
9.11849
 30
0.0
 11
61.0196
 21
2.84841
 31
0.0
  0
LINE
  8
0
 62
     0
 10
61.0196
 20
2.84841
 30
0.0
 11
62.7447
 21
2.84841
 31
0.0
  0
LINE
  8
0
 62
     0
 10
62.7447
 20
2.84841
 30
0.0
 11
62.7447
 21
1.86862
 31
0.0
  0
LINE
  8
0
 62
     0
 10
62.7447
 20
1.86862
 30
0.0
 11
66.0453
 21
1.86862
 31
0.0
  0
LINE
  8
0
 62
     0
 10
66.0453
 20
1.86862
 30
0.0
 11
66.0453
 21
2.84841
 31
0.0
  0
LINE
  8
0
 62
     0
 10
66.0453
 20
2.84841
 30
0.0
 11
67.7693
 21
2.84841
 31
0.0
  0
LINE
  8
0
 62
     0
 10
67.7693
 20
2.84841
 30
0.0
 11
67.7693
 21
7.31876
 31
0.0
  0
LINE
  8
0
 62
     0
 10
67.7693
 20
7.31876
 30
0.0
 11
69.2947
 21
7.31876
 31
0.0
  0
LINE
  8
0
 62
     0
 10
69.2947
 20
7.31876
 30
0.0
 11
69.2947
 21
2.61827
 31
0.0
  0
LINE
  8
0
 62
     0
 10
69.2947
 20
2.61827
 30
0.0
 11
83.294
 21
2.61827
 31
0.0
  0
LINE
  8
0
 62
     0
 10
83.294
 20
2.61827
 30
0.0
 11
83.294
 21
7.31876
 31
0.0
  0
LINE
  8
0
 62
     0
 10
83.294
 20
7.31876
 30
0.0
 11
84.8198
 21
7.31876
 31
0.0
  0
LINE
  8
0
 62
     0
 10
84.8198
 20
7.31876
 30
0.0
 11
84.8198
 21
2.84841
 31
0.0
  0
LINE
  8
0
 62
     0
 10
84.8198
 20
2.84841
 30
0.0
 11
86.5449
 21
2.84841
 31
0.0
  0
LINE
  8
0
 62
     0
 10
86.5449
 20
2.84841
 30
0.0
 11
86.5449
 21
1.86862
 31
0.0
  0
LINE
  8
0
 62
     0
 10
86.5449
 20
1.86862
 30
0.0
 11
89.8454
 21
1.86862
 31
0.0
  0
LINE
  8
0
 62
     0
 10
89.8454
 20
1.86862
 30
0.0
 11
89.8454
 21
2.84841
 31
0.0
  0
LINE
  8
0
 62
     0
 10
89.8454
 20
2.84841
 30
0.0
 11
91.5691
 21
2.84841
 31
0.0
  0
LINE
  8
0
 62
     0
 10
91.5691
 20
2.84841
 30
0.0
 11
91.5691
 21
9.11849
 31
0.0
  0
LINE
  8
0
 62
     0
 10
91.5691
 20
9.11849
 30
0.0
 11
92.3946
 21
9.11849
 31
0.0
  0
LINE
  8
0
 62
     0
 10
92.3946
 20
9.11849
 30
0.0
 11
92.3946
 21
11.9187
 31
0.0
  0
LINE
  8
0
 62
     0
 10
92.3946
 20
11.9187
 30
0.0
 11
91.5691
 21
11.9187
 31
0.0
  0
LINE
  8
0
 62
     0
 10
91.5691
 20
11.9187
 30
0.0
 11
91.5691
 21
15.1488
 31
0.0
  0
LINE
  8
0
 62
     0
 10
91.5691
 20
15.1488
 30
0.0
 11
89.8454
 21
15.1488
 31
0.0
  0
LINE
  8
0
 62
     0
 10
89.8454
 20
15.1488
 30
0.0
 11
89.8454
 21
16.0693
 31
0.0
  0
LINE
  8
0
 62
     0
 10
89.8454
 20
16.0693
 30
0.0
 11
86.5449
 21
16.0693
 31
0.0
  0
LINE
  8
0
 62
     0
 10
86.5449
 20
16.0693
 30
0.0
 11
86.5449
 21
15.1488
 31
0.0
  0
LINE
  8
0
 62
     0
 10
86.5449
 20
15.1488
 30
0.0
 11
84.8198
 21
15.1488
 31
0.0
  0
LINE
  8
0
 62
     0
 10
84.8198
 20
15.1488
 30
0.0
 11
84.8198
 21
11.9187
 31
0.0
  0
LINE
  8
0
 62
     0
 10
84.8198
 20
11.9187
 30
0.0
 11
83.294
 21
11.9187
 31
0.0
  0
LINE
  8
0
 62
     0
 10
83.294
 20
11.9187
 30
0.0
 11
83.294
 21
16.6192
 31
0.0
  0
LINE
  8
0
 62
     0
 10
83.294
 20
16.6192
 30
0.0
 11
69.2947
 21
16.6192
 31
0.0
  0
LINE
  8
0
 62
     0
 10
2.61965
 20
30.9066
 30
0.0
 11
16.6192
 21
30.9066
 31
0.0
  0
LINE
  8
0
 62
     0
 10
16.6192
 20
30.9066
 30
0.0
 11
16.6192
 21
16.9072
 31
0.0
  0
LINE
  8
0
 62
     0
 10
16.6192
 20
16.9072
 30
0.0
 11
2.61965
 21
16.9072
 31
0.0
  0
LINE
  8
0
 62
     0
 10
2.61965
 20
16.9072
 30
0.0
 11
2.61965
 21
30.9066
 31
0.0
  0
LINE
  8
0
 62
     0
 10
21.6697
 20
30.9066
 30
0.0
 11
35.669
 21
30.9066
 31
0.0
  0
LINE
  8
0
 62
     0
 10
35.669
 20
30.9066
 30
0.0
 11
35.669
 21
16.9072
 31
0.0
  0
LINE
  8
0
 62
     0
 10
35.669
 20
16.9072
 30
0.0
 11
21.6697
 21
16.9072
 31
0.0
  0
LINE
  8
0
 62
     0
 10
21.6697
 20
16.9072
 30
0.0
 11
21.6697
 21
30.9066
 31
0.0
  0
LINE
  8
0
 62
     0
 10
40.7197
 20
35.669
 30
0.0
 11
54.719
 21
35.669
 31
0.0
  0
LINE
  8
0
 62
     0
 10
54.719
 20
35.669
 30
0.0
 11
54.719
 21
21.6683
 31
0.0
  0
LINE
  8
0
 62
     0
 10
54.719
 20
21.6683
 30
0.0
 11
40.7197
 21
21.6683
 31
0.0
  0
LINE
  8
0
 62
     0
 10
40.7197
 20
21.6683
 30
0.0
 11
40.7197
 21
35.669
 31
0.0
  0
LINE
  8
0
 62
     0
 10
59.7697
 20
35.669
 30
0.0
 11
73.769
 21
35.669
 31
0.0
  0
LINE
  8
0
 62
     0
 10
73.769
 20
35.669
 30
0.0
 11
73.769
 21
21.6683
 31
0.0
  0
LINE
  8
0
 62
     0
 10
73.769
 20
21.6683
 30
0.0
 11
59.7697
 21
21.6683
 31
0.0
  0
LINE
  8
0
 62
     0
 10
59.7697
 20
21.6683
 30
0.0
 11
59.7697
 21
35.669
 31
0.0
  0
LINE
  8
0
 62
     0
 10
21.6697
 20
49.9565
 30
0.0
 11
35.669
 21
49.9565
 31
0.0
  0
LINE
  8
0
 62
     0
 10
35.669
 20
49.9565
 30
0.0
 11
35.669
 21
35.9572
 31
0.0
  0
LINE
  8
0
 62
     0
 10
35.669
 20
35.9572
 30
0.0
 11
21.6697
 21
35.9572
 31
0.0
  0
LINE
  8
0
 62
     0
 10
21.6697
 20
35.9572
 30
0.0
 11
21.6697
 21
49.9565
 31
0.0
  0
LINE
  8
0
 62
     0
 10
40.7197
 20
54.719
 30
0.0
 11
54.719
 21
54.719
 31
0.0
  0
LINE
  8
0
 62
     0
 10
54.719
 20
54.719
 30
0.0
 11
54.719
 21
40.7183
 31
0.0
  0
LINE
  8
0
 62
     0
 10
54.719
 20
40.7183
 30
0.0
 11
40.7197
 21
40.7183
 31
0.0
  0
LINE
  8
0
 62
     0
 10
40.7197
 20
40.7183
 30
0.0
 11
40.7197
 21
54.719
 31
0.0
  0
LINE
  8
0
 62
     0
 10
59.7697
 20
54.719
 30
0.0
 11
73.769
 21
54.719
 31
0.0
  0
LINE
  8
0
 62
     0
 10
73.769
 20
54.719
 30
0.0
 11
73.769
 21
40.7183
 31
0.0
  0
LINE
  8
0
 62
     0
 10
73.769
 20
40.7183
 30
0.0
 11
59.7697
 21
40.7183
 31
0.0
  0
LINE
  8
0
 62
     0
 10
59.7697
 20
40.7183
 30
0.0
 11
59.7697
 21
54.719
 31
0.0
  0
LINE
  8
0
 62
     0
 10
21.6697
 20
69.0065
 30
0.0
 11
35.669
 21
69.0065
 31
0.0
  0
LINE
  8
0
 62
     0
 10
35.669
 20
69.0065
 30
0.0
 11
35.669
 21
55.0072
 31
0.0
  0
LINE
  8
0
 62
     0
 10
35.669
 20
55.0072
 30
0.0
 11
21.6697
 21
55.0072
 31
0.0
  0
LINE
  8
0
 62
     0
 10
21.6697
 20
55.0072
 30
0.0
 11
21.6697
 21
69.0065
 31
0.0
  0
LINE
  8
0
 62
     0
 10
40.7197
 20
73.769
 30
0.0
 11
54.719
 21
73.769
 31
0.0
  0
LINE
  8
0
 62
     0
 10
54.719
 20
73.769
 30
0.0
 11
54.719
 21
59.7683
 31
0.0
  0
LINE
  8
0
 62
     0
 10
54.719
 20
59.7683
 30
0.0
 11
40.7197
 21
59.7683
 31
0.0
  0
LINE
  8
0
 62
     0
 10
40.7197
 20
59.7683
 30
0.0
 11
40.7197
 21
73.769
 31
0.0
  0
LINE
  8
0
 62
     0
 10
59.7697
 20
73.769
 30
0.0
 11
73.769
 21
73.769
 31
0.0
  0
LINE
  8
0
 62
     0
 10
73.769
 20
73.769
 30
0.0
 11
73.769
 21
59.7683
 31
0.0
  0
LINE
  8
0
 62
     0
 10
73.769
 20
59.7683
 30
0.0
 11
59.7697
 21
59.7683
 31
0.0
  0
LINE
  8
0
 62
     0
 10
59.7697
 20
59.7683
 30
0.0
 11
59.7697
 21
73.769
 31
0.0
  0
ENDSEC
  0
EOF
